<svg width="165" height="181" viewBox="0 0 165 181" fill="none" xmlns="http://www.w3.org/2000/svg">
<g clip-path="url(#clip0)">
<path d="M16.9804 164.612C16.9804 164.612 73.6857 131.584 146.785 164.612" stroke="#3F3D56" stroke-miterlimit="10"/>
<path d="M28.3899 159.427C26.0784 158.951 24.0019 157.693 22.5109 155.865C21.0198 154.038 20.2055 151.752 20.2053 149.394V10.3761C20.2053 9.03113 20.4704 7.69933 20.9856 6.45673C21.5007 5.21413 22.2557 4.08508 23.2076 3.13404C24.1594 2.183 25.2894 1.42859 26.5331 0.91389C27.7767 0.39919 29.1096 0.134277 30.4557 0.134277H133.309C134.655 0.134277 135.988 0.39919 137.232 0.91389C138.475 1.42859 139.605 2.183 140.557 3.13404C141.509 4.08508 142.264 5.21413 142.779 6.45673C143.294 7.69933 143.56 9.03113 143.56 10.3761V149.394C143.559 151.919 142.626 154.355 140.938 156.235C139.25 158.114 136.926 159.304 134.413 159.577" stroke="#3F3D56" stroke-miterlimit="10"/>
<path d="M136.169 16.6404H26.5208V143.129H136.169V16.6404Z" stroke="#3F3D56" stroke-miterlimit="10"/>
<path d="M81.8824 11.0093C83.3667 11.0093 84.5699 9.80712 84.5699 8.32412C84.5699 6.84112 83.3667 5.63892 81.8824 5.63892C80.3982 5.63892 79.1949 6.84112 79.1949 8.32412C79.1949 9.80712 80.3982 11.0093 81.8824 11.0093Z" stroke="#3F3D56" stroke-miterlimit="10"/>
<path d="M76.1161 150C76.4157 148.686 77.1556 147.514 78.2133 146.678C79.2709 145.843 80.5828 145.393 81.9313 145.404C83.2798 145.415 84.584 145.886 85.6277 146.74C86.6714 147.593 87.3918 148.777 87.6695 150.096" stroke="#3F3D56" stroke-miterlimit="10"/>
<path d="M14.2608 25.7665C13.1152 25.8311 12.0103 26.2134 11.07 26.8703C10.1296 27.5272 9.39104 28.4329 8.93698 29.4858C7.60575 32.701 9.31981 36.4777 11.8929 38.8223C14.466 41.1669 17.7714 42.507 20.7745 44.2685C24.8083 46.6345 28.4329 49.9189 30.4512 54.135C32.4695 58.3511 32.6842 63.5735 30.3117 67.6013C28.1097 71.3397 24.1057 73.5772 20.287 75.6407" stroke="#3F3D56" stroke-miterlimit="10"/>
<path d="M17.6522 28.3289C20.2496 28.3289 22.3553 27.307 22.3553 26.0465C22.3553 24.7859 20.2496 23.764 17.6522 23.764C15.0548 23.764 12.9492 24.7859 12.9492 26.0465C12.9492 27.307 15.0548 28.3289 17.6522 28.3289Z" fill="#57B894"/>
<path d="M21.4146 43.3661C24.0121 43.3661 26.1177 42.3442 26.1177 41.0836C26.1177 39.8231 24.0121 38.8012 21.4146 38.8012C18.8172 38.8012 16.7116 39.8231 16.7116 41.0836C16.7116 42.3442 18.8172 43.3661 21.4146 43.3661Z" fill="#57B894"/>
<path d="M12.8148 45.7828C15.4122 45.7828 17.5178 44.7609 17.5178 43.5003C17.5178 42.2398 15.4122 41.2179 12.8148 41.2179C10.2174 41.2179 8.11176 42.2398 8.11176 43.5003C8.11176 44.7609 10.2174 45.7828 12.8148 45.7828Z" fill="#57B894"/>
<path d="M26.2521 58.4032C28.8495 58.4032 30.9551 57.3813 30.9551 56.1208C30.9551 54.8603 28.8495 53.8384 26.2521 53.8384C23.6547 53.8384 21.549 54.8603 21.549 56.1208C21.549 57.3813 23.6547 58.4032 26.2521 58.4032Z" fill="#57B894"/>
<path d="M35.6582 58.4032C38.2556 58.4032 40.3612 57.3813 40.3612 56.1208C40.3612 54.8603 38.2556 53.8384 35.6582 53.8384C33.0608 53.8384 30.9551 54.8603 30.9551 56.1208C30.9551 57.3813 33.0608 58.4032 35.6582 58.4032Z" fill="#57B894"/>
<path d="M140.695 117.967C139.629 118.027 138.6 118.383 137.724 118.995C136.849 119.607 136.161 120.45 135.738 121.431C134.498 124.425 136.094 127.941 138.491 130.125C140.887 132.308 143.964 133.556 146.761 135.196C150.517 137.399 153.892 140.458 155.772 144.384C157.651 148.31 157.851 153.173 155.642 156.923C153.591 160.405 149.863 162.488 146.307 164.41" stroke="#3F3D56" stroke-miterlimit="10"/>
<path d="M143.854 120.353C146.272 120.353 148.233 119.402 148.233 118.228C148.233 117.054 146.272 116.102 143.854 116.102C141.435 116.102 139.474 117.054 139.474 118.228C139.474 119.402 141.435 120.353 143.854 120.353Z" fill="#57B894"/>
<path d="M147.357 134.356C149.776 134.356 151.737 133.404 151.737 132.23C151.737 131.056 149.776 130.105 147.357 130.105C144.938 130.105 142.978 131.056 142.978 132.23C142.978 133.404 144.938 134.356 147.357 134.356Z" fill="#57B894"/>
<path d="M139.349 136.606C141.768 136.606 143.728 135.654 143.728 134.481C143.728 133.307 141.768 132.355 139.349 132.355C136.93 132.355 134.97 133.307 134.97 134.481C134.97 135.654 136.93 136.606 139.349 136.606Z" fill="#57B894"/>
<path d="M151.862 148.358C154.28 148.358 156.241 147.407 156.241 146.233C156.241 145.059 154.28 144.107 151.862 144.107C149.443 144.107 147.482 145.059 147.482 146.233C147.482 147.407 149.443 148.358 151.862 148.358Z" fill="#57B894"/>
<path d="M160.621 148.358C163.039 148.358 165 147.407 165 146.233C165 145.059 163.039 144.107 160.621 144.107C158.202 144.107 156.241 145.059 156.241 146.233C156.241 147.407 158.202 148.358 160.621 148.358Z" fill="#57B894"/>
<path d="M151.315 126.554C152.186 126.603 153.026 126.894 153.741 127.394C154.456 127.893 155.018 128.582 155.363 129.383C156.376 131.828 155.072 134.7 153.115 136.483C151.159 138.266 148.645 139.285 146.361 140.624C143.294 142.424 140.537 144.921 139.002 148.128C137.467 151.334 137.304 155.305 139.108 158.368C140.783 161.211 143.828 162.913 146.732 164.482" stroke="#3F3D56" stroke-miterlimit="10"/>
<path d="M148.736 128.503C150.711 128.503 152.312 127.726 152.312 126.767C152.312 125.808 150.711 125.031 148.736 125.031C146.76 125.031 145.159 125.808 145.159 126.767C145.159 127.726 146.76 128.503 148.736 128.503Z" fill="#57B894"/>
<path d="M145.874 139.938C147.85 139.938 149.451 139.161 149.451 138.202C149.451 137.244 147.85 136.467 145.874 136.467C143.899 136.467 142.298 137.244 142.298 138.202C142.298 139.161 143.899 139.938 145.874 139.938Z" fill="#57B894"/>
<path d="M152.414 141.776C154.39 141.776 155.991 140.999 155.991 140.04C155.991 139.082 154.39 138.305 152.414 138.305C150.439 138.305 148.838 139.082 148.838 140.04C148.838 140.999 150.439 141.776 152.414 141.776Z" fill="#57B894"/>
<path d="M142.196 151.374C144.171 151.374 145.772 150.596 145.772 149.638C145.772 148.679 144.171 147.902 142.196 147.902C140.22 147.902 138.619 148.679 138.619 149.638C138.619 150.596 140.22 151.374 142.196 151.374Z" fill="#57B894"/>
<path d="M135.043 151.374C137.018 151.374 138.619 150.596 138.619 149.638C138.619 148.679 137.018 147.902 135.043 147.902C133.067 147.902 131.466 148.679 131.466 149.638C131.466 150.596 133.067 151.374 135.043 151.374Z" fill="#57B894"/>
<path d="M44.9299 43.2404V103.926H116.147" stroke="#3F3D56" stroke-miterlimit="10"/>
<path d="M59.9796 83.787H54.0672V99.3612H59.9796V83.787Z" fill="#6C63FF"/>
<path d="M72.0732 78.4166H66.1608V99.3612H72.0732V78.4166Z" fill="#6C63FF"/>
<path d="M84.1667 71.972H78.2543V99.3611H84.1667V71.972Z" fill="#6C63FF"/>
<path d="M96.2603 60.4258H90.3479V99.3612H96.2603V60.4258Z" fill="#6C63FF"/>
<path d="M108.354 51.296H102.441V99.3612H108.354V51.296Z" fill="#6C63FF"/>
<path d="M58.0984 81.9073H52.186V97.4815H58.0984V81.9073Z" stroke="#3F3D56" stroke-miterlimit="10"/>
<path d="M70.192 76.5369H64.2796V97.4815H70.192V76.5369Z" stroke="#3F3D56" stroke-miterlimit="10"/>
<path d="M82.2855 70.0925H76.3731V97.4815H82.2855V70.0925Z" stroke="#3F3D56" stroke-miterlimit="10"/>
<path d="M94.3791 58.546H88.4667V97.4815H94.3791V58.546Z" stroke="#3F3D56" stroke-miterlimit="10"/>
</g>
<defs>
<clipPath id="clip0">
<rect width="165" height="181" fill="white"/>
</clipPath>
</defs>
</svg>
