<svg width="239" height="168" viewBox="0 0 239 168" fill="none" xmlns="http://www.w3.org/2000/svg">
<g clip-path="url(#clip0)">
<path opacity="0.1" d="M207.111 168C214.697 168 220.847 166.371 220.847 164.361C220.847 162.352 214.697 160.722 207.111 160.722C199.525 160.722 193.375 162.352 193.375 164.361C193.375 166.371 199.525 168 207.111 168Z" fill="#6C63FF"/>
<path opacity="0.1" d="M229.765 148.827C224.539 153.153 217.102 154.944 209.91 156.075L208.7 156.259C201.188 157.377 193.592 157.972 185.971 158.334C181.893 158.531 177.815 158.671 173.737 158.795L170.542 158.889C166.392 159.012 162.235 159.132 158.07 159.251C153.992 159.367 149.914 159.475 145.836 159.577C140.614 159.704 135.391 159.809 130.169 159.893C126.091 159.958 122.013 160.002 117.935 160.026C112.711 160.056 107.489 160.046 102.268 159.996C98.1872 159.955 94.1094 159.883 90.0344 159.782C84.809 159.648 79.5865 159.452 74.3669 159.193C70.8242 159.02 67.2836 158.813 63.7452 158.57L62.1334 158.456C46.9445 157.364 31.4831 155.404 18.1915 149.211L17.833 149.041C17.6549 148.958 17.4768 148.874 17.2986 148.786C14.8582 147.622 12.5205 146.254 10.3105 144.698C6.38075 141.901 3.13565 138.487 1.42081 134.437C-1.26627 128.084 0.154531 120.944 3.22364 114.733C6.29275 108.522 10.9007 102.915 14.8863 97.0656C16.0538 95.3522 17.1613 93.5746 18.1915 91.752C24.6302 80.3215 27.8237 67.0942 21.0738 56.0792C20.1829 54.6748 19.2209 53.3166 18.1915 52.0099C16.5453 49.8682 14.8712 47.7264 13.7402 45.3555C11.1025 39.8384 11.6691 33.6338 12.6306 27.7398C13.9183 19.9031 16.2792 11.4626 23.6579 6.56654C31.3135 1.48206 42.1799 1.73907 51.6813 3.56811C66.4538 6.39306 80.0888 12.3064 93.8525 17.6393C107.616 22.9722 122.035 27.849 137.168 28.3737C140.419 28.4847 143.673 28.3666 146.907 28.0203C151.219 27.5782 155.472 26.6844 159.596 25.3539C165.552 23.3963 170.971 20.4514 174.989 16.3586C183.606 7.60957 199.799 6.94777 211.475 12.2314C222.616 17.2731 229.821 27.9432 229.288 38.6005C228.683 50.4636 219.781 60.2171 211.623 70.2211C210.633 71.4333 209.657 72.6498 208.706 73.8749C208.175 74.5588 207.654 75.2442 207.144 75.931C206.249 77.1432 205.384 78.3618 204.568 79.5955C200.4 85.92 197.453 93.5168 200.323 100.345C201.932 104.168 205.004 107.085 208.706 109.631C217.001 115.335 228.451 119.173 233.602 127.157C238.041 134.038 236.397 143.327 229.765 148.827Z" fill="#6C63FF"/>
<g opacity="0.1">
<path opacity="0.1" d="M119.223 117.656C119.232 117.858 119.247 118.055 119.268 118.247C120.938 117.583 122.577 116.87 124.185 116.106C125.044 115.992 125.841 115.603 126.458 114.996C126.928 114.761 127.396 114.514 127.86 114.268C127.755 114.047 127.636 113.832 127.503 113.626C126.6 112.201 125.226 111.31 123.713 111.36C122.2 111.409 120.891 112.388 120.082 113.863C119.461 115.028 119.164 116.338 119.223 117.656Z" fill="#3F3D56"/>
<path opacity="0.1" d="M118.976 110.167C119.009 111.479 119.39 112.759 120.082 113.876C120.987 115.296 122.361 116.187 123.874 116.138C123.979 116.138 124.089 116.123 124.185 116.114C125.044 116.001 125.841 115.611 126.458 115.005C126.877 114.607 127.229 114.146 127.503 113.638C128.109 112.472 128.404 111.171 128.362 109.858C128.319 108.546 127.939 107.266 127.259 106.142C126.353 104.718 124.979 103.827 123.466 103.876C121.953 103.926 120.646 104.904 119.837 106.38C119.217 107.543 118.92 108.85 118.976 110.167Z" fill="#3F3D56"/>
<path opacity="0.1" d="M123.626 108.649C126.217 108.564 128.227 105.751 128.116 102.366C128.005 98.9818 125.814 96.3068 123.223 96.3916C120.632 96.4765 118.622 99.2891 118.734 102.674C118.845 106.058 121.036 108.733 123.626 108.649Z" fill="#3F3D56"/>
<path opacity="0.1" d="M123.38 101.16C125.971 101.076 127.981 98.2629 127.87 94.8782C127.759 91.4936 125.568 88.8185 122.977 88.9034C120.386 88.9883 118.376 91.8009 118.487 95.1856C118.599 98.5702 120.789 101.245 123.38 101.16Z" fill="#3F3D56"/>
<path opacity="0.1" d="M123.134 93.67C125.725 93.5851 127.735 90.7725 127.624 87.3878C127.513 84.0031 125.322 81.3281 122.731 81.413C120.14 81.4979 118.13 84.3105 118.241 87.6951C118.353 91.0798 120.543 93.7548 123.134 93.67Z" fill="#3F3D56"/>
<path opacity="0.1" d="M138.816 35.7177C139.43 34.8828 139.985 34.0061 140.477 33.0941L128.085 31.4792L141.417 31.1408C142.605 28.3232 143.204 25.2933 143.177 22.2367C143.151 19.1801 142.499 16.1611 141.263 13.3644L123.683 23.2057L139.78 10.5695C138.141 7.9678 135.984 5.72985 133.443 3.99437C130.902 2.25889 128.03 1.06289 125.007 0.480527C121.983 -0.101831 118.872 -0.0581281 115.866 0.608926C112.86 1.27598 110.023 2.55216 107.532 4.35833C105.041 6.16451 102.948 8.46216 101.383 11.1088C99.8182 13.7555 98.8149 16.6947 98.4355 19.7442C98.056 22.7937 98.3084 25.8885 99.177 28.8367C100.046 31.7848 101.512 34.5235 103.485 36.8828C102.528 38.1828 101.715 39.5815 101.057 41.0549L117.328 48.8252L100.081 43.6721C98.9995 47.2447 98.8278 51.03 99.5814 54.6855C100.335 58.3409 101.99 61.7512 104.397 64.6076C101.9 68.0009 100.41 72.0267 100.098 76.225C99.786 80.4233 100.664 84.6245 102.632 88.3483C104.599 92.0721 107.578 95.1682 111.225 97.2827C114.873 99.3971 119.044 100.445 123.26 100.305C127.477 100.166 131.569 98.8454 135.068 96.4947C138.568 94.144 141.334 90.8581 143.051 87.0125C144.767 83.1669 145.365 78.9169 144.775 74.7485C144.185 70.58 142.432 66.6613 139.715 63.4404C142.701 59.3876 144.235 54.4512 144.072 49.4238C143.909 44.3963 142.058 39.5694 138.816 35.7177Z" fill="#6C63FF"/>
<path opacity="0.1" d="M99.1323 50.8941C99.2891 55.9246 101.144 60.7548 104.397 64.6012C101.899 67.994 100.409 72.0196 100.096 76.2178C99.783 80.416 100.66 84.6174 102.627 88.3416C104.594 92.0658 107.572 95.1625 111.219 97.2776C114.867 99.3927 119.037 100.441 123.254 100.302C127.47 100.164 131.562 98.844 135.062 96.4939C138.563 94.1439 141.329 90.8584 143.047 87.0131C144.764 83.1679 145.362 78.918 144.773 74.7494C144.184 70.5808 142.431 66.6618 139.715 63.4404C142.602 59.5296 99.0507 48.3775 99.1323 50.8941Z" fill="black"/>
</g>
<g opacity="0.1">
<path opacity="0.1" d="M70.0058 157.109C70.0058 157.251 69.9908 157.392 69.9736 157.538C68.786 157.066 67.6192 156.562 66.4731 156.023C65.8624 155.944 65.2944 155.668 64.8548 155.237C64.52 155.067 64.1873 154.895 63.8568 154.719C63.9314 154.563 64.016 154.411 64.1101 154.265C64.7539 153.25 65.7283 152.616 66.8057 152.65C67.8832 152.684 68.8146 153.378 69.3812 154.428C69.8248 155.25 70.0405 156.176 70.0058 157.109Z" fill="#3F3D56"/>
<path opacity="0.1" d="M70.1732 151.779C70.152 152.712 69.8824 153.624 69.3919 154.419C68.7481 155.43 67.7715 156.066 66.6963 156.032L66.4817 156.015C65.871 155.935 65.303 155.659 64.8634 155.229C64.5648 154.946 64.3134 154.618 64.1187 154.256C63.6882 153.428 63.4776 152.502 63.5069 151.569C63.5362 150.636 63.8044 149.726 64.2861 148.926C64.9299 147.911 65.9065 147.277 66.9817 147.311C68.057 147.345 68.9906 148.039 69.5679 149.088C70.0064 149.915 70.2153 150.844 70.1732 151.779Z" fill="#3F3D56"/>
<path opacity="0.1" d="M70.3466 146.458C70.4228 144.049 68.9903 142.05 67.1468 141.992C65.3033 141.934 63.7471 143.839 63.6708 146.247C63.5946 148.655 65.0272 150.655 66.8706 150.713C68.7141 150.771 70.2703 148.866 70.3466 146.458Z" fill="#3F3D56"/>
<path opacity="0.1" d="M70.5134 141.128C70.5896 138.719 69.157 136.72 67.3136 136.662C65.4701 136.604 63.9139 138.509 63.8376 140.917C63.7613 143.325 65.1939 145.325 67.0374 145.383C68.8809 145.441 70.4371 143.536 70.5134 141.128Z" fill="#3F3D56"/>
<path opacity="0.1" d="M70.6823 135.796C70.7586 133.387 69.326 131.388 67.4825 131.33C65.6391 131.272 64.0828 133.177 64.0066 135.585C63.9303 137.993 65.3629 139.993 67.2064 140.051C69.0498 140.109 70.6061 138.204 70.6823 135.796Z" fill="#3F3D56"/>
<path opacity="0.1" d="M55.9973 98.8155C55.5597 98.2213 55.1632 97.598 54.8105 96.95L63.6272 95.7806L54.1387 95.5665C53.2907 93.562 52.8617 91.4058 52.8779 89.23C52.8941 87.0543 53.3553 84.9048 54.2331 82.9131L66.7521 89.9016L55.2869 80.917C56.4472 79.057 57.9787 77.4552 59.7861 76.2114C61.5935 74.9676 63.6381 74.1083 65.7927 73.6871C67.9472 73.2658 70.1656 73.2917 72.3097 73.7629C74.4538 74.2342 76.4778 75.1409 78.2556 76.4264C80.0335 77.712 81.5271 79.349 82.6436 81.2355C83.76 83.122 84.4754 85.2176 84.7452 87.3919C85.015 89.5662 84.8334 91.7727 84.2118 93.874C83.5902 95.9752 82.5417 97.9263 81.1318 99.6058C81.8146 100.53 82.3953 101.525 82.8638 102.574L71.2914 108.117L83.5614 104.433C84.3336 106.975 84.459 109.669 83.9261 112.272C83.3933 114.875 82.219 117.304 80.5094 119.34C82.29 121.752 83.3545 124.615 83.5812 127.603C83.8078 130.59 83.1875 133.581 81.7912 136.233C80.3949 138.885 78.2788 141.092 75.685 142.601C73.0913 144.109 70.1244 144.859 67.1237 144.765C64.1229 144.67 61.2094 143.735 58.7162 142.066C56.223 140.397 54.2508 138.061 53.025 135.326C51.7992 132.591 51.3693 129.568 51.7845 126.6C52.1997 123.633 53.4432 120.842 55.3728 118.547C53.245 115.665 52.1499 112.153 52.2631 108.575C52.3764 104.996 53.6915 101.56 55.9973 98.8176V98.8155Z" fill="#6C63FF"/>
<path opacity="0.1" d="M84.2417 109.58C84.1341 113.16 82.8191 116.599 80.5094 119.34C82.29 121.752 83.3545 124.615 83.5812 127.603C83.8078 130.59 83.1875 133.581 81.7912 136.233C80.3949 138.885 78.2788 141.092 75.685 142.601C73.0913 144.109 70.1244 144.859 67.1237 144.765C64.1229 144.67 61.2094 143.735 58.7162 142.066C56.223 140.397 54.2508 138.061 53.025 135.326C51.7992 132.591 51.3693 129.568 51.7845 126.6C52.1997 123.633 53.4432 120.843 55.3728 118.547C53.3145 115.763 84.3018 107.787 84.2417 109.58Z" fill="black"/>
</g>
<g opacity="0.1">
<path opacity="0.1" d="M181.775 129.256C181.775 129.399 181.76 129.539 181.745 129.684C180.556 129.213 179.389 128.708 178.244 128.17C177.633 128.09 177.065 127.814 176.624 127.384C176.291 127.215 175.957 127.041 175.626 126.866C175.702 126.71 175.786 126.558 175.879 126.412C176.523 125.397 177.498 124.763 178.575 124.797C179.652 124.831 180.584 125.525 181.15 126.574C181.594 127.397 181.81 128.323 181.775 129.256Z" fill="#3F3D56"/>
<path opacity="0.1" d="M181.955 123.925C181.934 124.859 181.663 125.771 181.172 126.566C180.528 127.577 179.554 128.213 178.476 128.179L178.262 128.162C177.65 128.082 177.082 127.806 176.641 127.376C176.344 127.092 176.092 126.764 175.897 126.403C175.466 125.574 175.255 124.649 175.285 123.716C175.314 122.783 175.582 121.873 176.064 121.072C176.708 120.059 177.684 119.423 178.76 119.457C179.835 119.492 180.771 120.186 181.346 121.235C181.786 122.062 181.996 122.99 181.955 123.925Z" fill="#3F3D56"/>
<path opacity="0.1" d="M182.123 118.603C182.199 116.194 180.767 114.195 178.923 114.137C177.08 114.079 175.524 115.984 175.447 118.392C175.371 120.8 176.804 122.8 178.647 122.858C180.491 122.916 182.047 121.011 182.123 118.603Z" fill="#3F3D56"/>
<path opacity="0.1" d="M182.292 113.273C182.368 110.864 180.936 108.865 179.092 108.807C177.249 108.749 175.693 110.654 175.616 113.062C175.54 115.47 176.973 117.47 178.816 117.528C180.66 117.586 182.216 115.681 182.292 113.273Z" fill="#3F3D56"/>
<path opacity="0.1" d="M182.461 107.943C182.537 105.535 181.105 103.535 179.261 103.477C177.418 103.419 175.862 105.324 175.785 107.732C175.709 110.141 177.142 112.14 178.985 112.198C180.828 112.256 182.385 110.351 182.461 107.943Z" fill="#3F3D56"/>
<path opacity="0.1" d="M167.767 70.9622C167.328 70.3688 166.933 69.7454 166.582 69.0967L175.399 67.938L165.91 67.7089C165.063 65.7043 164.634 63.5483 164.649 61.3727C164.665 59.1971 165.126 57.0475 166.002 55.0555L178.521 62.044L167.056 53.0637C168.214 51.1991 169.745 49.5927 171.553 48.3448C173.361 47.0968 175.408 46.234 177.564 45.8102C179.721 45.3864 181.943 45.4107 184.09 45.8815C186.237 46.3524 188.264 47.2598 190.044 48.547C191.824 49.8342 193.319 51.4737 194.436 53.3632C195.553 55.2526 196.268 57.3515 196.536 59.5289C196.804 61.7062 196.62 63.9154 195.994 66.0185C195.369 68.1216 194.316 70.0735 192.901 71.7525C193.583 72.6769 194.163 73.6721 194.631 74.7209L183.058 80.2637L195.328 76.5799C196.102 79.1216 196.228 81.8156 195.695 84.418C195.162 87.0205 193.987 89.4492 192.277 91.4843C194.057 93.896 195.122 96.7592 195.349 99.7464C195.576 102.734 194.956 105.724 193.56 108.376C192.164 111.028 190.048 113.235 187.455 114.744C184.861 116.252 181.894 117.002 178.894 116.908C175.893 116.813 172.98 115.878 170.487 114.209C167.994 112.54 166.022 110.204 164.797 107.469C163.571 104.735 163.142 101.711 163.557 98.7439C163.973 95.7769 165.216 92.9866 167.146 90.6918C165.019 87.8096 163.923 84.2973 164.037 80.7191C164.15 77.141 165.465 73.7047 167.771 70.9622H167.767Z" fill="#6C63FF"/>
<path opacity="0.1" d="M196.013 81.7265C195.906 85.3061 194.59 88.7445 192.279 91.4843C194.059 93.8961 195.124 96.7592 195.35 99.7463C195.577 102.733 194.957 105.724 193.561 108.376C192.165 111.028 190.049 113.234 187.455 114.742C184.862 116.251 181.895 117.001 178.895 116.906C175.895 116.812 172.981 115.876 170.489 114.208C167.996 112.539 166.024 110.203 164.798 107.469C163.573 104.734 163.143 101.711 163.558 98.7438C163.973 95.777 165.217 92.9867 167.146 90.6918C165.086 87.9097 196.069 79.9318 196.013 81.7265Z" fill="black"/>
</g>
<path d="M41.5296 163.168C48.2871 163.168 53.7652 162.117 53.7652 160.821C53.7652 159.525 48.2871 158.474 41.5296 158.474C34.772 158.474 29.2939 159.525 29.2939 160.821C29.2939 162.117 34.772 163.168 41.5296 163.168Z" fill="#6C63FF"/>
<path d="M41.3257 161.684C42.1127 161.684 42.7508 160.851 42.7508 159.823C42.7508 158.795 42.1127 157.962 41.3257 157.962C40.5386 157.962 39.9006 158.795 39.9006 159.823C39.9006 160.851 40.5386 161.684 41.3257 161.684Z" fill="#3F3D56"/>
<path d="M41.3257 159.409C42.1127 159.409 42.7508 158.576 42.7508 157.548C42.7508 156.52 42.1127 155.687 41.3257 155.687C40.5386 155.687 39.9006 156.52 39.9006 157.548C39.9006 158.576 40.5386 159.409 41.3257 159.409Z" fill="#3F3D56"/>
<path d="M41.3257 157.135C42.1127 157.135 42.7508 156.302 42.7508 155.274C42.7508 154.246 42.1127 153.413 41.3257 153.413C40.5386 153.413 39.9006 154.246 39.9006 155.274C39.9006 156.302 40.5386 157.135 41.3257 157.135Z" fill="#3F3D56"/>
<path d="M41.3257 154.86C42.1127 154.86 42.7508 154.027 42.7508 152.999C42.7508 151.971 42.1127 151.138 41.3257 151.138C40.5386 151.138 39.9006 151.971 39.9006 152.999C39.9006 154.027 40.5386 154.86 41.3257 154.86Z" fill="#3F3D56"/>
<path d="M41.3257 152.586C42.1127 152.586 42.7508 151.753 42.7508 150.725C42.7508 149.697 42.1127 148.864 41.3257 148.864C40.5386 148.864 39.9006 149.697 39.9006 150.725C39.9006 151.753 40.5386 152.586 41.3257 152.586Z" fill="#3F3D56"/>
<path d="M41.3257 150.311C42.1127 150.311 42.7508 149.478 42.7508 148.45C42.7508 147.422 42.1127 146.589 41.3257 146.589C40.5386 146.589 39.9006 147.422 39.9006 148.45C39.9006 149.478 40.5386 150.311 41.3257 150.311Z" fill="#3F3D56"/>
<path d="M41.3257 148.037C42.1127 148.037 42.7508 147.204 42.7508 146.176C42.7508 145.148 42.1127 144.315 41.3257 144.315C40.5386 144.315 39.9006 145.148 39.9006 146.176C39.9006 147.204 40.5386 148.037 41.3257 148.037Z" fill="#3F3D56"/>
<path d="M46.6591 130.61C46.8533 130.362 47.0304 130.102 47.1892 129.83L43.4462 129.215L47.4939 129.247C47.8821 128.404 48.094 127.49 48.1165 126.562C48.139 125.634 47.9717 124.712 47.6249 123.85L42.1928 126.662L47.2021 122.981C46.7324 122.172 46.1009 121.468 45.347 120.914C44.593 120.359 43.7328 119.965 42.8197 119.757C41.9066 119.548 40.9603 119.53 40.0397 119.702C39.1191 119.874 38.2438 120.233 37.4684 120.758C36.693 121.282 36.0341 121.96 35.5326 122.75C35.0311 123.539 34.6979 124.423 34.5536 125.347C34.4093 126.27 34.457 127.213 34.6938 128.118C34.9306 129.022 35.3514 129.868 35.9301 130.603C35.6274 130.988 35.3669 131.405 35.1531 131.845L40.0122 134.364L34.8312 132.629C34.4672 133.702 34.3771 134.849 34.569 135.966C34.7608 137.082 35.2286 138.134 35.9301 139.024C35.1386 140.029 34.6463 141.236 34.5096 142.506C34.3729 143.777 34.5972 145.061 35.1569 146.21C35.7166 147.36 36.589 148.329 37.6746 149.007C38.7601 149.685 40.015 150.044 41.2956 150.044C42.5763 150.044 43.8311 149.685 44.9167 149.007C46.0022 148.329 46.8747 147.36 47.4344 146.21C47.9941 145.061 48.2184 143.777 48.0816 142.506C47.9449 141.236 47.4527 140.029 46.6612 139.024C47.6067 137.824 48.1207 136.341 48.1207 134.814C48.1207 133.287 47.6067 131.804 46.6612 130.603L46.6591 130.61Z" fill="#6C63FF"/>
<path opacity="0.1" d="M34.4706 134.82C34.4681 136.348 34.9823 137.831 35.9301 139.031C35.1386 140.036 34.6464 141.242 34.5096 142.513C34.3729 143.784 34.5972 145.067 35.1569 146.216C35.7166 147.366 36.589 148.335 37.6746 149.013C38.7601 149.691 40.015 150.051 41.2956 150.051C42.5763 150.051 43.8311 149.691 44.9167 149.013C46.0022 148.335 46.8747 147.366 47.4344 146.216C47.9941 145.067 48.2184 143.784 48.0816 142.513C47.9449 141.242 47.4527 140.036 46.6612 139.031C47.5734 137.872 34.4706 134.056 34.4706 134.82Z" fill="black"/>
<path d="M74.3669 110.773V159.176C70.8242 159.003 67.2836 158.795 63.7452 158.553L62.1334 158.439V110.773C62.1334 110.525 62.1824 110.279 62.2775 110.05C62.3726 109.821 62.5121 109.612 62.6878 109.437C62.8636 109.262 63.0723 109.122 63.302 109.028C63.5316 108.933 63.7778 108.884 64.0264 108.884H72.4739C72.7225 108.884 72.9687 108.933 73.1983 109.028C73.428 109.122 73.6367 109.262 73.8125 109.437C73.9882 109.612 74.1277 109.821 74.2228 110.05C74.3179 110.279 74.3669 110.525 74.3669 110.773Z" fill="#3F3D56"/>
<path d="M90.0344 159.778V78.4325C90.0344 77.9315 90.2338 77.4511 90.5888 77.0968C90.9438 76.7425 91.4253 76.5435 91.9274 76.5435H100.375C100.624 76.5435 100.87 76.5924 101.099 76.6873C101.329 76.7822 101.538 76.9214 101.713 77.0968C101.889 77.2722 102.029 77.4805 102.124 77.7096C102.219 77.9388 102.268 78.1845 102.268 78.4325V159.99L90.0344 159.778Z" fill="#3F3D56"/>
<path d="M117.935 160.033V95.3523C117.935 94.8513 118.135 94.3708 118.49 94.0165C118.845 93.6623 119.326 93.4633 119.828 93.4633H128.276C128.778 93.4633 129.259 93.6623 129.614 94.0165C129.969 94.3708 130.169 94.8513 130.169 95.3523V159.894L117.935 160.033Z" fill="#3F3D56"/>
<path d="M158.07 47.3774V159.251C153.992 159.367 149.914 159.475 145.836 159.577V47.3774C145.836 46.8764 146.036 46.3959 146.391 46.0416C146.746 45.6874 147.227 45.4883 147.729 45.4883H156.177C156.679 45.4883 157.161 45.6874 157.516 46.0416C157.871 46.3959 158.07 46.8764 158.07 47.3774Z" fill="#3F3D56"/>
<path d="M185.971 69.8656V158.319C181.893 158.516 177.815 158.656 173.737 158.78V69.8656C173.737 69.3646 173.937 68.8841 174.292 68.5298C174.647 68.1756 175.128 67.9766 175.63 67.9766H184.078C184.58 67.9766 185.061 68.1756 185.416 68.5298C185.771 68.8841 185.971 69.3646 185.971 69.8656Z" fill="#3F3D56"/>
<path d="M68.3575 82.5447L96.2585 51.4895L124.159 67.1242L152.06 19.1493L179.961 42.0659" stroke="#3F3D56" stroke-width="7" stroke-miterlimit="10" stroke-linecap="round"/>
<path d="M68.2502 88.5415C71.5691 88.5415 74.2596 85.8566 74.2596 82.5447C74.2596 79.2327 71.5691 76.5478 68.2502 76.5478C64.9312 76.5478 62.2407 79.2327 62.2407 82.5447C62.2407 85.8566 64.9312 88.5415 68.2502 88.5415Z" fill="#6C63FF"/>
<path d="M96.1512 57.4863C99.4701 57.4863 102.161 54.8015 102.161 51.4895C102.161 48.1775 99.4701 45.4926 96.1512 45.4926C92.8322 45.4926 90.1417 48.1775 90.1417 51.4895C90.1417 54.8015 92.8322 57.4863 96.1512 57.4863Z" fill="#6C63FF"/>
<path d="M124.052 73.121C127.371 73.121 130.062 70.4362 130.062 67.1242C130.062 63.8122 127.371 61.1273 124.052 61.1273C120.733 61.1273 118.043 63.8122 118.043 67.1242C118.043 70.4362 120.733 73.121 124.052 73.121Z" fill="#6C63FF"/>
<path d="M151.953 25.1461C155.272 25.1461 157.963 22.4612 157.963 19.1493C157.963 15.8373 155.272 13.1524 151.953 13.1524C148.634 13.1524 145.944 15.8373 145.944 19.1493C145.944 22.4612 148.634 25.1461 151.953 25.1461Z" fill="#6C63FF"/>
<path d="M205.609 76.1195C208.928 76.1195 211.618 73.4346 211.618 70.1226C211.618 66.8106 208.928 64.1257 205.609 64.1257C202.29 64.1257 199.599 66.8106 199.599 70.1226C199.599 73.4346 202.29 76.1195 205.609 76.1195Z" fill="#6C63FF"/>
<path opacity="0.1" d="M50.1531 155.441C52.3673 155.441 54.1623 155.138 54.1623 154.764C54.1623 154.39 52.3673 154.087 50.1531 154.087C47.9389 154.087 46.144 154.39 46.144 154.764C46.144 155.138 47.9389 155.441 50.1531 155.441Z" fill="#6C63FF"/>
<path d="M47.4618 151.622C47.4618 151.622 49.7475 151.551 50.4364 151.061C51.1254 150.571 53.9541 149.99 54.1258 150.772C54.2975 151.554 57.5598 154.678 54.9843 154.7C52.4088 154.721 48.9856 154.297 48.2988 153.88C47.612 153.462 47.4618 151.622 47.4618 151.622Z" fill="#A8A8A8"/>
<path opacity="0.2" d="M55.0251 154.426C52.4496 154.447 49.0285 154.025 48.3396 153.608C47.8159 153.288 47.6077 152.147 47.5369 151.62H47.4618C47.4618 151.62 47.6056 153.46 48.2945 153.877C48.9834 154.295 52.3981 154.719 54.98 154.698C55.7248 154.698 55.9823 154.428 55.9673 154.036C55.8643 154.274 55.581 154.421 55.0251 154.426Z" fill="black"/>
<path opacity="0.1" d="M228.316 161.746C232.383 161.746 235.68 161.19 235.68 160.504C235.68 159.818 232.383 159.262 228.316 159.262C224.249 159.262 220.952 159.818 220.952 160.504C220.952 161.19 224.249 161.746 228.316 161.746Z" fill="#6C63FF"/>
<path d="M223.378 154.732C223.378 154.732 227.578 154.603 228.844 153.704C230.11 152.804 235.304 151.731 235.618 153.173C235.931 154.614 241.932 160.348 237.189 160.386C232.445 160.425 226.17 159.649 224.906 158.887C223.642 158.124 223.378 154.732 223.378 154.732Z" fill="#A8A8A8"/>
<path opacity="0.2" d="M237.268 159.885C232.525 159.924 226.249 159.148 224.985 158.386C224.024 157.801 223.639 155.702 223.511 154.745H223.371C223.371 154.745 223.637 158.127 224.899 158.893C226.161 159.66 232.441 160.438 237.182 160.393C238.551 160.393 239.024 159.896 238.998 159.176C238.807 159.604 238.285 159.876 237.268 159.885Z" fill="black"/>
<path d="M182.344 73.7999C182.384 74.1751 182.533 74.5303 182.773 74.8216C183.084 75.1728 183.55 75.3334 183.968 75.5433C185.052 76.0965 185.879 77.0456 186.278 78.1926C186.993 80.2744 187.085 82.4761 187.995 84.4851C188.905 86.494 189.974 88.4237 190.759 90.4819C191.206 91.6492 191.562 92.8635 192.216 93.9258C192.533 94.4483 192.938 94.9126 193.412 95.2987C193.363 96.0526 193.343 96.7979 193.348 97.5518C193.493 97.549 193.636 97.5828 193.764 97.6502C193.893 97.7177 194.002 97.8164 194.082 97.9373C194.24 98.1815 194.35 98.4544 194.403 98.7405C194.698 99.9548 194.335 101.248 194.599 102.469C195.324 105.865 195.101 109.394 193.955 112.672C193.661 113.503 193.292 116.253 193.605 117.078C194.773 116.96 195.807 117.676 196.9 118.149C196.988 118.795 196.935 119.453 196.745 120.076C196.352 121.205 196.354 122.432 196.361 123.625L196.414 132.462C196.414 133.582 196.43 134.717 196.711 135.803C197.03 137.026 197.702 138.273 197.681 139.536C197.623 142.256 198.911 144.848 198.808 147.546C198.788 148.065 198.717 148.579 198.668 149.093C198.541 150.462 198.576 151.841 198.771 153.203C199.162 155.914 200.194 158.581 199.936 161.307C199.919 161.491 199.857 161.735 199.683 161.806C199.898 162.048 200.125 162.288 200.357 162.517C200.31 162.595 200.246 162.662 200.17 162.712C199.917 162.844 199.637 162.917 199.351 162.926C199.015 162.935 198.689 163.041 198.413 163.23C198.212 163.423 198.075 163.673 198.022 163.946C197.946 164.215 197.929 164.498 197.974 164.775C198.018 165.052 198.123 165.315 198.28 165.548C198.471 165.788 198.722 165.976 199.007 166.092C199.999 166.52 201.136 166.209 202.171 165.897L206.223 164.672C206.47 164.62 206.698 164.502 206.882 164.329C206.966 164.23 207.021 164.11 207.043 163.982C207.938 164.196 208.921 163.933 209.833 163.661L213.885 162.434C214.132 162.383 214.361 162.265 214.544 162.091C214.617 162.002 214.669 161.899 214.698 161.788C214.726 161.677 214.73 161.561 214.709 161.448C214.739 161.436 214.769 161.427 214.799 161.412C215.108 161.273 215.443 161.001 215.368 160.673C215.314 160.459 215.1 160.335 215.007 160.138C214.964 160.01 214.955 159.872 214.981 159.74C215.008 159.607 215.068 159.484 215.158 159.382C215.316 159.167 215.531 158.99 215.677 158.765C216.145 158.049 215.827 157.109 215.651 156.272C215.271 154.483 215.623 152.616 215.383 150.804C215.301 150.194 215.153 149.594 215.035 148.988C214.785 147.555 214.62 146.109 214.539 144.657C214.385 142.584 213.808 140.541 214.138 138.485C214.299 137.278 214.367 136.061 214.342 134.844C214.365 134.068 214.332 133.292 214.241 132.522C214.157 131.948 214.009 131.385 213.945 130.809C213.893 130.161 213.881 129.511 213.911 128.862C213.94 127.415 213.806 125.97 213.511 124.553C213.082 122.606 212.275 120.743 211.932 118.791C212.048 118.817 212.164 118.843 212.275 118.873C212.288 117.374 210.972 114.114 210.485 112.692C210.414 112.518 210.37 112.333 210.356 112.146C210.386 111.898 210.431 111.653 210.492 111.411C210.554 110.893 210.277 110.4 210.202 109.882C210.173 109.517 210.199 109.15 210.281 108.794C210.627 106.877 211.056 104.975 211.485 103.075C211.672 102.387 211.737 101.672 211.676 100.961C211.626 100.585 211.658 100.202 211.769 99.839C211.88 99.4758 212.068 99.1406 212.32 98.8561C212.509 98.6825 212.669 98.481 212.797 98.2586C212.868 98.0678 212.9 97.8645 212.891 97.661C212.883 96.7801 212.753 95.9044 212.505 95.0588C212.883 94.3756 213.022 93.5361 213.132 92.7436C213.372 90.9938 213.612 89.2354 213.604 87.4685C213.623 86.5259 213.492 85.5862 213.217 84.6843C213.016 84.1272 212.771 83.5872 212.483 83.0694C211.354 80.8998 210.275 78.6167 208.85 76.6292C208.421 76.0252 208.691 75.1921 208.721 74.4468C208.753 73.5472 208.397 72.6841 208.047 71.8574C207.869 71.3486 207.595 70.8783 207.24 70.4717C207.12 70.34 206.975 70.234 206.812 70.1604C206.65 70.0867 206.474 70.0469 206.296 70.0433C206.094 70.068 205.899 70.1356 205.726 70.2416C205.552 70.3477 205.403 70.4897 205.289 70.658C205.03 71.0108 204.843 71.4115 204.739 71.8368C204.636 72.2621 204.618 72.7037 204.686 73.136C204.829 74.0014 205.207 74.8111 205.779 75.4769C206.055 75.812 206.371 76.1119 206.721 76.37C207.076 77.4952 207.433 78.6196 207.794 79.7433C208.36 81.5316 208.927 83.3285 209.725 85.0205C209.959 85.511 210.217 86.01 210.245 86.5518C210.275 87.1365 210.03 87.6934 209.835 88.2438C209.423 89.391 209.19 90.5944 209.144 91.812C209.081 91.8397 209.021 91.8727 208.964 91.9105C208.287 92.3517 208.075 93.3133 207.371 93.7074C206.961 93.9366 206.463 93.9216 206.004 94.0265C205.963 94.0265 205.922 94.0479 205.879 94.0608C205.862 93.9751 205.845 93.8916 205.834 93.8038C205.828 93.749 205.828 93.6936 205.834 93.6389C206.929 93.0384 207.848 92.1646 208.502 91.103C208.64 90.9064 208.746 90.6897 208.818 90.4605C208.875 90.1859 208.886 89.9035 208.85 89.6252C208.814 88.6966 208.681 87.7742 208.453 86.8731C208.224 85.9677 207.723 85.1538 207.017 84.5408C206.665 84.258 206.259 84.046 205.909 83.7612C205.227 83.2107 204.759 82.3969 203.978 81.9878C203.481 81.7462 202.913 81.6894 202.378 81.8275C201.843 81.9657 201.374 82.2898 201.057 82.7417C200.953 82.9507 200.807 83.1359 200.628 83.2857C200.491 83.3502 200.358 83.4217 200.228 83.4999C199.992 83.6883 199.979 84.0503 200.057 84.3437C200.203 84.9466 200.285 85.5633 200.301 86.1835C199.609 86.9946 199.227 88.0249 199.225 89.0907C199.222 90.1564 199.599 91.1883 200.288 92.0026C200.288 92.4009 200.288 92.7993 200.273 93.1977C200.273 93.2726 200.273 93.3497 200.258 93.4247C200.011 93.3386 199.789 93.1912 199.615 92.9963C199.374 92.6965 199.331 92.2553 199.037 92.009C198.826 91.8699 198.585 91.7819 198.333 91.752C197.708 91.6103 197.122 91.3332 196.616 90.9403C196.219 90.634 195.807 90.2421 195.344 90.1521C194.544 88.6548 193.61 87.2326 192.553 85.9029C192.286 85.5881 192.042 85.2538 191.824 84.9027C191.362 84.0996 191.225 83.1551 190.933 82.2748C190.117 79.8075 188.083 77.8286 187.587 75.2756C187.407 74.3504 186.819 73.5451 186.415 72.6927C186.143 72.1165 185.842 71.5083 185.297 71.1785C184.595 70.7501 183.625 70.9471 183.041 71.5233C182.759 71.8245 182.549 72.1863 182.428 72.5809C182.307 72.9755 182.278 73.3925 182.344 73.7999ZM207.826 160.474C207.572 160.606 207.292 160.679 207.006 160.688C206.862 160.703 206.719 160.726 206.577 160.757C206.523 160.307 206.493 159.851 206.459 159.407C206.345 157.953 206.118 156.51 205.892 155.068C205.656 153.569 205.545 151.928 205.034 150.489C204.212 148.146 203.379 145.732 203.484 143.25C203.508 142.687 203.579 142.128 203.609 141.567C203.677 140.177 203.482 138.757 203.823 137.405C203.976 136.791 204.235 136.204 204.334 135.578C204.397 135.014 204.404 134.444 204.356 133.878C204.262 131.912 204.426 129.943 204.843 128.02C205.242 128.541 205.373 129.213 205.487 129.858L206.291 134.214C206.77 136.799 207.193 139.541 208.461 141.841C208.283 142.67 208.107 143.554 208.401 144.347C208.528 144.689 208.736 144.989 208.865 145.336C209.079 145.912 209.049 146.546 209.114 147.157C209.253 148.442 209.786 149.705 209.395 150.945C208.993 152.224 208.732 153.542 208.616 154.878C208.594 155.249 208.551 155.619 208.487 155.985C208.418 156.315 208.307 156.627 208.245 156.966C208.159 157.441 208.18 157.929 208.307 158.394C208.403 158.652 208.462 158.923 208.483 159.197C208.483 159.472 208.146 159.669 207.875 159.711C207.955 159.814 208.041 159.913 208.129 160.009C208.077 160.191 207.971 160.353 207.826 160.474Z" fill="url(#paint0_linear)"/>
<path d="M199.351 162.946C199.015 162.954 198.689 163.06 198.413 163.25C198.211 163.44 198.074 163.689 198.022 163.961C197.946 164.228 197.929 164.509 197.974 164.784C198.018 165.058 198.123 165.32 198.28 165.55C198.471 165.79 198.722 165.977 199.007 166.092C199.999 166.52 201.136 166.207 202.171 165.897L206.223 164.68C206.47 164.63 206.698 164.512 206.882 164.34C206.993 164.19 207.055 164.009 207.058 163.822C207.061 163.635 207.005 163.452 206.899 163.299C206.681 162.997 206.384 162.76 206.04 162.616C204.78 162.003 203.36 161.864 201.975 161.838C201.46 161.838 200.952 161.714 200.602 162.11C200.417 162.324 200.452 162.554 200.173 162.736C199.917 162.866 199.637 162.937 199.351 162.946Z" fill="#3F3D56"/>
<path d="M207.006 160.722C206.671 160.732 206.345 160.838 206.068 161.027C205.867 161.217 205.73 161.466 205.678 161.738C205.602 162.005 205.585 162.287 205.63 162.562C205.674 162.837 205.779 163.098 205.935 163.329C206.128 163.568 206.378 163.753 206.663 163.869C207.656 164.297 208.792 163.986 209.826 163.676L213.878 162.457C214.125 162.407 214.354 162.289 214.537 162.117C214.649 161.967 214.71 161.786 214.713 161.6C214.716 161.414 214.661 161.231 214.554 161.078C214.337 160.776 214.04 160.54 213.696 160.395C212.434 159.782 211.013 159.641 209.629 159.615C209.114 159.615 208.607 159.493 208.255 159.889C208.071 160.103 208.105 160.33 207.826 160.512C207.572 160.644 207.292 160.716 207.006 160.722Z" fill="#3F3D56"/>
<path d="M203.484 116.838C205.872 116.599 208.274 116.532 210.672 116.637C210.83 116.635 210.987 116.66 211.138 116.71C211.666 116.924 211.747 117.614 211.797 118.177C212.011 120.464 213.011 122.595 213.514 124.835C213.808 126.244 213.942 127.681 213.913 129.119C213.884 129.762 213.895 130.405 213.947 131.047C214.011 131.618 214.162 132.179 214.243 132.749C214.334 133.515 214.367 134.286 214.344 135.056C214.369 136.264 214.3 137.472 214.14 138.669C213.81 140.71 214.387 142.738 214.542 144.803C214.619 146.247 214.781 147.685 215.029 149.11C215.147 149.712 215.295 150.307 215.376 150.913C215.617 152.714 215.265 154.569 215.645 156.347C215.821 157.178 216.138 158.112 215.67 158.823C215.525 159.037 215.31 159.219 215.151 159.435C215.062 159.536 215.001 159.659 214.975 159.791C214.948 159.923 214.957 160.06 215.001 160.187C215.093 160.382 215.308 160.51 215.361 160.718C215.445 161.046 215.102 161.314 214.793 161.453C212.464 162.502 209.461 161.763 207.89 159.752C208.161 159.709 208.491 159.514 208.498 159.24C208.477 158.968 208.418 158.7 208.322 158.444C208.195 157.982 208.174 157.497 208.26 157.026C208.322 156.696 208.433 156.383 208.502 156.051C208.566 155.687 208.609 155.32 208.631 154.95C208.747 153.624 209.008 152.314 209.41 151.044C209.801 149.812 209.268 148.566 209.129 147.281C209.064 146.673 209.092 146.045 208.88 145.471C208.751 145.133 208.543 144.829 208.416 144.49C208.122 143.7 208.298 142.822 208.476 141.999C207.208 139.714 206.785 136.99 206.306 134.422L205.502 130.096C205.381 129.453 205.251 128.787 204.858 128.269C204.441 130.179 204.277 132.135 204.371 134.088C204.419 134.65 204.412 135.216 204.349 135.778C204.25 136.399 203.991 136.983 203.838 137.592C203.506 138.935 203.701 140.344 203.624 141.725C203.594 142.284 203.523 142.839 203.499 143.398C203.394 145.865 204.227 148.264 205.049 150.592C205.553 152.021 205.665 153.644 205.907 155.139C206.122 156.572 206.36 158.005 206.474 159.45C206.579 160.778 206.626 162.215 207.455 163.258C206.697 163.749 205.916 164.248 205.029 164.417C203.996 164.578 202.94 164.374 202.042 163.839C201.149 163.306 200.352 162.629 199.681 161.836C199.855 161.776 199.917 161.523 199.934 161.341C200.192 158.63 199.16 155.987 198.769 153.288C198.574 151.937 198.539 150.566 198.666 149.206C198.715 148.694 198.786 148.183 198.805 147.669C198.908 144.989 197.614 142.408 197.661 139.727C197.683 138.47 197.018 137.232 196.691 136.017C196.41 134.947 196.402 133.811 196.395 132.698L196.342 123.917C196.342 122.73 196.342 121.514 196.726 120.394C197.198 119.044 196.657 117.496 196.575 116.069C198.806 116.775 201.153 117.036 203.484 116.838Z" fill="#696791"/>
<path d="M195.833 91.6085C194.931 89.7682 193.829 88.0322 192.547 86.432C192.279 86.1194 192.035 85.7872 191.817 85.4382C191.356 84.6393 191.218 83.7012 190.927 82.8274C190.111 80.3773 188.076 78.409 187.581 75.8753C187.4 74.9544 186.812 74.1619 186.409 73.3052C186.136 72.7334 185.836 72.1294 185.291 71.806C184.589 71.3777 183.619 71.5747 183.035 72.1487C182.754 72.4474 182.546 72.8065 182.426 73.1982C182.306 73.59 182.278 74.004 182.344 74.4082C182.384 74.7813 182.533 75.1344 182.773 75.4234C183.084 75.7725 183.55 75.931 183.968 76.1409C185.05 76.6879 185.877 77.6311 186.278 78.7731C186.993 80.8399 187.085 83.0287 187.995 85.0248C188.905 87.0209 189.974 88.9356 190.759 90.9767C191.206 92.1354 191.562 93.3326 192.216 94.4035C192.871 95.4744 193.893 96.3718 195.127 96.5324C195.118 95.7561 195.237 94.9835 195.477 94.245C195.745 93.4012 196.221 92.4074 195.833 91.6085Z" fill="#A0616A"/>
<path d="M209.12 93.2105C209.065 91.6961 209.302 90.1853 209.818 88.76C210.015 88.2139 210.247 87.6591 210.228 87.0787C210.2 86.539 209.942 86.0443 209.708 85.556C208.901 83.8747 208.335 82.0928 207.777 80.3151L206.704 76.9633C206.354 76.7073 206.037 76.4087 205.761 76.0745C205.189 75.4145 204.811 74.6095 204.669 73.7486C204.6 73.3193 204.618 72.8807 204.722 72.4585C204.826 72.0363 205.013 71.639 205.272 71.2898C205.386 71.1221 205.535 70.9806 205.709 70.875C205.883 70.7694 206.077 70.702 206.279 70.6773C206.457 70.6812 206.632 70.7212 206.795 70.7949C206.957 70.8685 207.103 70.9742 207.223 71.1057C207.577 71.5087 207.851 71.9753 208.03 72.4806C208.38 73.3031 208.736 74.1598 208.704 75.0507C208.674 75.7918 208.397 76.6185 208.833 77.2203C210.258 79.195 211.337 81.4631 212.466 83.6198C212.754 84.1337 213 84.6702 213.2 85.224C213.476 86.1214 213.606 87.057 213.586 87.9954C213.586 89.7495 213.355 91.4971 213.114 93.2362C212.962 94.3264 212.762 95.5129 211.936 96.2347C211.078 95.1381 210.215 94.0672 209.12 93.2105Z" fill="#A0616A"/>
<path d="M203.66 94.0458C206.12 94.0458 208.114 92.0561 208.114 89.6017C208.114 87.1473 206.12 85.1576 203.66 85.1576C201.201 85.1576 199.207 87.1473 199.207 89.6017C199.207 92.0561 201.201 94.0458 203.66 94.0458Z" fill="#A0616A"/>
<path d="M205.817 94.2814C205.924 95.0845 206.356 95.8042 206.777 96.4981C207.03 96.9264 207.354 97.3826 207.85 97.4297C206.559 98.1055 205.204 98.6494 203.804 99.0532C203.328 99.2127 202.829 99.293 202.327 99.2909C201.902 99.2593 201.486 99.1527 201.098 98.9761C200.249 98.6072 199.495 98.0508 198.893 97.3489C198.291 96.6469 197.857 95.8178 197.623 94.9239C198.177 94.9387 198.732 94.8963 199.278 94.7975C199.589 94.7737 199.88 94.631 200.089 94.3992C200.213 94.1821 200.271 93.9335 200.256 93.6838C200.278 92.9428 200.28 92.1996 200.256 91.4586C201.351 91.389 202.448 91.5241 203.493 91.8569C203.922 91.9962 204.351 92.1632 204.78 92.2724C205.051 92.341 205.796 92.2724 205.995 92.4288C206.324 92.6494 205.742 93.7352 205.817 94.2814Z" fill="#A0616A"/>
<path d="M203.86 96.9821C203.909 96.3966 204.141 95.8412 204.524 95.3949C204.907 94.9486 205.421 94.6339 205.993 94.4956C206.452 94.3928 206.95 94.4056 207.36 94.1786C208.064 93.7866 208.277 92.8314 208.953 92.3924C209.629 91.9533 210.588 92.1975 211.176 92.7522C211.764 93.3069 212.063 94.0972 212.303 94.8704C212.662 95.9158 212.857 97.0103 212.88 98.1151C212.889 98.3172 212.857 98.519 212.786 98.7083C212.659 98.9294 212.498 99.1295 212.309 99.3016C212.058 99.5836 211.87 99.9166 211.759 100.278C211.647 100.639 211.616 101.02 211.666 101.394C211.727 102.099 211.662 102.81 211.475 103.493C211.045 105.382 210.616 107.269 210.271 109.175C210.189 109.526 210.163 109.887 210.191 110.246C210.258 110.762 210.543 111.25 210.481 111.767C210.42 112.007 210.375 112.251 210.346 112.497C210.36 112.683 210.403 112.866 210.474 113.039C210.962 114.45 212.277 117.684 212.264 119.179C209.979 118.594 206.609 118.464 204.248 118.453C203.599 118.446 202.95 118.475 202.304 118.539C200.752 118.706 199.164 119.158 197.659 118.74C196.262 118.352 195.026 117.241 193.581 117.38C193.268 116.562 193.637 113.831 193.931 113.004C195.078 109.749 195.3 106.241 194.575 102.868C194.311 101.655 194.674 100.368 194.38 99.1645C194.326 98.8797 194.217 98.6083 194.058 98.3657C193.978 98.2452 193.869 98.1468 193.74 98.0798C193.612 98.0128 193.469 97.9792 193.324 97.9823C193.297 96.0462 193.477 94.1127 193.86 92.2146C194.002 91.54 194.29 90.7432 194.983 90.6276C195.597 90.5226 196.112 91.0409 196.606 91.42C197.112 91.811 197.698 92.0859 198.322 92.2253C198.574 92.2552 198.815 92.3432 199.026 92.4823C199.32 92.7265 199.363 93.1655 199.604 93.4632C200.033 93.9965 200.992 93.9516 201.297 94.5662C201.364 94.7493 201.418 94.9368 201.458 95.1274C201.602 95.4926 201.848 95.8092 202.166 96.0397C202.644 96.4882 203.226 96.812 203.86 96.9821Z" fill="#F86D70"/>
<path d="M200.042 84.8771C199.964 84.5837 199.977 84.2346 200.213 84.0375C200.331 83.9454 200.486 83.9112 200.613 83.8233C200.791 83.6737 200.937 83.4893 201.042 83.2815C201.362 82.8342 201.831 82.5146 202.365 82.3794C202.899 82.2441 203.463 82.3019 203.958 82.5426C204.733 82.9474 205.201 83.7569 205.89 84.3031C206.24 84.5858 206.646 84.7957 206.998 85.0784C207.702 85.6861 208.204 86.4949 208.433 87.3958C208.661 88.2903 208.795 89.2063 208.83 90.1286C208.867 90.4054 208.856 90.6864 208.798 90.9596C208.727 91.1887 208.62 91.4055 208.483 91.6021C207.774 92.673 206.841 93.6454 205.671 94.1979C204.501 94.7505 203.079 94.8404 201.924 94.2622C201.808 94.2153 201.708 94.1357 201.636 94.033C201.571 93.8766 201.555 93.7039 201.591 93.5383C201.654 92.8837 201.524 92.2251 201.218 91.6428C201.003 91.2145 200.681 90.8461 200.509 90.4028C200.35 89.9065 200.281 89.3855 200.308 88.865C200.288 87.5178 200.381 86.175 200.042 84.8771Z" fill="#2D293D"/>
</g>
<defs>
<linearGradient id="paint0_linear" x1="215.915" y1="118.172" x2="182.316" y2="118.172" gradientUnits="userSpaceOnUse">
<stop stop-color="#808080" stop-opacity="0.25"/>
<stop offset="0.54" stop-color="#808080" stop-opacity="0.12"/>
<stop offset="1" stop-color="#808080" stop-opacity="0.1"/>
</linearGradient>
<clipPath id="clip0">
<rect width="239" height="168" fill="white"/>
</clipPath>
</defs>
</svg>
