<svg width="167" height="167" viewBox="0 0 167 167" fill="none" xmlns="http://www.w3.org/2000/svg">
<g clip-path="url(#clip0)">
<path d="M163.508 62.0206C154.526 26.6145 123.493 1.05632 87.0661 0.0311993C67.8084 -0.510748 47.5439 5.89229 32.7899 28.2989C6.41541 68.3531 34.4106 96.0318 53.9282 109.184C63.3575 115.551 71.8539 123.207 79.1711 131.93C92.3546 147.613 117.717 167.103 147.922 136.566C169.814 114.433 169.49 85.6045 163.508 62.0206Z" fill="#F2F2F2"/>
<path d="M81.3331 167C126.252 167 162.666 162.39 162.666 156.704C162.666 151.017 126.252 146.407 81.3331 146.407C36.4141 146.407 0 151.017 0 156.704C0 162.39 36.4141 167 81.3331 167Z" fill="#3F3D56"/>
<path opacity="0.1" d="M81.3331 162.008C121.21 162.008 153.537 158.774 153.537 154.785C153.537 150.797 121.21 147.563 81.3331 147.563C41.456 147.563 9.12921 150.797 9.12921 154.785C9.12921 158.774 41.456 162.008 81.3331 162.008Z" fill="black"/>
<path d="M45.6843 93.6959H41.4455V158.289H45.6843V93.6959Z" fill="#3F3D56"/>
<path d="M79.1711 91.996V93.6959L10.078 94.5458V92.846L10.1755 92.7821L22.3707 84.7718H73.6606L79.1711 91.996Z" fill="#3F3D56"/>
<path d="M66.8786 81.7971C66.8786 81.7971 51.6187 83.072 56.7054 86.8966C61.792 90.7212 66.8786 84.3469 66.8786 84.3469V81.7971Z" fill="#FFB9B9"/>
<path opacity="0.1" d="M79.1711 92.0471V93.6959L10.078 94.5458V92.846L10.1755 92.7821L79.1711 92.0471Z" fill="black"/>
<path d="M89.7684 60.9744L90.1395 59.5793C90.1395 59.5793 85.1056 68.6235 84.6818 69.4734C84.2579 70.3233 77.0518 77.5476 76.2041 78.8224C75.6261 79.6488 74.9089 80.3678 74.0846 80.9472H66.0308C66.0308 80.9472 64.3353 86.4716 66.8786 86.8966C69.4219 87.3215 77.4757 89.0213 79.1713 89.0213C80.8668 89.0213 91.4639 79.2474 91.4639 79.2474L89.7684 60.9744Z" fill="#575A89"/>
<path d="M91.4638 122.593L88.9205 158.289H91.4638L94.4311 121.743L91.4638 122.593Z" fill="#3F3D56"/>
<path d="M122.407 118.343L119.864 154.039H122.407L125.375 117.493L122.407 118.343Z" fill="#3F3D56"/>
<path d="M127.07 122.593L124.527 158.289H127.07L130.037 121.743L127.07 122.593Z" fill="#3F3D56"/>
<path d="M87.6489 119.193L85.1056 154.889H87.6489L90.6161 118.343L87.6489 119.193Z" fill="#3F3D56"/>
<path d="M136.82 73.723L129.613 125.567L86.8011 123.868L87.0893 119.083L87.6489 109.844L120.712 111.544L126.222 73.723H136.82Z" fill="#3F3D56"/>
<path opacity="0.1" d="M136.82 73.723L129.614 125.567L86.8012 123.868L87.0894 119.083C96.0249 119.427 126.222 117.493 126.222 117.493C126.222 110.711 132.165 84.1599 134.564 73.723L136.82 73.723Z" fill="black"/>
<path d="M61.792 136.616C61.792 136.616 60.5203 146.39 57.977 148.09C55.4337 149.79 68.5742 151.915 68.5742 151.915L69.4219 139.166L61.792 136.616Z" fill="#FFB9B9"/>
<path d="M104.604 140.866C104.604 140.866 106.724 143.416 107.148 145.115C107.571 146.815 113.93 147.665 113.93 147.665L118.592 142.566C118.592 142.566 112.658 137.466 110.963 137.466C109.267 137.466 104.604 140.866 104.604 140.866Z" fill="#FFB9B9"/>
<path d="M93.3713 53.1127C98.9899 53.1127 103.545 48.5465 103.545 42.9138C103.545 37.2811 98.9899 32.7149 93.3713 32.7149C87.7528 32.7149 83.1981 37.2811 83.1981 42.9138C83.1981 48.5465 87.7528 53.1127 93.3713 53.1127Z" fill="#FFB9B9"/>
<path d="M90.6161 49.9256C90.6161 49.9256 95.7027 59.6995 94.855 61.3994C94.0072 63.0992 105.876 53.3252 105.876 53.3252C105.876 53.3252 101.637 46.526 101.637 44.4012C101.637 42.2764 90.6161 49.9256 90.6161 49.9256Z" fill="#FFB9B9"/>
<path d="M95.2788 100.07C95.2788 100.07 62.6397 94.9707 61.3681 106.869C60.0964 118.768 55.4337 134.067 55.0098 135.341C54.5859 136.616 68.998 143.84 70.6935 141.291C72.3891 138.741 75.3563 118.343 74.5085 116.643C73.6607 114.944 73.2368 112.819 74.9324 113.244C76.6279 113.669 95.2789 117.493 99.0938 116.218C102.909 114.944 112.658 97.9454 112.658 97.9454L95.2788 100.07Z" fill="#2F2E41"/>
<path opacity="0.1" d="M95.2788 100.07C95.2788 100.07 62.6397 94.9707 61.3681 106.869C60.0964 118.768 55.4337 134.067 55.0098 135.341C54.5859 136.616 68.998 143.84 70.6935 141.291C72.3891 138.741 75.3563 118.343 74.5085 116.643C73.6607 114.944 73.2368 112.819 74.9324 113.244C76.6279 113.669 95.2789 117.493 99.0938 116.218C102.909 114.944 112.658 97.9454 112.658 97.9454L95.2788 100.07Z" fill="black"/>
<path d="M94.4311 97.5205L95.7027 108.144C95.7027 108.144 75.3563 115.793 82.9862 128.117C90.6161 140.441 99.0938 147.24 99.0938 147.24C99.0938 147.24 112.658 139.591 112.658 137.466C112.658 135.341 96.1266 123.443 98.2461 123.443C100.365 123.443 130.885 121.743 124.527 104.745C118.169 87.7465 94.4311 97.5205 94.4311 97.5205Z" fill="#2F2E41"/>
<path d="M61.3681 148.515C61.3681 148.515 57.977 144.69 57.977 145.54C57.977 146.39 48.2277 151.49 46.5321 151.915C44.8366 152.34 42.2933 153.189 45.6843 154.464C49.0754 155.739 70.6936 156.164 70.6936 155.314C70.6936 154.464 71.5413 146.39 69.8458 147.24C68.1502 148.09 61.792 150.215 61.3681 148.515Z" fill="#2F2E41"/>
<path d="M111.386 145.54C111.386 145.54 106.724 144.265 106.3 145.54C105.876 146.815 105.452 151.915 101.637 153.614C97.8222 155.314 96.5505 157.864 101.637 158.289C106.724 158.714 120.712 148.94 120.712 147.24C120.712 145.54 119.016 140.441 118.169 140.866C117.321 141.291 115.201 145.115 111.386 145.54Z" fill="#2F2E41"/>
<path d="M53.3143 151.065H33.8156V158.714H53.3143V151.065Z" fill="#3F3D56"/>
<path d="M105.876 50.7755C105.876 50.7755 104.289 46.5219 101.48 49.0736C98.6699 51.6254 93.1594 57.9997 93.1594 57.9997C93.1594 57.9997 89.7684 59.2746 88.4967 61.3993C87.225 63.5241 87.225 77.5476 89.7684 82.2221C92.3117 86.8966 92.3117 94.9707 93.1594 97.0955C94.0072 99.2203 93.1594 101.345 96.1266 101.345C99.0938 101.345 94.4311 97.9454 104.18 101.345C113.93 104.745 124.951 108.994 125.799 106.02C126.646 103.045 124.527 101.345 125.799 100.07C127.07 98.7953 125.799 98.3704 124.951 95.3957C124.103 92.421 123.255 91.9961 122.831 88.1715C122.407 84.3469 122.831 80.5223 121.984 78.8225C121.136 77.1226 121.136 74.5729 121.136 70.3234C121.136 66.0738 118.593 57.5748 113.93 55.025C109.267 52.4753 105.876 50.7755 105.876 50.7755Z" fill="#575A89"/>
<path d="M83.4381 31.573C85.801 29.2606 88.2844 26.8738 91.4299 25.8667C95.6282 24.5224 100.309 25.933 103.923 28.4613C104.703 29.0067 105.466 29.6243 105.935 30.4536C106.365 31.2144 106.515 32.0974 106.651 32.961C107.131 36.0022 107.524 39.084 107.29 42.1541C107.055 45.2241 106.152 48.3098 104.266 50.74C102.594 48.9491 101.311 46.8299 100.498 44.5164C100.283 43.9042 100.091 43.2591 99.657 42.7773C99.2233 42.2955 98.46 42.0362 97.9157 42.3875C97.1594 42.8755 97.2545 44.1787 96.456 44.5937C96.1826 44.718 95.8764 44.7502 95.5833 44.6854C93.5016 44.3258 92.7766 41.7689 91.4218 40.1441C89.4249 37.7493 86.629 37.9009 83.9001 37.2126C80.7333 36.4139 81.5175 33.4526 83.4381 31.573Z" fill="#2F2E41"/>
<path d="M66.2227 89.1599C71.0349 89.1599 74.936 88.3097 74.936 87.2609C74.936 86.2121 71.0349 85.3619 66.2227 85.3619C61.4104 85.3619 57.5093 86.2121 57.5093 87.2609C57.5093 88.3097 61.4104 89.1599 66.2227 89.1599Z" fill="#6C63FF"/>
<path d="M65.5075 87.4738L65.337 78.4319C65.2988 76.4091 65.371 74.1165 66.871 72.7632C67.8188 71.908 69.2439 71.5404 69.8386 70.4096C70.1626 69.7935 70.1687 69.0652 70.1673 68.3688L70.1433 56.061" stroke="#6C63FF" stroke-width="6" stroke-miterlimit="10"/>
<path d="M70.2454 52.1928H69.5242C68.6075 52.1928 67.8643 52.9378 67.8643 53.8569V58.3779C67.8643 59.297 68.6075 60.042 69.5242 60.042H70.2454C71.1622 60.042 71.9053 59.297 71.9053 58.3779V53.8569C71.9053 52.9378 71.1622 52.1928 70.2454 52.1928Z" fill="#6C63FF"/>
<path d="M81.5239 85.4804C81.5239 85.4804 67.4747 81.7443 66.3289 84.9579C65.183 88.1714 78.3235 91.1461 78.3235 91.1461H83.834L81.5239 85.4804Z" fill="#FFB9B9"/>
<path d="M110.963 57.5748C110.963 57.5748 104.604 62.2493 102.909 69.0485C101.213 75.8478 99.9416 83.072 99.9416 83.072L80.4429 85.6217C80.4429 85.6217 78.7473 92.421 81.2906 92.846C83.834 93.2709 102.909 94.5458 105.876 92.846C108.843 91.1461 119.016 69.8984 118.592 67.7737C118.169 65.6489 117.321 57.9997 110.963 57.5748Z" fill="#575A89"/>
<path d="M34.9724 87.7906L41.86 88.3447L51.6812 87.7054L51.5103 87.6892L42.4127 86.8103C40.3294 86.0431 41.775 81.525 41.775 81.525L34.804 81.8805L34.2496 81.9086C31.7837 87.7054 34.9724 87.7906 34.9724 87.7906Z" fill="#D1D9EC"/>
<path opacity="0.1" d="M34.9724 87.7906L41.86 88.3447L51.6812 87.7054L51.5103 87.6892L41.5836 88.0464L34.9299 87.3218C33.0422 86.8239 34.1229 83.5377 34.804 81.8805L34.2496 81.9086C31.7837 87.7054 34.9724 87.7906 34.9724 87.7906Z" fill="black"/>
<path d="M23.5566 46.5306L25.6195 76.5168V80.1358C25.6824 81.0454 26.1138 82.629 27.0236 82.623L28.7137 81.1698H59.1401C59.6639 81.1664 57.9028 80.3999 57.8509 79.8773L59.9845 78.7605L57.7516 56.7729C57.7163 56.4256 57.5828 56.0956 57.3668 55.8218C57.1508 55.548 56.8612 55.3418 56.5322 55.2274L26.3043 44.7335C25.2754 44.3763 24.2286 44.5033 23.5739 45.0489C23.1249 45.4232 23.5048 45.7838 23.5566 46.5306Z" fill="#4C4C56"/>
<path d="M25.0177 77.0402L25.2941 81.016C25.3243 81.4542 25.52 81.8644 25.8414 82.1629C26.1627 82.4615 26.5855 82.626 27.0236 82.6229L27.6631 82.6187L59.3783 82.426C59.5021 82.4252 59.6243 82.3985 59.7372 82.3476C59.85 82.2967 59.9511 82.2228 60.0338 82.1305C60.1166 82.0382 60.1792 81.9297 60.2177 81.8117C60.2562 81.6938 60.2698 81.5692 60.2575 81.4457L59.9846 78.7604L25.0177 77.0402Z" fill="#DFE6F5"/>
<path d="M46.2817 81.1841C46.5165 81.1841 46.7068 80.8024 46.7068 80.3316C46.7068 79.8608 46.5165 79.4791 46.2817 79.4791C46.0469 79.4791 45.8565 79.8608 45.8565 80.3316C45.8565 80.8024 46.0469 81.1841 46.2817 81.1841Z" fill="white"/>
<path d="M30.755 88.7879C30.755 88.7879 22.0818 85.5059 19.7434 87.8928C19.7434 87.8928 19.3607 88.6174 20.9338 88.7879L27.2902 89.2994C27.2902 89.2994 29.9047 89.5551 30.755 88.7879Z" fill="#D1D9EC"/>
<path d="M30.5235 87.9342C28.8197 87.2366 23.6908 85.4307 20.4094 87.4287C20.4094 87.4287 24.0405 87.0254 26.0357 88.1817C28.031 89.3379 30.755 88.7879 30.755 88.7879L30.7958 88.7153C30.834 88.6471 30.8573 88.5715 30.8642 88.4935C30.871 88.4156 30.8613 88.337 30.8355 88.2631C30.8098 88.1893 30.7686 88.1217 30.7149 88.065C30.6611 88.0083 30.5958 87.9637 30.5235 87.9342Z" fill="#DFE6F5"/>
<path d="M22.9123 46.741L25.2941 81.0161C25.3243 81.4543 25.52 81.8644 25.8414 82.163C26.1627 82.4615 26.5855 82.626 27.0236 82.623L27.6631 82.6187C27.2246 82.1982 26.8509 81.7147 26.5543 81.184C26.5543 81.184 24.2159 46.7444 24.0458 45.892C23.9713 45.5718 23.8077 45.2794 23.5739 45.0489C23.3335 45.2548 23.1474 45.5169 23.0321 45.812C22.9167 46.1071 22.8756 46.4262 22.9123 46.741Z" fill="#DFE6F5"/>
<path opacity="0.1" d="M22.9123 46.741L25.2941 81.0161C25.3243 81.4543 25.52 81.8644 25.8414 82.163C26.1627 82.4615 26.5855 82.626 27.0236 82.623L27.6631 82.6187C27.2246 82.1982 26.8509 81.7147 26.5543 81.184C26.5543 81.184 24.2159 46.7444 24.0458 45.892C23.9713 45.5718 23.8077 45.2794 23.5739 45.0489C23.3335 45.2548 23.1474 45.5169 23.0321 45.812C22.9167 46.1071 22.8756 46.4262 22.9123 46.741Z" fill="black"/>
<path d="M36.303 63.262C35.1007 64.0342 33.8249 64.6849 32.4945 65.2046C31.6346 65.5403 30.6887 65.823 29.801 65.5701C28.9134 65.3173 28.1852 64.3195 28.5394 63.4653C28.658 63.2173 28.8395 63.0049 29.0657 62.8494C29.292 62.6939 29.5551 62.6008 29.8286 62.5794C30.3781 62.5444 30.9256 62.6743 31.401 62.9528C32.2751 63.4247 32.9733 64.1674 33.3915 65.07C33.6044 65.5331 33.7571 66.056 34.1505 66.3792C34.4709 66.6017 34.8392 66.7453 35.2254 66.7983C36.1278 66.9946 37.0541 67.1919 37.9675 67.0558C38.8809 66.9197 39.7928 66.3764 40.1006 65.5037" stroke="#F2F2F2" stroke-width="2" stroke-miterlimit="10"/>
<path d="M43.5807 59.6244C43.4067 62.371 43.1239 65.1077 42.7321 67.8345L44.7044 67.6412C45.4314 67.5699 46.2632 67.436 46.6447 66.8115C47.0003 66.2292 46.7823 65.4343 46.3217 64.9314C45.8611 64.4284 45.2124 64.1499 44.5844 63.8857L43.5557 63.4529" stroke="#F2F2F2" stroke-width="2" stroke-miterlimit="10"/>
<path d="M53.7649 63.5833C53.0656 63.4214 52.3515 63.2624 51.6365 63.3257C50.9215 63.389 50.1929 63.7108 49.8115 64.3203C49.1069 65.4463 49.8953 66.9814 51.0029 67.7118C51.9253 68.3157 53.0263 68.5843 54.1223 68.4727" stroke="#F2F2F2" stroke-width="2" stroke-miterlimit="10"/>
</g>
<defs>
<clipPath id="clip0">
<rect width="167" height="167" fill="white"/>
</clipPath>
</defs>
</svg>
