<svg width="292" height="436" viewBox="0 0 292 436" fill="none" xmlns="http://www.w3.org/2000/svg">
<g filter="url(#filter0_d)">
<rect x="32" y="20" width="221" height="283.91" rx="14" fill="#FCCC63"/>
</g>
<rect x="42.3714" y="32.1" width="200.514" height="261.878" rx="4" fill="#FEE9BC"/>
<rect x="43.3714" y="33.1" width="198.514" height="259.878" rx="3" stroke="black" stroke-opacity="0.1" stroke-width="2"/>
<line x1="124.892" y1="215.934" x2="141.505" y2="262.45" stroke="#603131" stroke-opacity="0.55" stroke-width="2" stroke-linecap="round"/>
<line x1="109.457" y1="225.035" x2="139.371" y2="264.921" stroke="#603131" stroke-opacity="0.55" stroke-width="2" stroke-linecap="round"/>
<line x1="96.4892" y1="238.441" x2="136.85" y2="267.695" stroke="#603131" stroke-opacity="0.55" stroke-width="2" stroke-linecap="round"/>
<line x1="89.4405" y1="254.447" x2="135.216" y2="269.477" stroke="#603131" stroke-opacity="0.55" stroke-width="2" stroke-linecap="round"/>
<line x1="84.857" y1="272.235" x2="134.714" y2="272.235" stroke="#603131" stroke-opacity="0.55" stroke-width="2" stroke-linecap="round"/>
<line x1="152.271" y1="272.235" x2="200.4" y2="272.235" stroke="#603131" stroke-opacity="0.55" stroke-width="2" stroke-linecap="round"/>
<line x1="151.917" y1="269.384" x2="198.413" y2="254.439" stroke="#603131" stroke-opacity="0.55" stroke-width="2" stroke-linecap="round"/>
<line x1="151.477" y1="266.65" x2="189.376" y2="238.458" stroke="#603131" stroke-opacity="0.55" stroke-width="2" stroke-linecap="round"/>
<line x1="149.329" y1="264.535" x2="178.344" y2="225.049" stroke="#603131" stroke-opacity="0.55" stroke-width="2" stroke-linecap="round"/>
<line x1="143.357" y1="262.728" x2="143.357" y2="214.599" stroke="#603131" stroke-opacity="0.55" stroke-width="2" stroke-linecap="round"/>
<line x1="146.301" y1="262.471" x2="161.15" y2="215.976" stroke="#603131" stroke-opacity="0.55" stroke-width="2" stroke-linecap="round"/>
<line x1="157.224" y1="114.748" x2="175.353" y2="110.847" stroke="#603131" stroke-opacity="0.55" stroke-width="2" stroke-linecap="round" stroke-linejoin="round"/>
<line x1="124.903" y1="101.56" x2="117.881" y2="84.3969" stroke="#603131" stroke-opacity="0.55" stroke-width="2" stroke-linecap="round"/>
<path d="M31.5825 353.019C49.025 353.019 63.165 349.433 63.165 345.009C63.165 340.586 49.025 337 31.5825 337C14.14 337 0 340.586 0 345.009C0 349.433 14.14 353.019 31.5825 353.019Z" fill="#F2F2F2"/>
<path d="M18.8929 259.518C18.8929 259.518 11.8835 281.619 23.6397 293.854L27.0337 291.258C27.0337 291.258 20.0855 267.136 23.9744 261.473C17.1111 259.188 18.8929 259.518 18.8929 259.518Z" fill="#FF5252"/>
<path d="M23.7387 261.468C23.7387 261.468 25.1529 260.281 23.7387 258.142C22.3246 256.003 19.699 257.671 19.699 257.671C19.699 257.671 18.7562 260.757 19.699 261.468C20.6417 262.18 23.7387 261.468 23.7387 261.468Z" fill="#F6B9AD"/>
<path d="M26.2323 286.632C26.2323 288.469 27.7212 289.958 29.5579 289.958C31.3946 289.958 32.8835 288.469 32.8835 286.632V283.433C32.8835 281.596 31.3946 280.106 29.5579 280.106C27.7212 280.106 26.2323 281.596 26.2323 283.433V286.632Z" fill="#F6B9AD"/>
<path opacity="0.2" d="M26.5576 292.681C26.5576 292.681 19.6943 268.856 23.4323 262.999C23.7623 262.938 23.9744 262.891 23.9744 262.891L24.0357 262.835L24.2101 262.891C20.3212 268.545 27.2694 292.676 27.2694 292.676L23.8754 295.272L23.5785 294.952L26.5576 292.681Z" fill="white"/>
<path d="M29.4377 283.55C33.5042 283.55 36.8007 280.256 36.8007 276.191C36.8007 272.127 33.5042 268.832 29.4377 268.832C25.3713 268.832 22.0747 272.127 22.0747 276.191C22.0747 280.256 25.3713 283.55 29.4377 283.55Z" fill="#F6B9AD"/>
<path opacity="0.2" d="M32.0539 286.636V283.433C32.0536 283.198 32.0283 282.964 31.9784 282.735C33.4163 281.997 34.5712 280.807 35.265 279.347C35.9587 277.888 36.1527 276.241 35.8171 274.661C35.4814 273.081 34.6348 271.655 33.4077 270.603C32.1807 269.551 30.6415 268.932 29.0276 268.842H29.4424C31.094 268.841 32.6979 269.396 33.9961 270.416C35.2944 271.436 36.2117 272.863 36.6007 274.468C36.9896 276.072 36.8275 277.761 36.1405 279.262C35.4535 280.763 34.2815 281.99 32.8128 282.745C32.8627 282.974 32.8879 283.208 32.8882 283.442V286.646C32.8925 287.119 32.7949 287.587 32.6021 288.019C32.4093 288.451 32.1258 288.837 31.7708 289.149C31.4158 289.462 30.9976 289.695 30.5446 289.832C30.0916 289.969 29.6144 290.007 29.1454 289.944C29.9495 289.839 30.688 289.446 31.2232 288.838C31.7585 288.229 32.0537 287.447 32.0539 286.636Z" fill="white"/>
<path d="M21.9569 313.869C21.9569 313.869 36.1596 315.471 36.6828 313.869C38.3798 308.687 33.8546 303.085 36.1172 300.348C38.4741 297.521 36.6828 293.69 36.6828 293.69C36.6828 291.739 35.9071 289.867 34.5263 288.487C33.1455 287.107 31.2727 286.331 29.3199 286.331C27.3671 286.331 25.4943 287.107 24.1135 288.487C22.7327 289.867 21.9569 291.739 21.9569 293.69V313.869Z" fill="#FF5252"/>
<path opacity="0.2" d="M36.136 299.348C38.4929 296.521 36.7017 292.69 36.7017 292.69C36.7017 290.739 35.926 288.867 34.5451 287.487C33.1643 286.107 31.2915 285.331 29.3387 285.331C29.1785 285.331 29.0229 285.331 28.8674 285.355C30.7336 285.473 32.4847 286.298 33.7648 287.66C35.0449 289.023 35.7579 290.821 35.7589 292.69C35.7589 292.69 37.5502 296.521 35.1933 299.348C32.9118 302.085 37.4559 307.682 35.7589 312.869C35.5987 313.364 34.1327 313.552 32.1859 313.58C34.5852 313.604 36.5179 313.444 36.7017 312.869C38.4175 307.677 33.8546 302.085 36.136 299.348Z" fill="white"/>
<path d="M33.6707 312.398C38.8559 319.743 41.1515 330.843 39.6667 341.519L39.6242 341.839H35.198C35.198 341.839 36.5697 337.801 35.198 330.683C34.3572 326.415 31.9662 322.609 28.4855 319.997L24.2148 341.839H20.095L24.2148 312.398H33.6707Z" fill="#F6B9AD"/>
<path d="M58.635 270.057C58.635 270.057 60.3461 269.341 59.6108 266.877C58.8754 264.413 55.8869 265.242 55.8869 265.242C55.8869 265.242 54.0721 267.913 54.7744 268.875C55.4768 269.836 58.635 270.057 58.635 270.057Z" fill="#F6B9AD"/>
<path d="M33.4397 293.878C33.4397 293.878 55.505 286.731 58.6303 270.057L54.5434 268.804C54.5434 268.804 38.3044 286.924 31.4458 287.051C24.5872 287.178 33.4397 293.878 33.4397 293.878Z" fill="#FF5252"/>
<path opacity="0.2" d="M57.8808 270.076L58.5643 270.283C55.4391 286.957 33.3737 294.104 33.3737 294.104L32.9825 293.798C35.5892 292.893 54.9677 285.628 57.8808 270.076Z" fill="white"/>
<g opacity="0.2">
<path opacity="0.2" d="M27.5381 319.997L23.2673 341.839H24.2101L28.3583 320.638C28.096 320.411 27.8222 320.197 27.5381 319.997Z" fill="white"/>
<path opacity="0.2" d="M33.6707 312.398H32.7279C37.9131 319.743 40.2088 330.843 38.7239 341.519L38.6815 341.839H39.6242L39.6667 341.519C41.1515 330.843 38.8653 319.743 33.6707 312.398Z" fill="white"/>
</g>
<path opacity="0.2" d="M58.1778 269.911C58.1778 269.911 59.8889 269.195 59.1535 266.731C59.0642 266.383 58.8938 266.061 58.6562 265.792C58.4186 265.523 58.1206 265.313 57.7865 265.181C58.219 265.26 58.6199 265.46 58.9422 265.759C59.2645 266.058 59.4948 266.443 59.6061 266.868C60.3414 269.327 58.6303 270.048 58.6303 270.048C57.6934 269.976 56.7671 269.802 55.868 269.529C56.626 269.721 57.3986 269.848 58.1778 269.911Z" fill="white"/>
<path d="M21.9569 312.068L13.0007 330.913C18.2239 331.174 23.422 331.804 28.5562 332.798C38.4552 334.683 43.169 329.971 43.169 329.971L36.7818 312.068H21.9569Z" fill="#263238"/>
<path d="M24.3327 341.75C24.3327 341.75 29.0465 342.692 28.1037 344.576H19.6189L20.0902 341.75H24.3327Z" fill="#FF5252"/>
<path d="M39.4168 341.75C39.4168 341.75 44.1306 342.692 43.1879 344.576H34.703L35.1744 341.75H39.4168Z" fill="#FF5252"/>
<path d="M36.1172 270.137C36.1172 270.137 24.804 286.156 29.9892 292.752L9.71986 292.281C9.71986 292.281 15.3764 256.003 36.1172 270.137Z" fill="#FCCC63"/>
<g clip-path="url(#clip0)">
<path d="M249.768 370.427C267.21 370.427 281.35 366.841 281.35 362.417C281.35 357.994 267.21 354.408 249.768 354.408C232.325 354.408 218.185 357.994 218.185 362.417C218.185 366.841 232.325 370.427 249.768 370.427Z" fill="#F2F2F2"/>
<g opacity="0.2">
<path opacity="0.2" d="M254.472 353.301L262.146 352.062L261.09 347.351V347.285H261.062L255.622 322.314V304.105C255.622 303.874 255.609 303.643 255.585 303.413C263.711 292.642 258.884 275.743 258.413 274.268C258.328 274.311 258.201 274.367 258.022 274.438C257.963 273.778 257.838 273.127 257.649 272.492C257.649 272.492 255.292 270.994 254.005 272.921C252.884 274.603 253.718 275.63 253.949 275.87L253.789 275.922C254.15 276.489 254.402 277.119 254.533 277.778C254.459 277.616 254.374 277.458 254.279 277.307C253.982 277.255 253.807 277.208 253.807 277.208L253.751 277.156L253.591 277.208C254.406 278.4 254.694 280.506 254.656 283.003C254.374 282.613 254.059 282.249 253.713 281.915C252.223 280.492 250.258 279.673 248.198 279.616H247.807C247.593 279.616 247.379 279.63 247.166 279.658H247.005L246.737 279.696L246.43 279.752L246.209 279.799L245.827 279.903L245.686 279.945C245.525 279.997 245.37 280.049 245.214 280.11C244.697 280.362 244.155 280.557 243.597 280.695C243.522 280.695 243.446 280.695 243.366 280.718C242.736 280.762 242.111 280.584 241.599 280.214L241.429 280.082C241.365 280.027 241.303 279.969 241.245 279.908C241.181 280.071 241.154 280.246 241.165 280.421C241.2 280.837 241.399 281.221 241.716 281.491C241.806 281.568 241.904 281.634 242.009 281.689C242.164 281.77 242.334 281.818 242.508 281.83H242.688H242.645C242.537 281.882 242.428 281.929 242.315 281.971H242.292C242.169 282.014 242.051 282.051 241.924 282.084C241.306 282.24 240.661 282.25 240.038 282.113L239.836 282.066C239.737 282.037 239.633 282.009 239.539 281.976C239.57 282.047 239.604 282.116 239.642 282.183L239.68 282.245L239.765 282.376L239.817 282.442L239.911 282.56L239.968 282.621L240.086 282.739L240.133 282.782L240.307 282.928L240.368 282.97L240.496 283.06L240.58 283.111L240.694 283.177L240.788 283.225L240.906 283.276L241.005 283.319L241.137 283.366L241.302 283.413L241.424 283.446H241.542H241.651H241.773H242.244C242.488 283.425 242.726 283.366 242.952 283.272L242.518 283.451L242.301 283.526L242.079 283.606L241.858 283.672L241.632 283.738L241.41 283.795L241.174 283.851L240.958 283.894L240.708 283.936L240.5 283.969L240.232 284.002H240.038H239.732H239.572H239.1C239.361 284.078 239.603 284.206 239.812 284.379C239.947 284.476 240.095 284.556 240.251 284.614C240.32 284.635 240.391 284.65 240.463 284.661H240.524H240.675H241.311H241.519C241.948 284.705 242.364 284.838 242.739 285.053C242.938 285.18 243.115 285.339 243.263 285.524C243.197 285.632 243.131 285.736 243.074 285.849C243.018 285.962 242.975 286.037 242.928 286.136C242.834 286.331 242.75 286.53 242.678 286.734C242.41 287.466 242.272 288.24 242.273 289.019C242.273 289.166 242.273 289.307 242.273 289.448C242.273 289.486 242.273 289.528 242.273 289.566C242.273 289.679 242.285 289.792 242.31 289.905V289.995C242.329 290.133 242.354 290.27 242.386 290.405V290.485C242.411 290.598 242.439 290.709 242.471 290.819L242.499 290.918C242.578 291.185 242.674 291.446 242.787 291.7L242.82 291.776C242.873 291.892 242.928 292.005 242.985 292.115V292.148C243.054 292.273 243.126 292.398 243.201 292.52V292.548C243.27 292.661 243.344 292.771 243.423 292.878L243.451 292.916C243.62 293.149 243.805 293.371 244.003 293.58C244.516 294.121 245.117 294.571 245.78 294.913C245.757 295.014 245.74 295.117 245.728 295.22C245.722 295.326 245.722 295.433 245.728 295.54V298.028C245.587 298.103 245.448 298.183 245.313 298.268C239.407 295.587 230.611 276.596 230.611 276.596H230.399C231.257 275.955 230.399 273.166 230.399 273.166C229.895 272.866 229.332 272.679 228.749 272.619H228.277H228.193H228.131H228.046H227.99L227.896 272.648H227.848L227.707 272.699L227.575 272.761L227.528 272.784L227.438 272.836L227.377 273.123L227.292 273.18L227.24 273.222L227.16 273.288L227.108 273.335L227.028 273.411L226.981 273.463L226.901 273.557L226.863 273.604L226.745 273.764C225.459 275.691 226.745 276.765 226.745 276.765C226.663 277.508 226.623 278.256 226.628 279.003C226.533 292.883 241.396 303.639 242.155 304.176C241.82 305.043 239.058 312.722 242.188 322.31C242.198 322.333 242.21 322.355 242.226 322.376C238.662 325.658 236.017 329.814 234.552 334.431C233.087 339.048 232.853 343.967 233.873 348.703L233.934 348.99H234.071C234.057 349.054 234.039 349.117 234.019 349.179C233.982 349.292 233.937 349.402 233.882 349.508C233.788 349.69 233.672 349.859 233.538 350.012C233.392 350.182 233.222 350.352 233.043 350.526L232.855 350.705C232.105 351.421 231.346 352.118 231.912 352.401H240.024V348.863H240.166C240.166 348.863 240.109 348.755 240.024 348.543V348.505H239.996C239.572 347.412 238.582 344.029 240.166 338.818C242.094 332.387 249.593 329.174 249.593 329.174L249.73 329.645H249.702L255.585 348.962C255.585 349.037 255.585 349.113 255.561 349.193C255.534 349.375 255.492 349.555 255.434 349.73C255.389 349.865 255.335 349.997 255.273 350.126C254.91 350.875 254.284 351.756 254.01 352.415C253.971 352.506 253.938 352.598 253.911 352.693C253.879 352.8 253.868 352.912 253.878 353.023C253.886 353.094 253.914 353.161 253.958 353.216C254.002 353.272 254.061 353.315 254.128 353.339H254.236L254.463 353.301H254.472ZM252.2 298.306C252.052 298.224 251.895 298.147 251.729 298.075V295.738C251.727 295.559 251.71 295.381 251.677 295.205C252.185 294.963 252.66 294.658 253.091 294.296C252.808 295.738 252.492 297.118 252.205 298.306H252.2Z" fill="url(#paint0_linear)"/>
</g>
<path d="M226.613 278.819C226.613 278.819 225.199 277.632 226.613 275.493C228.028 273.354 230.653 275.022 230.653 275.022C230.653 275.022 231.596 278.108 230.653 278.819C229.71 279.531 226.613 278.819 226.613 278.819Z" fill="#CA7070"/>
<path d="M241.302 358.281H234.754C234.778 358.589 234.736 358.899 234.629 359.189C234.523 359.48 234.355 359.743 234.137 359.963C233.255 360.98 231.483 362.21 232.317 362.629H241.302V358.281Z" fill="#00695C"/>
<path opacity="0.2" d="M234.613 359.963C234.831 359.743 234.999 359.48 235.105 359.189C235.212 358.899 235.255 358.589 235.23 358.281H234.759C234.783 358.589 234.741 358.899 234.634 359.189C234.527 359.48 234.359 359.743 234.141 359.963C233.26 360.98 231.488 362.21 232.322 362.629H232.793C231.959 362.21 233.731 360.985 234.613 359.963Z" fill="white"/>
<path d="M264.616 356.933L258.488 357.928C258.658 358.657 258.559 359.423 258.21 360.085C257.541 361.499 256.037 363.261 256.942 363.642L265.813 362.229L264.616 356.933Z" fill="#00695C"/>
<path d="M261.628 275.922C261.628 275.922 268.637 298.023 256.881 310.258L253.487 307.662C253.487 307.662 260.435 283.54 256.546 277.877C263.409 275.592 261.628 275.922 261.628 275.922Z" fill="#00695C"/>
<path d="M256.782 277.872C256.782 277.872 255.368 276.685 256.782 274.546C258.196 272.407 260.822 274.075 260.822 274.075C260.822 274.075 261.764 277.161 260.822 277.872C259.879 278.584 256.782 277.872 256.782 277.872Z" fill="#CA7070"/>
<path opacity="0.2" d="M258.681 360.09C259.031 359.426 259.13 358.658 258.96 357.928L264.616 356.985V356.91L258.488 357.928C258.658 358.657 258.559 359.423 258.21 360.085C257.541 361.499 256.037 363.261 256.942 363.642L257.314 363.581C256.64 363.11 258.04 361.419 258.681 360.09Z" fill="white"/>
<path d="M254.288 299.837C254.288 298 252.799 296.51 250.963 296.51C249.126 296.51 247.637 298 247.637 299.837V303.036C247.637 304.873 249.126 306.362 250.963 306.362C252.799 306.362 254.288 304.873 254.288 303.036V299.837Z" fill="#CA7070"/>
<path opacity="0.2" d="M253.963 309.085C253.963 309.085 260.826 285.26 257.088 279.404C256.758 279.342 256.546 279.295 256.546 279.295L256.485 279.239L256.31 279.295C260.199 284.949 253.251 309.08 253.251 309.08L256.645 311.676L256.942 311.356L253.963 309.085Z" fill="white"/>
<path d="M251.083 299.955C255.149 299.955 258.446 296.66 258.446 292.595C258.446 288.531 255.149 285.236 251.083 285.236C247.016 285.236 243.72 288.531 243.72 292.595C243.72 296.66 247.016 299.955 251.083 299.955Z" fill="#CA7070"/>
<path opacity="0.2" d="M248.467 303.04V299.837C248.467 299.602 248.492 299.369 248.542 299.139C247.104 298.401 245.949 297.211 245.256 295.752C244.562 294.292 244.368 292.646 244.703 291.065C245.039 289.485 245.886 288.059 247.113 287.007C248.34 285.955 249.879 285.336 251.493 285.246H251.078C249.427 285.245 247.823 285.8 246.524 286.82C245.226 287.841 244.309 289.268 243.92 290.872C243.531 292.476 243.693 294.165 244.38 295.666C245.067 297.167 246.239 298.394 247.708 299.149C247.658 299.378 247.633 299.612 247.632 299.846V303.05C247.628 303.523 247.726 303.991 247.918 304.423C248.111 304.855 248.395 305.241 248.75 305.554C249.105 305.866 249.523 306.099 249.976 306.236C250.429 306.373 250.906 306.411 251.375 306.348C250.571 306.244 249.833 305.851 249.297 305.242C248.762 304.633 248.467 303.851 248.467 303.04Z" fill="white"/>
<path d="M258.564 329.273C258.564 329.273 244.361 330.875 243.838 329.273C240.156 317.994 243.838 309.094 243.838 309.094C243.838 307.143 244.613 305.271 245.994 303.891C247.375 302.511 249.248 301.735 251.201 301.735C253.153 301.735 255.026 302.511 256.407 303.891C257.788 305.271 258.564 307.143 258.564 309.094V329.273Z" fill="#00695C"/>
<path d="M258.564 329.273L264.979 358.714H258.564L251.912 336.873C251.912 336.873 243.597 340.434 241.462 347.558C239.327 354.681 241.462 358.714 241.462 358.714H234.57L234.5 358.394C233.366 353.148 233.631 347.697 235.27 342.586C236.908 337.475 239.861 332.884 243.833 329.273" fill="#263238"/>
<path opacity="0.2" d="M244.667 329.273C240.986 317.994 244.667 309.094 244.667 309.094C244.667 307.225 245.379 305.425 246.658 304.061C247.937 302.697 249.688 301.87 251.554 301.75C251.399 301.75 251.238 301.75 251.083 301.75C249.13 301.75 247.257 302.525 245.876 303.905C244.496 305.285 243.72 307.157 243.72 309.109C243.72 309.109 240.038 318.013 243.72 329.287C243.908 329.862 245.85 330.022 248.264 329.999C246.303 329.956 244.818 329.768 244.667 329.273Z" fill="white"/>
<path d="M243.72 308.972C243.72 308.972 224.719 295.677 226.618 278.819H230.894C230.894 278.819 241.104 300.92 247.646 303.04C254.189 305.161 243.72 308.972 243.72 308.972Z" fill="#00695C"/>
<g opacity="0.2">
<path opacity="0.2" d="M252.035 337.391L258.564 358.832H259.506L252.855 336.99C252.855 336.99 252.549 337.122 252.035 337.391Z" fill="white"/>
<path opacity="0.2" d="M244.785 329.391H243.842C239.87 333.002 236.917 337.593 235.279 342.704C233.641 347.815 233.375 353.266 234.509 358.512L234.58 358.832H235.523L235.452 358.512C234.318 353.266 234.584 347.815 236.222 342.704C237.86 337.593 240.813 333.002 244.785 329.391Z" fill="white"/>
</g>
<path opacity="0.2" d="M227.33 279.06H226.618C224.733 295.917 243.72 309.212 243.72 309.212L244.191 309.033C241.99 307.408 225.553 294.796 227.33 279.06Z" fill="white"/>
<path d="M245.209 289.307C245.62 290.254 245.908 291.25 246.067 292.27C246.539 294.334 247.604 296.393 249.438 297.453C250.453 298.003 251.583 298.311 252.737 298.353C254.491 298.461 256.391 298.122 257.63 296.878C258.402 296.035 258.92 294.992 259.125 293.867C259.495 292.207 259.444 290.479 258.976 288.843C258.507 287.207 257.636 285.714 256.442 284.501C255.217 283.318 253.681 282.505 252.013 282.156C250.345 281.806 248.613 281.935 247.015 282.527C246.444 282.806 245.845 283.024 245.228 283.177C244.756 283.253 244.273 283.214 243.819 283.063C243.365 282.912 242.954 282.654 242.622 282.31C242.545 282.558 242.528 282.82 242.572 283.075C242.616 283.33 242.72 283.571 242.874 283.779C243.029 283.986 243.231 284.154 243.463 284.269C243.695 284.384 243.951 284.443 244.21 284.44C243.665 284.701 243.074 284.853 242.471 284.885C241.867 284.917 241.263 284.83 240.694 284.628C241.016 285.308 241.585 285.841 242.284 286.12C242.983 286.398 243.762 286.403 244.465 286.131C243.13 286.725 241.683 287.021 240.222 286.998C240.529 286.998 241.127 287.564 241.5 287.677C241.967 287.751 242.44 287.784 242.914 287.776C243.398 287.805 243.865 287.963 244.268 288.232C244.672 288.501 244.996 288.872 245.209 289.307Z" fill="#263238"/>
<g opacity="0.2">
<path opacity="0.2" d="M244.229 284.431C243.683 284.695 243.09 284.847 242.485 284.878C243.251 284.918 244.014 284.764 244.705 284.431C244.475 284.432 244.246 284.386 244.035 284.294C243.823 284.203 243.633 284.068 243.476 283.9C243.319 283.731 243.199 283.531 243.123 283.314C243.048 283.096 243.018 282.865 243.036 282.636C242.894 282.537 242.762 282.425 242.64 282.301C242.564 282.548 242.547 282.81 242.591 283.066C242.635 283.321 242.739 283.562 242.893 283.769C243.048 283.977 243.25 284.145 243.482 284.26C243.714 284.375 243.97 284.433 244.229 284.431Z" fill="white"/>
<path opacity="0.2" d="M245.719 283.182C246.335 283.029 246.934 282.811 247.505 282.532C248.407 282.176 249.364 281.983 250.333 281.962C249.206 281.925 248.083 282.119 247.034 282.532C246.463 282.811 245.864 283.029 245.247 283.182C245.162 283.182 245.077 283.182 244.993 283.21C245.235 283.232 245.479 283.223 245.719 283.182Z" fill="white"/>
<path opacity="0.2" d="M241.952 287.681C241.58 287.573 240.981 287.012 240.675 287.003C242.135 287.026 243.583 286.73 244.917 286.136C244.618 286.26 244.298 286.327 243.974 286.334C242.772 286.796 241.492 287.024 240.203 287.003C240.51 287.003 241.108 287.568 241.481 287.681C241.805 287.76 242.139 287.787 242.471 287.762C242.295 287.757 242.121 287.73 241.952 287.681Z" fill="white"/>
<path opacity="0.2" d="M253.223 298.357C252.068 298.316 250.939 298.008 249.923 297.457C248.09 296.388 247.043 294.329 246.553 292.275C246.394 291.255 246.105 290.259 245.695 289.312C245.478 288.874 245.149 288.502 244.74 288.235C244.331 287.967 243.859 287.814 243.371 287.79C243.136 287.772 242.899 287.772 242.664 287.79H242.895C243.383 287.814 243.855 287.967 244.264 288.235C244.672 288.502 245.002 288.874 245.219 289.312C245.629 290.259 245.918 291.255 246.077 292.275C246.548 294.339 247.613 296.397 249.447 297.457C250.463 298.008 251.592 298.316 252.747 298.357C253.02 298.357 253.294 298.357 253.572 298.357H253.223Z" fill="white"/>
<path opacity="0.2" d="M243.677 286.315C243.179 286.279 242.697 286.119 242.275 285.85C241.854 285.581 241.506 285.212 241.264 284.775C241.077 284.735 240.893 284.683 240.712 284.619C240.976 285.169 241.401 285.626 241.931 285.929C242.46 286.232 243.069 286.367 243.677 286.315Z" fill="white"/>
</g>
<path opacity="0.2" d="M227.09 278.819C227.09 278.819 225.675 277.632 227.09 275.493C227.277 275.187 227.535 274.93 227.841 274.742C228.148 274.555 228.494 274.442 228.853 274.414C228.416 274.363 227.974 274.437 227.578 274.628C227.182 274.82 226.849 275.12 226.618 275.493C225.204 277.632 226.618 278.819 226.618 278.819C227.536 279.025 228.473 279.129 229.413 279.13C228.632 279.092 227.854 278.988 227.09 278.819Z" fill="white"/>
</g>
<defs>
<filter id="filter0_d" x="8" y="0" width="269" height="331.91" filterUnits="userSpaceOnUse" color-interpolation-filters="sRGB">
<feFlood flood-opacity="0" result="BackgroundImageFix"/>
<feColorMatrix in="SourceAlpha" type="matrix" values="0 0 0 0 0 0 0 0 0 0 0 0 0 0 0 0 0 0 127 0"/>
<feOffset dy="4"/>
<feGaussianBlur stdDeviation="12"/>
<feColorMatrix type="matrix" values="0 0 0 0 0 0 0 0 0 0 0 0 0 0 0 0 0 0 0.05 0"/>
<feBlend mode="normal" in2="BackgroundImageFix" result="effect1_dropShadow"/>
<feBlend mode="normal" in="SourceGraphic" in2="effect1_dropShadow" result="shape"/>
</filter>
<linearGradient id="paint0_linear" x1="18846.7" y1="47589.9" x2="18846.7" y2="33522.8" gradientUnits="userSpaceOnUse">
<stop stop-color="#808080" stop-opacity="0.25"/>
<stop offset="0.54" stop-color="#808080" stop-opacity="0.12"/>
<stop offset="1" stop-color="#808080" stop-opacity="0.1"/>
</linearGradient>
<clipPath id="clip0">
<rect width="92" height="130" fill="white" transform="translate(200 260)"/>
</clipPath>
</defs>
</svg>
