<svg width="301" height="258" viewBox="0 0 301 258" fill="none" xmlns="http://www.w3.org/2000/svg">
<g clip-path="url(#clip0)">
<g opacity="0.5">
<path opacity="0.5" d="M166.185 0.00845975L138.076 186.709L272.912 207.097L301.02 20.396L166.185 0.00845975Z" fill="url(#paint0_linear)"/>
</g>
<path d="M167.695 1.64366L140.208 184.217L271.612 204.086L299.1 21.5124L167.695 1.64366Z" fill="#F5F5F5"/>
<path d="M268.113 97.8064L173.273 83.4663L172.405 89.2273L267.246 103.567L268.113 97.8064Z" fill="#E0E0E0"/>
<path d="M265.945 112.206L171.105 97.8655L170.237 103.626L265.078 117.967L265.945 112.206Z" fill="#E0E0E0"/>
<path d="M275.049 51.7232L226.191 44.3357L225.323 50.0967L274.182 57.4841L275.049 51.7232Z" fill="#E0E0E0"/>
<path d="M268.572 65.4743L228.335 59.3904L227.468 65.1513L267.705 71.2353L268.572 65.4743Z" fill="#6C63FF"/>
<path d="M252.281 124.869L168.935 112.267L168.067 118.028L251.414 130.63L252.281 124.869Z" fill="#E0E0E0"/>
<path d="M238.614 137.532L166.765 126.668L165.897 132.429L237.747 143.293L238.614 137.532Z" fill="#E0E0E0"/>
<path d="M227.825 150.629L164.597 141.068L163.729 146.829L226.957 156.39L227.825 150.629Z" fill="#E0E0E0"/>
<path d="M242.9 167.637L162.429 155.47L161.562 161.231L242.032 173.398L242.9 167.637Z" fill="#E0E0E0"/>
<path d="M191.876 174.649L160.264 169.869L159.396 175.63L191.009 180.41L191.876 174.649Z" fill="#6C63FF"/>
<g opacity="0.5">
<path opacity="0.5" d="M216.931 52.2594C217.43 48.9406 217.063 45.5489 215.866 42.4142C214.669 39.2796 212.683 36.5089 210.1 34.3717C207.518 32.2346 204.428 30.8038 201.13 30.2187C197.832 29.6335 194.439 29.9139 191.282 31.0326C188.124 32.1512 185.309 34.07 183.111 36.6023C180.913 39.1345 179.406 42.1939 178.738 45.4827C178.07 48.7715 178.262 52.1776 179.297 55.3696C180.332 58.5617 182.174 61.4308 184.644 63.6979C184.644 63.7255 184.644 63.7565 184.644 63.7841C185.178 64.4838 185.847 65.0701 186.609 65.5089L186.647 65.4261C187.428 66.3333 191.025 68.1408 195.373 68.7859H195.469C198.223 69.2067 201.283 69.1688 204.123 68.1408C204.123 68.1408 204.154 68.0925 204.205 68.0028C204.918 67.7896 205.592 67.4622 206.202 67.0335L206.264 66.8197C209.086 65.4403 211.531 63.3944 213.389 60.858C215.247 58.3217 216.463 55.3708 216.931 52.2594Z" fill="url(#paint1_linear)"/>
</g>
<path d="M216.269 51.4648C217.819 41.1663 210.746 31.558 200.469 30.0041C190.193 28.4503 180.605 35.5393 179.054 45.8379C177.504 56.1365 184.578 65.7447 194.854 67.2986C205.131 68.8524 214.718 61.7634 216.269 51.4648Z" fill="#F5F5F5"/>
<path d="M189.084 54.864C189.084 54.864 184.609 54.557 184.551 62.8289C185.07 63.5051 185.718 64.0714 186.458 64.495L190.223 56.4128L189.084 54.864Z" fill="#FDA57D"/>
<path d="M203.472 57.0405C203.472 57.0405 207.85 58.0754 205.461 65.9919C204.766 66.4869 203.98 66.8387 203.148 67.0268L201.926 58.1927L203.472 57.0405Z" fill="#FDA57D"/>
<path d="M191.273 41.6318C191.273 41.6318 188.237 47.4649 187.174 46.7129C187.174 46.7129 196.832 58.003 208.084 49.8726C207.209 47.6751 206.074 45.5906 204.704 43.6636L191.273 41.6318Z" fill="#333333"/>
<path d="M206.742 43.3851C207.429 38.8207 204.294 34.5623 199.74 33.8736C195.185 33.1849 190.936 36.3268 190.249 40.8912C189.561 45.4556 192.697 49.714 197.251 50.4027C201.806 51.0914 206.055 47.9495 206.742 43.3851Z" fill="#333333"/>
<path opacity="0.1" d="M203.386 57.0267L188.998 54.8535L186.788 60.4175C186.788 60.4175 185.597 62.9667 186.403 64.2913C187.208 65.6159 195.968 69.669 203.269 67.0509C204.088 65.6017 204.409 63.9234 204.184 62.2733C203.823 59.4655 204.023 62.0526 204.023 62.0526L203.386 57.0267Z" fill="black"/>
<path opacity="0.1" d="M203.579 57.0577L189.191 54.8845L186.984 60.4451C186.984 60.4451 185.793 62.9942 186.599 64.3188C187.404 65.6434 196.164 69.6966 203.465 67.0784C204.284 65.6293 204.606 63.9509 204.381 62.3009C204.019 59.493 204.219 62.0801 204.219 62.0801L203.579 57.0577Z" fill="black"/>
<path d="M203.472 57.0406L189.084 54.8674L186.874 60.4314C186.874 60.4314 185.683 62.9806 186.489 64.3052C187.294 65.6298 196.054 69.6829 203.355 67.0648C204.174 65.6157 204.495 63.9373 204.271 62.2873C203.909 59.4794 204.109 62.0665 204.109 62.0665L203.472 57.0406Z" fill="#FDD835"/>
<path opacity="0.1" d="M194.213 50.7639L199.969 51.6342L199.185 56.8392C199.093 57.448 198.764 57.9954 198.27 58.3609C197.775 58.7264 197.156 58.8802 196.549 58.7883L195.371 58.6103C194.764 58.5184 194.217 58.1885 193.853 57.693C193.488 57.1976 193.334 56.5772 193.426 55.9684L194.21 50.7634L194.213 50.7639Z" fill="black"/>
<path d="M194.241 50.5503L199.997 51.4205L199.213 56.6255C199.121 57.2343 198.792 57.7817 198.298 58.1472C197.803 58.5128 197.184 58.6665 196.577 58.5747L195.403 58.3971C194.795 58.3053 194.249 57.9753 193.884 57.4799C193.519 56.9845 193.366 56.3641 193.458 55.7553L194.241 50.5503Z" fill="#FDA57D"/>
<path opacity="0.1" d="M194.134 51.3662C195.883 52.3412 197.924 52.6557 199.885 52.2527L199.992 51.5455L194.237 50.6763L194.134 51.3662Z" fill="black"/>
<path d="M206.472 45.1778C207.159 40.6135 204.024 36.355 199.47 35.6663C194.915 34.9777 190.666 38.1196 189.979 42.684C189.291 47.2483 192.426 51.5068 196.981 52.1954C201.536 52.8841 205.785 49.7422 206.472 45.1778Z" fill="#FDA57D"/>
<path d="M190.795 39.593L206.525 41.9697C206.525 41.9697 206.14 35.4157 200.133 34.9086C194.127 34.4016 190.795 39.593 190.795 39.593Z" fill="#333333"/>
<path d="M190.965 42.4699C191.085 41.6731 190.84 40.9753 190.417 40.9113C189.994 40.8474 189.554 41.4415 189.434 42.2384C189.314 43.0352 189.559 43.733 189.982 43.7969C190.405 43.8609 190.845 43.2668 190.965 42.4699Z" fill="#FDA57D"/>
<path d="M207.079 44.9077C207.199 44.1109 206.954 43.413 206.531 43.3491C206.108 43.2851 205.668 43.8793 205.548 44.6761C205.428 45.4729 205.673 46.1707 206.096 46.2347C206.519 46.2986 206.959 45.7045 207.079 44.9077Z" fill="#FDA57D"/>
<path opacity="0.1" d="M190.771 39.8069L206.501 42.1836C206.501 42.1836 206.115 35.6296 200.109 35.1225C194.103 34.6154 190.771 39.8069 190.771 39.8069Z" fill="black"/>
<g opacity="0.5">
<path opacity="0.5" d="M135.111 26.8338L0.112976 48.6985L30.2585 235.624L165.257 213.76L135.111 26.8338Z" fill="url(#paint2_linear)"/>
</g>
<path d="M133.081 27.9251L1.93967 49.47L31.746 231.678L162.888 210.133L133.081 27.9251Z" fill="#F5F5F5"/>
<path d="M127.002 110.053L32.3518 125.603L33.2923 131.352L127.943 115.803L127.002 110.053Z" fill="#E0E0E0"/>
<path d="M129.353 124.426L34.7026 139.976L35.6432 145.725L130.293 130.175L129.353 124.426Z" fill="#E0E0E0"/>
<path d="M119.482 64.0638L70.722 72.0745L71.6625 77.8239L120.423 69.8132L119.482 64.0638Z" fill="#E0E0E0"/>
<path d="M117.529 79.1435L77.3731 85.7407L78.3136 91.4901L118.47 84.893L117.529 79.1435Z" fill="#6C63FF"/>
<path d="M120.233 140.682L37.0536 154.348L37.9941 160.097L121.174 146.432L120.233 140.682Z" fill="#E0E0E0"/>
<path d="M111.109 156.936L39.404 168.716L40.3445 174.466L112.05 162.685L111.109 156.936Z" fill="#E0E0E0"/>
<path d="M104.856 172.724L41.7551 183.091L42.6956 188.84L105.797 178.473L104.856 172.724Z" fill="#E0E0E0"/>
<path d="M124.416 184.266L44.1064 197.46L45.0469 203.209L125.356 190.015L124.416 184.266Z" fill="#E0E0E0"/>
<path d="M78.0086 206.651L46.4597 211.834L47.4002 217.583L78.9492 212.4L78.0086 206.651Z" fill="#6C63FF"/>
<g opacity="0.5">
<path opacity="0.5" d="M66.1018 81.2214C65.5443 77.8166 64.1168 74.6144 61.9582 71.9265C59.7995 69.2386 56.9833 67.1565 53.7835 65.8828C50.5838 64.6091 47.1095 64.1873 43.6988 64.6583C40.2881 65.1294 37.0572 66.4773 34.3205 68.5708C31.5838 70.6643 29.4345 73.4322 28.0818 76.6051C26.7291 79.778 26.2191 83.2477 26.6014 86.6767C26.9837 90.1057 28.2453 93.3771 30.2634 96.1725C32.2815 98.968 34.9874 101.192 38.1176 102.629L38.1452 102.715C38.889 103.227 39.7267 103.585 40.6097 103.771V103.678C41.6595 104.319 45.7487 104.95 50.2062 104.205H50.3026C53.1286 103.746 56.1094 102.739 58.5636 100.835C58.5636 100.835 58.5636 100.78 58.5981 100.676C59.229 100.242 59.7857 99.7088 60.2468 99.0966C60.2468 99.0184 60.2468 98.9425 60.2468 98.8689C62.5784 96.6243 64.3298 93.8447 65.3498 90.7701C66.3699 87.6955 66.628 84.4183 66.1018 81.2214Z" fill="url(#paint3_linear)"/>
</g>
<path d="M49.5553 103.579C60.0982 101.847 67.2439 91.8775 65.5155 81.3119C63.7871 70.7463 53.8393 63.5853 43.2963 65.3174C32.7534 67.0495 25.6077 77.0187 27.3361 87.5843C29.0644 98.1499 39.0123 105.311 49.5553 103.579Z" fill="#F5F5F5"/>
<path d="M39.3843 93.291C39.3843 93.291 34.9096 94.4121 37.4568 102.518C38.1779 103.019 38.9911 103.37 39.849 103.553L40.9884 94.4535L39.3843 93.291Z" fill="#4D8AF0"/>
<path d="M54.144 90.866C54.144 90.866 58.753 90.49 58.9078 98.9964C58.3815 99.6936 57.723 100.28 56.97 100.721L52.9909 92.4631L54.144 90.866Z" fill="#4D8AF0"/>
<path d="M45.9535 86.334C50.6265 85.5662 53.7937 81.1475 53.0276 76.4644C52.2616 71.7814 47.8523 68.6073 43.1792 69.3751C38.5062 70.1428 35.339 74.5615 36.1051 79.2446C36.8711 83.9277 41.2804 87.1017 45.9535 86.334Z" fill="#333333"/>
<path d="M54.0579 90.8799L39.2983 93.2945L38.8887 99.438C38.8887 99.438 38.5445 102.311 39.732 103.35C40.9195 104.388 50.788 105.585 57.0835 100.701C57.4281 99.0237 57.2141 97.2799 56.4743 95.7367C55.2351 93.1048 56.2437 95.5712 56.2437 95.5712L54.0579 90.8799Z" fill="#4D8AF0"/>
<path d="M54.2541 90.8489L39.4945 93.2635L39.0849 99.407C39.0849 99.407 38.7407 102.28 39.9282 103.319C41.1157 104.357 50.9842 105.554 57.2797 100.67C57.6243 98.9927 57.4103 97.2489 56.6705 95.7057C55.4313 93.0738 56.4399 95.5402 56.4399 95.5402L54.2541 90.8489Z" fill="#4D8AF0"/>
<path d="M54.144 90.866L39.3843 93.2806L38.9747 99.4345C38.9747 99.4345 38.6305 102.308 39.818 103.346C41.0056 104.384 50.874 105.581 57.1696 100.697C57.5142 99.0201 57.3001 97.2763 56.5603 95.7332C55.3212 93.1012 56.3297 95.5676 56.3297 95.5676L54.144 90.866Z" fill="#4D8AF0"/>
<path opacity="0.1" d="M43.1133 87.6347L49.0169 86.6648L49.9006 92.067C50 92.6746 49.8545 93.2969 49.496 93.7969C49.1376 94.297 48.5956 94.6339 47.9893 94.7335L46.6544 94.9528C46.0481 95.0524 45.4272 94.9066 44.9282 94.5474C44.4292 94.1882 44.093 93.645 43.9936 93.0375L43.1099 87.6353L43.1133 87.6347Z" fill="black"/>
<path d="M43.0782 87.4157L48.9817 86.4458L49.8654 91.848C49.9648 92.4556 49.8193 93.0779 49.4609 93.578C49.1024 94.078 48.5605 94.4149 47.9542 94.5145L46.6193 94.7338C46.013 94.8334 45.392 94.6876 44.893 94.3284C44.3941 93.9692 44.0579 93.4261 43.9585 92.8185L43.0748 87.4163L43.0782 87.4157Z" fill="#FDA57D"/>
<path opacity="0.1" d="M43.2223 88.2685C45.2414 88.6693 47.337 88.3315 49.1289 87.3165L49.0084 86.5886L43.1052 87.5614L43.2223 88.2685Z" fill="black"/>
<path d="M46.2572 88.175C50.9302 87.4073 54.0974 82.9886 53.3313 78.3055C52.5653 73.6224 48.156 70.4484 43.4829 71.2161C38.8099 71.9838 35.6427 76.4026 36.4088 81.0856C37.1748 85.7687 41.5841 88.9427 46.2572 88.175Z" fill="#FDA57D"/>
<path opacity="0.1" d="M36.283 78.0238L52.423 75.3746C52.423 75.3746 49.9756 69.0689 43.9451 70.4901C37.9146 71.9113 36.283 78.0238 36.283 78.0238Z" fill="black"/>
<path d="M36.2452 77.8063L52.3989 75.1536C52.3989 75.1536 49.9516 68.848 43.921 70.2692C37.8905 71.6903 36.2452 77.8063 36.2452 77.8063Z" fill="#333333"/>
<path d="M36.8656 82.6836C37.3023 82.6129 37.549 81.8904 37.4166 81.07C37.2843 80.2496 36.8231 79.6418 36.3865 79.7125C35.9499 79.7832 35.7032 80.5057 35.8355 81.3261C35.9678 82.1465 36.429 82.7543 36.8656 82.6836Z" fill="#FDA57D"/>
<path d="M53.2945 79.458C53.7297 79.3865 53.9741 78.6656 53.8403 77.8478C53.7065 77.03 53.2453 76.425 52.8101 76.4965C52.3748 76.568 52.1305 77.2889 52.2642 78.1067C52.398 78.9245 52.8593 79.5295 53.2945 79.458Z" fill="#FDA57D"/>
<g opacity="0.5">
<path opacity="0.5" d="M233.645 57.0784H97.2836V245.892H233.645V57.0784Z" fill="url(#paint4_linear)"/>
</g>
<path d="M231.91 58.4685H99.0185V243.109H231.91V58.4685Z" fill="white"/>
<g opacity="0.5">
<path opacity="0.5" d="M116.766 100.714C116.766 97.1864 117.678 93.7188 119.412 90.6488C121.147 87.5788 123.645 85.0111 126.663 83.1955C129.681 81.38 133.117 80.3785 136.636 80.2884C140.155 80.1983 143.638 81.0228 146.745 82.6817C149.852 84.3405 152.477 86.7771 154.365 89.7543C156.254 92.7316 157.341 96.1481 157.521 99.6713C157.701 103.195 156.968 106.704 155.393 109.86C153.818 113.015 151.454 115.707 148.533 117.675V117.765C147.867 118.406 147.081 118.907 146.22 119.241L146.192 119.152C145.239 119.973 141.218 121.287 136.599 121.273H136.499C133.574 121.273 130.4 120.756 127.605 119.241C127.605 119.241 127.581 119.186 127.543 119.086C126.835 118.753 126.185 118.306 125.619 117.765L125.588 117.534C122.867 115.657 120.642 113.146 119.105 110.215C117.568 107.285 116.765 104.025 116.766 100.714Z" fill="url(#paint5_linear)"/>
</g>
<path d="M137.153 120.535C148.077 120.535 156.932 111.661 156.932 100.714C156.932 89.7676 148.077 80.8936 137.153 80.8936C126.23 80.8936 117.375 89.7676 117.375 100.714C117.375 111.661 126.23 120.535 137.153 120.535Z" fill="#F5F5F5"/>
<path d="M129.395 108.265C129.395 108.265 124.683 108.648 125.929 117.272C126.575 117.893 127.338 118.379 128.173 118.703L130.823 109.71L129.395 108.265Z" fill="#BE7C5E"/>
<path d="M144.688 108.265C144.688 108.265 149.4 108.648 148.154 117.272C147.508 117.893 146.745 118.379 145.91 118.703L143.27 109.683L144.688 108.265Z" fill="#BE7C5E"/>
<path d="M129.598 94.1604C129.598 94.1604 129.237 95.2194 128.72 96.4439C127.598 99.1207 128.879 109.407 131.563 110.504C134.575 111.735 138.537 112.522 142.65 111.018C146.227 109.711 147.328 98.0031 144.802 95.1504C144.506 94.8055 144.196 94.4847 143.872 94.1604H129.598Z" fill="#333333"/>
<path d="M137.167 102.336C142.009 102.336 145.934 98.402 145.934 93.5497C145.934 88.6975 142.009 84.7639 137.167 84.7639C132.325 84.7639 128.4 88.6975 128.4 93.5497C128.4 98.402 132.325 102.336 137.167 102.336Z" fill="#333333"/>
<path opacity="0.1" d="M144.599 108.265H129.305L127.877 114.395C127.877 114.395 127.037 117.234 128.08 118.482C129.123 119.731 138.864 122.57 146.024 118.686C146.647 117.051 146.719 115.257 146.227 113.577C145.411 110.718 146.024 113.374 146.024 113.374L144.599 108.265Z" fill="black"/>
<path opacity="0.1" d="M144.802 108.265H129.502L128.073 114.395C128.073 114.395 127.233 117.234 128.276 118.482C129.319 119.731 139.06 122.57 146.22 118.686C146.844 117.051 146.915 115.257 146.423 113.577C145.607 110.718 146.22 113.374 146.22 113.374L144.802 108.265Z" fill="black"/>
<path d="M144.688 108.265H129.395L127.966 114.395C127.966 114.395 127.127 117.234 128.169 118.482C129.212 119.731 138.954 122.57 146.113 118.686C146.737 117.051 146.808 115.257 146.316 113.577C145.5 110.718 146.113 113.374 146.113 113.374L144.688 108.265Z" fill="#3AD29F"/>
<path opacity="0.1" d="M134.086 103.177H140.203V108.827C140.203 109.443 139.959 110.034 139.525 110.469C139.09 110.904 138.501 111.149 137.886 111.149H136.4C135.785 111.149 135.196 110.904 134.761 110.469C134.327 110.034 134.083 109.443 134.083 108.827V103.177H134.086Z" fill="black"/>
<path d="M134.086 102.95H140.203V108.6C140.203 109.216 139.959 109.806 139.525 110.241C139.09 110.677 138.501 110.921 137.886 110.921H136.4C135.785 110.921 135.196 110.677 134.761 110.241C134.327 109.806 134.083 109.216 134.083 108.6V102.95H134.086Z" fill="#BE7C5E"/>
<path opacity="0.1" d="M134.097 103.819C136.07 104.551 138.24 104.551 140.213 103.819V103.067H134.097V103.819Z" fill="black"/>
<path d="M137.167 104.243C142.009 104.243 145.934 100.309 145.934 95.4572C145.934 90.6049 142.009 86.6714 137.167 86.6714C132.325 86.6714 128.4 90.6049 128.4 95.4572C128.4 100.309 132.325 104.243 137.167 104.243Z" fill="#BE7C5E"/>
<path d="M128.782 92.1216H145.504C145.504 92.1216 144.075 85.3537 137.756 85.7884C131.436 86.223 128.782 92.1216 128.782 92.1216Z" fill="#333333"/>
<path d="M128.583 96.6164C129.033 96.6164 129.398 95.9306 129.398 95.0848C129.398 94.2389 129.033 93.5532 128.583 93.5532C128.132 93.5532 127.767 94.2389 127.767 95.0848C127.767 95.9306 128.132 96.6164 128.583 96.6164Z" fill="#BE7C5E"/>
<path d="M145.71 96.6164C146.161 96.6164 146.526 95.9306 146.526 95.0848C146.526 94.2389 146.161 93.5532 145.71 93.5532C145.26 93.5532 144.895 94.2389 144.895 95.0848C144.895 95.9306 145.26 96.6164 145.71 96.6164Z" fill="#BE7C5E"/>
<path opacity="0.1" d="M128.782 92.346H145.504C145.504 92.346 144.075 85.5781 137.756 86.0127C131.436 86.4474 128.782 92.346 128.782 92.346Z" fill="black"/>
<path d="M212.652 138.531H116.738V144.357H212.652V138.531Z" fill="#E0E0E0"/>
<path d="M212.652 153.094H116.738V158.921H212.652V153.094Z" fill="#E0E0E0"/>
<path d="M212.655 91.9285H163.244V97.7546H212.655V91.9285Z" fill="#E0E0E0"/>
<path d="M208.294 106.492H167.602V112.318H208.294V106.492Z" fill="#6C63FF"/>
<path d="M201.028 167.658H116.738V173.484H201.028V167.658Z" fill="#E0E0E0"/>
<path d="M189.401 182.222H116.738V188.048H189.401V182.222Z" fill="#E0E0E0"/>
<path d="M180.682 196.789H116.738V202.615H180.682V196.789Z" fill="#E0E0E0"/>
<path d="M198.12 211.353H116.738V217.179H198.12V211.353Z" fill="#E0E0E0"/>
<path d="M148.708 225.917H116.738V231.743H148.708V225.917Z" fill="#6C63FF"/>
<g opacity="0.5">
<path opacity="0.5" d="M224.448 258.003C240.491 258.003 253.496 244.97 253.496 228.893C253.496 212.816 240.491 199.783 224.448 199.783C208.405 199.783 195.4 212.816 195.4 228.893C195.4 244.97 208.405 258.003 224.448 258.003Z" fill="url(#paint6_linear)"/>
</g>
<path d="M224.448 256.289C239.546 256.289 251.785 244.024 251.785 228.893C251.785 213.763 239.546 201.498 224.448 201.498C209.35 201.498 197.111 213.763 197.111 228.893C197.111 244.024 209.35 256.289 224.448 256.289Z" fill="#69F0AE"/>
<path d="M212.583 225.237L222.834 234.654L237.356 213.253L242.485 217.534L222.834 243.216L208.312 226.951L212.583 225.237Z" fill="white"/>
</g>
<defs>
<linearGradient id="paint0_linear" x1="205.494" y1="196.903" x2="233.721" y2="10.2201" gradientUnits="userSpaceOnUse">
<stop stop-color="#808080" stop-opacity="0.25"/>
<stop offset="0.54" stop-color="#808080" stop-opacity="0.12"/>
<stop offset="1" stop-color="#808080" stop-opacity="0.1"/>
</linearGradient>
<linearGradient id="paint1_linear" x1="22735.3" y1="28599.5" x2="23396.5" y2="24226.9" gradientUnits="userSpaceOnUse">
<stop stop-color="#808080" stop-opacity="0.25"/>
<stop offset="0.54" stop-color="#808080" stop-opacity="0.12"/>
<stop offset="1" stop-color="#808080" stop-opacity="0.1"/>
</linearGradient>
<linearGradient id="paint2_linear" x1="75738.5" y1="61641" x2="59168.7" y2="-40665.3" gradientUnits="userSpaceOnUse">
<stop stop-color="#808080" stop-opacity="0.25"/>
<stop offset="0.54" stop-color="#808080" stop-opacity="0.12"/>
<stop offset="1" stop-color="#808080" stop-opacity="0.1"/>
</linearGradient>
<linearGradient id="paint3_linear" x1="15625.4" y1="-1542.27" x2="14870.4" y2="-6138.29" gradientUnits="userSpaceOnUse">
<stop stop-color="#808080" stop-opacity="0.25"/>
<stop offset="0.54" stop-color="#808080" stop-opacity="0.12"/>
<stop offset="1" stop-color="#808080" stop-opacity="0.1"/>
</linearGradient>
<linearGradient id="paint4_linear" x1="65647.7" y1="134651" x2="65647.7" y2="31300.1" gradientUnits="userSpaceOnUse">
<stop stop-color="#808080" stop-opacity="0.25"/>
<stop offset="0.54" stop-color="#808080" stop-opacity="0.12"/>
<stop offset="1" stop-color="#808080" stop-opacity="0.1"/>
</linearGradient>
<linearGradient id="paint5_linear" x1="20717.8" y1="17608.3" x2="20717.8" y2="12736.4" gradientUnits="userSpaceOnUse">
<stop stop-color="#808080" stop-opacity="0.25"/>
<stop offset="0.54" stop-color="#808080" stop-opacity="0.12"/>
<stop offset="1" stop-color="#808080" stop-opacity="0.1"/>
</linearGradient>
<linearGradient id="paint6_linear" x1="38077.8" y1="43745" x2="38077.8" y2="33919.2" gradientUnits="userSpaceOnUse">
<stop stop-color="#808080" stop-opacity="0.25"/>
<stop offset="0.54" stop-color="#808080" stop-opacity="0.12"/>
<stop offset="1" stop-color="#808080" stop-opacity="0.1"/>
</linearGradient>
<clipPath id="clip0">
<rect width="301" height="258" fill="white"/>
</clipPath>
</defs>
</svg>
