<svg width="352" height="258" viewBox="0 0 352 258" fill="none" xmlns="http://www.w3.org/2000/svg">
<g filter="url(#filter0_d)">
<rect x="24.2056" y="20.9404" width="303.572" height="208.889" rx="14" fill="white"/>
</g>
<rect x="38.8474" y="74.6268" width="270.384" height="40.9969" rx="4" fill="white"/>
<rect x="39.8474" y="75.6268" width="268.384" height="38.9969" rx="3" stroke="black" stroke-opacity="0.1" stroke-width="2"/>
<path d="M54.4965 100.132C54.9712 100.132 55.3952 100.052 55.7685 99.8921C56.1419 99.7321 56.4565 99.5081 56.7125 99.2201C56.9739 98.9321 57.1712 98.5881 57.3045 98.1881C57.4432 97.7881 57.5125 97.3481 57.5125 96.8681V89.9001H59.0565V96.8681C59.0565 97.5295 58.9499 98.1428 58.7365 98.7081C58.5285 99.2735 58.2272 99.7641 57.8325 100.18C57.4432 100.591 56.9659 100.913 56.4005 101.148C55.8352 101.383 55.2005 101.5 54.4965 101.5C53.7925 101.5 53.1579 101.383 52.5925 101.148C52.0272 100.913 51.5472 100.591 51.1525 100.18C50.7579 99.7641 50.4539 99.2735 50.2405 98.7081C50.0325 98.1428 49.9285 97.5295 49.9285 96.8681V89.9001H51.4725V96.8601C51.4725 97.3401 51.5392 97.7801 51.6725 98.1801C51.8112 98.5801 52.0085 98.9241 52.2645 99.2121C52.5259 99.5001 52.8432 99.7268 53.2165 99.8921C53.5952 100.052 54.0219 100.132 54.4965 100.132ZM65.8315 94.5961C65.7675 94.7135 65.6689 94.7721 65.5355 94.7721C65.4555 94.7721 65.3649 94.7428 65.2635 94.6841C65.1622 94.6255 65.0369 94.5615 64.8875 94.4921C64.7435 94.4175 64.5702 94.3508 64.3675 94.2921C64.1649 94.2281 63.9249 94.1961 63.6475 94.1961C63.4075 94.1961 63.1915 94.2281 62.9995 94.2921C62.8075 94.3508 62.6422 94.4335 62.5035 94.5401C62.3702 94.6468 62.2662 94.7721 62.1915 94.9161C62.1222 95.0548 62.0875 95.2068 62.0875 95.3721C62.0875 95.5801 62.1462 95.7535 62.2635 95.8921C62.3862 96.0308 62.5462 96.1508 62.7435 96.2521C62.9409 96.3535 63.1649 96.4441 63.4155 96.5241C63.6662 96.5988 63.9222 96.6815 64.1835 96.7721C64.4502 96.8575 64.7089 96.9535 64.9595 97.0601C65.2102 97.1668 65.4342 97.3001 65.6315 97.4601C65.8289 97.6201 65.9862 97.8175 66.1035 98.0521C66.2262 98.2815 66.2875 98.5588 66.2875 98.8841C66.2875 99.2575 66.2209 99.6041 66.0875 99.9241C65.9542 100.239 65.7569 100.513 65.4955 100.748C65.2342 100.977 64.9142 101.159 64.5355 101.292C64.1569 101.425 63.7195 101.492 63.2235 101.492C62.6582 101.492 62.1462 101.401 61.6875 101.22C61.2289 101.033 60.8395 100.796 60.5195 100.508L60.8555 99.9641C60.8982 99.8948 60.9489 99.8415 61.0075 99.8041C61.0662 99.7668 61.1409 99.7481 61.2315 99.7481C61.3275 99.7481 61.4289 99.7855 61.5355 99.8601C61.6422 99.9348 61.7702 100.017 61.9195 100.108C62.0742 100.199 62.2609 100.281 62.4795 100.356C62.6982 100.431 62.9702 100.468 63.2955 100.468C63.5729 100.468 63.8155 100.433 64.0235 100.364C64.2315 100.289 64.4049 100.191 64.5435 100.068C64.6822 99.9455 64.7835 99.8041 64.8475 99.6441C64.9169 99.4841 64.9515 99.3135 64.9515 99.1321C64.9515 98.9081 64.8902 98.7241 64.7675 98.5801C64.6502 98.4308 64.4929 98.3055 64.2955 98.2041C64.0982 98.0975 63.8715 98.0068 63.6155 97.9321C63.3649 97.8521 63.1062 97.7695 62.8395 97.6841C62.5782 97.5988 62.3195 97.5028 62.0635 97.3961C61.8129 97.2841 61.5889 97.1455 61.3915 96.9801C61.1942 96.8148 61.0342 96.6121 60.9115 96.3721C60.7942 96.1268 60.7355 95.8308 60.7355 95.4841C60.7355 95.1748 60.7995 94.8788 60.9275 94.5961C61.0555 94.3081 61.2422 94.0575 61.4875 93.8441C61.7329 93.6255 62.0342 93.4521 62.3915 93.3241C62.7489 93.1961 63.1569 93.1321 63.6155 93.1321C64.1489 93.1321 64.6262 93.2175 65.0475 93.3881C65.4742 93.5535 65.8422 93.7828 66.1515 94.0761L65.8315 94.5961ZM73.4574 96.4281C73.4574 96.0975 73.4094 95.7961 73.3134 95.5241C73.2227 95.2468 73.0867 95.0095 72.9054 94.8121C72.7294 94.6095 72.5134 94.4548 72.2574 94.3481C72.0014 94.2361 71.7107 94.1801 71.3854 94.1801C70.7027 94.1801 70.1614 94.3801 69.7614 94.7801C69.3667 95.1748 69.1214 95.7241 69.0254 96.4281H73.4574ZM74.6094 100.228C74.4334 100.441 74.2227 100.628 73.9774 100.788C73.7321 100.943 73.4681 101.071 73.1854 101.172C72.9081 101.273 72.6201 101.348 72.3214 101.396C72.0227 101.449 71.7267 101.476 71.4334 101.476C70.8734 101.476 70.3561 101.383 69.8814 101.196C69.4121 101.004 69.0041 100.727 68.6574 100.364C68.3161 99.9961 68.0494 99.5428 67.8574 99.0041C67.6654 98.4655 67.5694 97.8468 67.5694 97.1481C67.5694 96.5828 67.6547 96.0548 67.8254 95.5641C68.0014 95.0735 68.2521 94.6495 68.5774 94.2921C68.9027 93.9295 69.3001 93.6468 69.7694 93.4441C70.2387 93.2361 70.7667 93.1321 71.3534 93.1321C71.8387 93.1321 72.2867 93.2148 72.6974 93.3801C73.1134 93.5401 73.4707 93.7748 73.7694 94.0841C74.0734 94.3881 74.3107 94.7668 74.4814 95.2201C74.6521 95.6681 74.7374 96.1801 74.7374 96.7561C74.7374 96.9801 74.7134 97.1295 74.6654 97.2041C74.6174 97.2788 74.5267 97.3161 74.3934 97.3161H68.9774C68.9934 97.8281 69.0627 98.2735 69.1854 98.6521C69.3134 99.0308 69.4894 99.3481 69.7134 99.6041C69.9374 99.8548 70.2041 100.044 70.5134 100.172C70.8227 100.295 71.1694 100.356 71.5534 100.356C71.9107 100.356 72.2174 100.316 72.4734 100.236C72.7347 100.151 72.9587 100.06 73.1454 99.9641C73.3321 99.8681 73.4867 99.7801 73.6094 99.7001C73.7374 99.6148 73.8467 99.5721 73.9374 99.5721C74.0547 99.5721 74.1454 99.6175 74.2094 99.7081L74.6094 100.228ZM77.8385 94.8841C78.0945 94.3295 78.4092 93.8975 78.7825 93.5881C79.1559 93.2735 79.6119 93.1161 80.1505 93.1161C80.3212 93.1161 80.4839 93.1348 80.6385 93.1721C80.7985 93.2095 80.9399 93.2681 81.0625 93.3481L80.9585 94.4121C80.9265 94.5455 80.8465 94.6121 80.7185 94.6121C80.6439 94.6121 80.5345 94.5961 80.3905 94.5641C80.2465 94.5321 80.0839 94.5161 79.9025 94.5161C79.6465 94.5161 79.4172 94.5535 79.2145 94.6281C79.0172 94.7028 78.8385 94.8148 78.6785 94.9641C78.5239 95.1081 78.3825 95.2895 78.2545 95.5081C78.1319 95.7215 78.0199 95.9668 77.9185 96.2441V101.364H76.4865V93.2601H77.3025C77.4572 93.2601 77.5639 93.2895 77.6225 93.3481C77.6812 93.4068 77.7212 93.5081 77.7425 93.6521L77.8385 94.8841ZM83.6586 94.4361C83.8346 94.2388 84.0213 94.0601 84.2186 93.9001C84.416 93.7401 84.624 93.6041 84.8426 93.4921C85.0666 93.3748 85.3013 93.2868 85.5466 93.2281C85.7973 93.1641 86.0666 93.1321 86.3546 93.1321C86.7973 93.1321 87.1866 93.2068 87.5226 93.3561C87.864 93.5001 88.1466 93.7081 88.3706 93.9801C88.6 94.2468 88.7733 94.5695 88.8906 94.9481C89.008 95.3268 89.0666 95.7455 89.0666 96.2041V101.364H87.6346V96.2041C87.6346 95.5908 87.4933 95.1161 87.2106 94.7801C86.9333 94.4388 86.5093 94.2681 85.9386 94.2681C85.5173 94.2681 85.1226 94.3695 84.7546 94.5721C84.392 94.7748 84.056 95.0495 83.7466 95.3961V101.364H82.3146V93.2601H83.1706C83.3733 93.2601 83.4986 93.3588 83.5466 93.5561L83.6586 94.4361ZM95.6285 97.7161C94.9725 97.7375 94.4125 97.7908 93.9485 97.8761C93.4899 97.9561 93.1139 98.0628 92.8205 98.1961C92.5325 98.3295 92.3219 98.4868 92.1885 98.6681C92.0605 98.8495 91.9965 99.0521 91.9965 99.2761C91.9965 99.4895 92.0312 99.6735 92.1005 99.8281C92.1699 99.9828 92.2632 100.111 92.3805 100.212C92.5032 100.308 92.6445 100.38 92.8045 100.428C92.9699 100.471 93.1459 100.492 93.3325 100.492C93.5832 100.492 93.8125 100.468 94.0205 100.42C94.2285 100.367 94.4232 100.292 94.6045 100.196C94.7912 100.1 94.9672 99.9855 95.1325 99.8521C95.3032 99.7188 95.4685 99.5668 95.6285 99.3961V97.7161ZM91.0285 94.4041C91.4765 93.9721 91.9592 93.6495 92.4765 93.4361C92.9939 93.2228 93.5672 93.1161 94.1965 93.1161C94.6499 93.1161 95.0525 93.1908 95.4045 93.3401C95.7565 93.4895 96.0525 93.6975 96.2925 93.9641C96.5325 94.2308 96.7139 94.5535 96.8365 94.9321C96.9592 95.3108 97.0205 95.7268 97.0205 96.1801V101.364H96.3885C96.2499 101.364 96.1432 101.343 96.0685 101.3C95.9939 101.252 95.9352 101.161 95.8925 101.028L95.7325 100.26C95.5192 100.457 95.3112 100.633 95.1085 100.788C94.9059 100.937 94.6925 101.065 94.4685 101.172C94.2445 101.273 94.0045 101.351 93.7485 101.404C93.4979 101.463 93.2179 101.492 92.9085 101.492C92.5939 101.492 92.2979 101.449 92.0205 101.364C91.7432 101.273 91.5005 101.14 91.2925 100.964C91.0899 100.788 90.9272 100.567 90.8045 100.3C90.6872 100.028 90.6285 99.7081 90.6285 99.3401C90.6285 99.0201 90.7165 98.7135 90.8925 98.4201C91.0685 98.1215 91.3539 97.8575 91.7485 97.6281C92.1432 97.3988 92.6579 97.2121 93.2925 97.0681C93.9272 96.9188 94.7059 96.8335 95.6285 96.8121V96.1801C95.6285 95.5508 95.4925 95.0761 95.2205 94.7561C94.9485 94.4308 94.5512 94.2681 94.0285 94.2681C93.6765 94.2681 93.3805 94.3135 93.1405 94.4041C92.9059 94.4895 92.7005 94.5881 92.5245 94.7001C92.3539 94.8068 92.2045 94.9055 92.0765 94.9961C91.9539 95.0815 91.8312 95.1241 91.7085 95.1241C91.6125 95.1241 91.5299 95.1001 91.4605 95.0521C91.3912 94.9988 91.3325 94.9348 91.2845 94.8601L91.0285 94.4041ZM99.1896 101.364V93.2601H100.046C100.248 93.2601 100.374 93.3588 100.422 93.5561L100.526 94.3881C100.824 94.0201 101.16 93.7188 101.534 93.4841C101.907 93.2495 102.339 93.1321 102.83 93.1321C103.374 93.1321 103.814 93.2841 104.15 93.5881C104.491 93.8921 104.736 94.3028 104.886 94.8201C105.003 94.5268 105.152 94.2735 105.334 94.0601C105.52 93.8468 105.728 93.6708 105.958 93.5321C106.187 93.3935 106.43 93.2921 106.686 93.2281C106.947 93.1641 107.211 93.1321 107.478 93.1321C107.904 93.1321 108.283 93.2015 108.614 93.3401C108.95 93.4735 109.232 93.6708 109.462 93.9321C109.696 94.1935 109.875 94.5161 109.998 94.9001C110.12 95.2788 110.182 95.7135 110.182 96.2041V101.364H108.75V96.2041C108.75 95.5695 108.611 95.0895 108.334 94.7641C108.056 94.4335 107.656 94.2681 107.134 94.2681C106.899 94.2681 106.675 94.3108 106.462 94.3961C106.254 94.4761 106.07 94.5961 105.91 94.7561C105.75 94.9161 105.622 95.1188 105.526 95.3641C105.435 95.6041 105.39 95.8841 105.39 96.2041V101.364H103.958V96.2041C103.958 95.5535 103.827 95.0681 103.566 94.7481C103.304 94.4281 102.923 94.2681 102.422 94.2681C102.07 94.2681 101.744 94.3641 101.446 94.5561C101.147 94.7428 100.872 94.9988 100.622 95.3241V101.364H99.1896ZM117.77 96.4281C117.77 96.0975 117.722 95.7961 117.626 95.5241C117.535 95.2468 117.399 95.0095 117.218 94.8121C117.042 94.6095 116.826 94.4548 116.57 94.3481C116.314 94.2361 116.023 94.1801 115.698 94.1801C115.015 94.1801 114.474 94.3801 114.074 94.7801C113.679 95.1748 113.434 95.7241 113.338 96.4281H117.77ZM118.922 100.228C118.746 100.441 118.535 100.628 118.29 100.788C118.045 100.943 117.781 101.071 117.498 101.172C117.221 101.273 116.933 101.348 116.634 101.396C116.335 101.449 116.039 101.476 115.746 101.476C115.186 101.476 114.669 101.383 114.194 101.196C113.725 101.004 113.317 100.727 112.97 100.364C112.629 99.9961 112.362 99.5428 112.17 99.0041C111.978 98.4655 111.882 97.8468 111.882 97.1481C111.882 96.5828 111.967 96.0548 112.138 95.5641C112.314 95.0735 112.565 94.6495 112.89 94.2921C113.215 93.9295 113.613 93.6468 114.082 93.4441C114.551 93.2361 115.079 93.1321 115.666 93.1321C116.151 93.1321 116.599 93.2148 117.01 93.3801C117.426 93.5401 117.783 93.7748 118.082 94.0841C118.386 94.3881 118.623 94.7668 118.794 95.2201C118.965 95.6681 119.05 96.1801 119.05 96.7561C119.05 96.9801 119.026 97.1295 118.978 97.2041C118.93 97.2788 118.839 97.3161 118.706 97.3161H113.29C113.306 97.8281 113.375 98.2735 113.498 98.6521C113.626 99.0308 113.802 99.3481 114.026 99.6041C114.25 99.8548 114.517 100.044 114.826 100.172C115.135 100.295 115.482 100.356 115.866 100.356C116.223 100.356 116.53 100.316 116.786 100.236C117.047 100.151 117.271 100.06 117.458 99.9641C117.645 99.8681 117.799 99.7801 117.922 99.7001C118.05 99.6148 118.159 99.5721 118.25 99.5721C118.367 99.5721 118.458 99.6175 118.522 99.7081L118.922 100.228Z" fill="black" fill-opacity="0.3"/>
<rect x="38.8474" y="126.361" width="270.384" height="40.9969" rx="4" fill="white"/>
<rect x="39.8474" y="127.361" width="268.384" height="38.9969" rx="3" stroke="black" stroke-opacity="0.1" stroke-width="2"/>
<path d="M53.4565 147.578C53.8992 147.578 54.2885 147.52 54.6245 147.402C54.9659 147.285 55.2512 147.122 55.4805 146.914C55.7152 146.701 55.8912 146.448 56.0085 146.154C56.1259 145.861 56.1845 145.538 56.1845 145.186C56.1845 144.456 55.9579 143.885 55.5045 143.474C55.0565 143.064 54.3739 142.858 53.4565 142.858H51.6165V147.578H53.4565ZM53.4565 141.634C54.1819 141.634 54.8112 141.72 55.3445 141.89C55.8832 142.056 56.3285 142.293 56.6805 142.602C57.0325 142.912 57.2939 143.285 57.4645 143.722C57.6405 144.16 57.7285 144.648 57.7285 145.186C57.7285 145.72 57.6352 146.208 57.4485 146.65C57.2619 147.093 56.9872 147.474 56.6245 147.794C56.2672 148.114 55.8219 148.365 55.2885 148.546C54.7605 148.722 54.1499 148.81 53.4565 148.81H51.6165V153.098H50.0725V141.634H53.4565ZM63.4879 149.45C62.8319 149.472 62.2719 149.525 61.8079 149.61C61.3492 149.69 60.9732 149.797 60.6799 149.93C60.3919 150.064 60.1812 150.221 60.0479 150.402C59.9199 150.584 59.8559 150.786 59.8559 151.01C59.8559 151.224 59.8906 151.408 59.9599 151.562C60.0292 151.717 60.1226 151.845 60.2399 151.946C60.3626 152.042 60.5039 152.114 60.6639 152.162C60.8292 152.205 61.0052 152.226 61.1919 152.226C61.4426 152.226 61.6719 152.202 61.8799 152.154C62.0879 152.101 62.2826 152.026 62.4639 151.93C62.6506 151.834 62.8266 151.72 62.9919 151.586C63.1626 151.453 63.3279 151.301 63.4879 151.13V149.45ZM58.8879 146.138C59.3359 145.706 59.8186 145.384 60.3359 145.17C60.8532 144.957 61.4266 144.85 62.0559 144.85C62.5092 144.85 62.9119 144.925 63.2639 145.074C63.6159 145.224 63.9119 145.432 64.1519 145.698C64.3919 145.965 64.5732 146.288 64.6959 146.666C64.8186 147.045 64.8799 147.461 64.8799 147.914V153.098H64.2479C64.1092 153.098 64.0026 153.077 63.9279 153.034C63.8532 152.986 63.7946 152.896 63.7519 152.762L63.5919 151.994C63.3786 152.192 63.1706 152.368 62.9679 152.522C62.7652 152.672 62.5519 152.8 62.3279 152.906C62.1039 153.008 61.8639 153.085 61.6079 153.138C61.3572 153.197 61.0772 153.226 60.7679 153.226C60.4532 153.226 60.1572 153.184 59.8799 153.098C59.6026 153.008 59.3599 152.874 59.1519 152.698C58.9492 152.522 58.7866 152.301 58.6639 152.034C58.5466 151.762 58.4879 151.442 58.4879 151.074C58.4879 150.754 58.5759 150.448 58.7519 150.154C58.9279 149.856 59.2132 149.592 59.6079 149.362C60.0026 149.133 60.5172 148.946 61.1519 148.802C61.7866 148.653 62.5652 148.568 63.4879 148.546V147.914C63.4879 147.285 63.3519 146.81 63.0799 146.49C62.8079 146.165 62.4106 146.002 61.8879 146.002C61.5359 146.002 61.2399 146.048 60.9999 146.138C60.7652 146.224 60.5599 146.322 60.3839 146.434C60.2132 146.541 60.0639 146.64 59.9359 146.73C59.8132 146.816 59.6906 146.858 59.5679 146.858C59.4719 146.858 59.3892 146.834 59.3199 146.786C59.2506 146.733 59.1919 146.669 59.1439 146.594L58.8879 146.138ZM71.769 146.33C71.705 146.448 71.6064 146.506 71.473 146.506C71.393 146.506 71.3024 146.477 71.201 146.418C71.0997 146.36 70.9744 146.296 70.825 146.226C70.681 146.152 70.5077 146.085 70.305 146.026C70.1024 145.962 69.8624 145.93 69.585 145.93C69.345 145.93 69.129 145.962 68.937 146.026C68.745 146.085 68.5797 146.168 68.441 146.274C68.3077 146.381 68.2037 146.506 68.129 146.65C68.0597 146.789 68.025 146.941 68.025 147.106C68.025 147.314 68.0837 147.488 68.201 147.626C68.3237 147.765 68.4837 147.885 68.681 147.986C68.8784 148.088 69.1024 148.178 69.353 148.258C69.6037 148.333 69.8597 148.416 70.121 148.506C70.3877 148.592 70.6464 148.688 70.897 148.794C71.1477 148.901 71.3717 149.034 71.569 149.194C71.7664 149.354 71.9237 149.552 72.041 149.786C72.1637 150.016 72.225 150.293 72.225 150.618C72.225 150.992 72.1584 151.338 72.025 151.658C71.8917 151.973 71.6944 152.248 71.433 152.482C71.1717 152.712 70.8517 152.893 70.473 153.026C70.0944 153.16 69.657 153.226 69.161 153.226C68.5957 153.226 68.0837 153.136 67.625 152.954C67.1664 152.768 66.777 152.53 66.457 152.242L66.793 151.698C66.8357 151.629 66.8864 151.576 66.945 151.538C67.0037 151.501 67.0784 151.482 67.169 151.482C67.265 151.482 67.3664 151.52 67.473 151.594C67.5797 151.669 67.7077 151.752 67.857 151.842C68.0117 151.933 68.1984 152.016 68.417 152.09C68.6357 152.165 68.9077 152.202 69.233 152.202C69.5104 152.202 69.753 152.168 69.961 152.098C70.169 152.024 70.3424 151.925 70.481 151.802C70.6197 151.68 70.721 151.538 70.785 151.378C70.8544 151.218 70.889 151.048 70.889 150.866C70.889 150.642 70.8277 150.458 70.705 150.314C70.5877 150.165 70.4304 150.04 70.233 149.938C70.0357 149.832 69.809 149.741 69.553 149.666C69.3024 149.586 69.0437 149.504 68.777 149.418C68.5157 149.333 68.257 149.237 68.001 149.13C67.7504 149.018 67.5264 148.88 67.329 148.714C67.1317 148.549 66.9717 148.346 66.849 148.106C66.7317 147.861 66.673 147.565 66.673 147.218C66.673 146.909 66.737 146.613 66.865 146.33C66.993 146.042 67.1797 145.792 67.425 145.578C67.6704 145.36 67.9717 145.186 68.329 145.058C68.6864 144.93 69.0944 144.866 69.553 144.866C70.0864 144.866 70.5637 144.952 70.985 145.122C71.4117 145.288 71.7797 145.517 72.089 145.81L71.769 146.33ZM78.6909 146.33C78.6269 146.448 78.5282 146.506 78.3949 146.506C78.3149 146.506 78.2242 146.477 78.1229 146.418C78.0216 146.36 77.8962 146.296 77.7469 146.226C77.6029 146.152 77.4296 146.085 77.2269 146.026C77.0242 145.962 76.7842 145.93 76.5069 145.93C76.2669 145.93 76.0509 145.962 75.8589 146.026C75.6669 146.085 75.5016 146.168 75.3629 146.274C75.2296 146.381 75.1256 146.506 75.0509 146.65C74.9816 146.789 74.9469 146.941 74.9469 147.106C74.9469 147.314 75.0056 147.488 75.1229 147.626C75.2456 147.765 75.4056 147.885 75.6029 147.986C75.8002 148.088 76.0242 148.178 76.2749 148.258C76.5256 148.333 76.7816 148.416 77.0429 148.506C77.3096 148.592 77.5682 148.688 77.8189 148.794C78.0696 148.901 78.2936 149.034 78.4909 149.194C78.6882 149.354 78.8456 149.552 78.9629 149.786C79.0856 150.016 79.1469 150.293 79.1469 150.618C79.1469 150.992 79.0802 151.338 78.9469 151.658C78.8136 151.973 78.6162 152.248 78.3549 152.482C78.0936 152.712 77.7736 152.893 77.3949 153.026C77.0162 153.16 76.5789 153.226 76.0829 153.226C75.5176 153.226 75.0056 153.136 74.5469 152.954C74.0882 152.768 73.6989 152.53 73.3789 152.242L73.7149 151.698C73.7576 151.629 73.8082 151.576 73.8669 151.538C73.9256 151.501 74.0002 151.482 74.0909 151.482C74.1869 151.482 74.2882 151.52 74.3949 151.594C74.5016 151.669 74.6296 151.752 74.7789 151.842C74.9336 151.933 75.1202 152.016 75.3389 152.09C75.5576 152.165 75.8296 152.202 76.1549 152.202C76.4322 152.202 76.6749 152.168 76.8829 152.098C77.0909 152.024 77.2642 151.925 77.4029 151.802C77.5416 151.68 77.6429 151.538 77.7069 151.378C77.7762 151.218 77.8109 151.048 77.8109 150.866C77.8109 150.642 77.7496 150.458 77.6269 150.314C77.5096 150.165 77.3522 150.04 77.1549 149.938C76.9576 149.832 76.7309 149.741 76.4749 149.666C76.2242 149.586 75.9656 149.504 75.6989 149.418C75.4376 149.333 75.1789 149.237 74.9229 149.13C74.6722 149.018 74.4482 148.88 74.2509 148.714C74.0536 148.549 73.8936 148.346 73.7709 148.106C73.6536 147.861 73.5949 147.565 73.5949 147.218C73.5949 146.909 73.6589 146.613 73.7869 146.33C73.9149 146.042 74.1016 145.792 74.3469 145.578C74.5922 145.36 74.8936 145.186 75.2509 145.058C75.6082 144.93 76.0162 144.866 76.4749 144.866C77.0082 144.866 77.4856 144.952 77.9069 145.122C78.3336 145.288 78.7016 145.517 79.0109 145.81L78.6909 146.33ZM92.0688 144.994L89.4448 153.098H88.3168C88.1781 153.098 88.0821 153.008 88.0288 152.826L86.2368 147.33C86.1941 147.208 86.1594 147.085 86.1328 146.962C86.1061 146.834 86.0794 146.709 86.0528 146.586C86.0261 146.709 85.9994 146.834 85.9728 146.962C85.9461 147.085 85.9114 147.21 85.8688 147.338L84.0448 152.826C83.9968 153.008 83.8901 153.098 83.7248 153.098H82.6528L80.0288 144.994H81.1488C81.2608 144.994 81.3541 145.024 81.4288 145.082C81.5088 145.141 81.5621 145.21 81.5888 145.29L83.1408 150.506C83.2314 150.89 83.3034 151.253 83.3568 151.594C83.4048 151.418 83.4528 151.24 83.5008 151.058C83.5541 150.877 83.6101 150.693 83.6688 150.506L85.3808 145.258C85.4074 145.178 85.4528 145.112 85.5168 145.058C85.5861 145.005 85.6688 144.978 85.7648 144.978H86.3888C86.4954 144.978 86.5834 145.005 86.6528 145.058C86.7221 145.112 86.7701 145.178 86.7968 145.258L88.4688 150.506C88.5274 150.693 88.5808 150.877 88.6288 151.058C88.6768 151.24 88.7221 151.418 88.7648 151.594C88.7914 151.418 88.8234 151.242 88.8608 151.066C88.9034 150.885 88.9488 150.698 88.9968 150.506L90.5808 145.29C90.6074 145.205 90.6581 145.136 90.7328 145.082C90.8074 145.024 90.8954 144.994 90.9968 144.994H92.0688ZM96.7619 144.866C97.3539 144.866 97.8872 144.965 98.3619 145.162C98.8366 145.36 99.2419 145.64 99.5779 146.002C99.9139 146.365 100.17 146.805 100.346 147.322C100.527 147.834 100.618 148.408 100.618 149.042C100.618 149.682 100.527 150.258 100.346 150.77C100.17 151.282 99.9139 151.72 99.5779 152.082C99.2419 152.445 98.8366 152.725 98.3619 152.922C97.8872 153.114 97.3539 153.21 96.7619 153.21C96.1646 153.21 95.6259 153.114 95.1459 152.922C94.6712 152.725 94.2659 152.445 93.9299 152.082C93.5939 151.72 93.3352 151.282 93.1539 150.77C92.9779 150.258 92.8899 149.682 92.8899 149.042C92.8899 148.408 92.9779 147.834 93.1539 147.322C93.3352 146.805 93.5939 146.365 93.9299 146.002C94.2659 145.64 94.6712 145.36 95.1459 145.162C95.6259 144.965 96.1646 144.866 96.7619 144.866ZM96.7619 152.098C97.5619 152.098 98.1592 151.832 98.5539 151.298C98.9486 150.76 99.1459 150.01 99.1459 149.05C99.1459 148.085 98.9486 147.333 98.5539 146.794C98.1592 146.256 97.5619 145.986 96.7619 145.986C96.3566 145.986 96.0019 146.056 95.6979 146.194C95.3992 146.333 95.1486 146.533 94.9459 146.794C94.7486 147.056 94.5992 147.378 94.4979 147.762C94.4019 148.141 94.3539 148.57 94.3539 149.05C94.3539 150.01 94.5512 150.76 94.9459 151.298C95.3459 151.832 95.9512 152.098 96.7619 152.098ZM103.776 146.618C104.032 146.064 104.347 145.632 104.72 145.322C105.093 145.008 105.549 144.85 106.088 144.85C106.259 144.85 106.421 144.869 106.576 144.906C106.736 144.944 106.877 145.002 107 145.082L106.896 146.146C106.864 146.28 106.784 146.346 106.656 146.346C106.581 146.346 106.472 146.33 106.328 146.298C106.184 146.266 106.021 146.25 105.84 146.25C105.584 146.25 105.355 146.288 105.152 146.362C104.955 146.437 104.776 146.549 104.616 146.698C104.461 146.842 104.32 147.024 104.192 147.242C104.069 147.456 103.957 147.701 103.856 147.978V153.098H102.424V144.994H103.24C103.395 144.994 103.501 145.024 103.56 145.082C103.619 145.141 103.659 145.242 103.68 145.386L103.776 146.618ZM113.22 146.922C112.953 146.565 112.665 146.317 112.356 146.178C112.046 146.034 111.7 145.962 111.316 145.962C110.564 145.962 109.985 146.232 109.58 146.77C109.174 147.309 108.972 148.077 108.972 149.074C108.972 149.602 109.017 150.056 109.108 150.434C109.198 150.808 109.332 151.117 109.508 151.362C109.684 151.602 109.9 151.778 110.156 151.89C110.412 152.002 110.702 152.058 111.028 152.058C111.497 152.058 111.905 151.952 112.252 151.738C112.604 151.525 112.926 151.224 113.22 150.834V146.922ZM114.644 141.314V153.098H113.796C113.593 153.098 113.465 153 113.412 152.802L113.284 151.818C112.937 152.234 112.542 152.57 112.1 152.826C111.657 153.082 111.145 153.21 110.564 153.21C110.1 153.21 109.678 153.122 109.3 152.946C108.921 152.765 108.598 152.501 108.332 152.154C108.065 151.808 107.86 151.376 107.716 150.858C107.572 150.341 107.5 149.746 107.5 149.074C107.5 148.477 107.58 147.922 107.74 147.41C107.9 146.893 108.129 146.445 108.428 146.066C108.726 145.688 109.092 145.392 109.524 145.178C109.961 144.96 110.452 144.85 110.996 144.85C111.492 144.85 111.916 144.936 112.268 145.106C112.625 145.272 112.942 145.504 113.22 145.802V141.314H114.644Z" fill="black" fill-opacity="0.3"/>
<defs>
<filter id="filter0_d" x="0.205627" y="0.94043" width="351.572" height="256.889" filterUnits="userSpaceOnUse" color-interpolation-filters="sRGB">
<feFlood flood-opacity="0" result="BackgroundImageFix"/>
<feColorMatrix in="SourceAlpha" type="matrix" values="0 0 0 0 0 0 0 0 0 0 0 0 0 0 0 0 0 0 127 0"/>
<feOffset dy="4"/>
<feGaussianBlur stdDeviation="12"/>
<feColorMatrix type="matrix" values="0 0 0 0 0 0 0 0 0 0 0 0 0 0 0 0 0 0 0.05 0"/>
<feBlend mode="normal" in2="BackgroundImageFix" result="effect1_dropShadow"/>
<feBlend mode="normal" in="SourceGraphic" in2="effect1_dropShadow" result="shape"/>
</filter>
</defs>
</svg>
