<svg width="420" height="335" viewBox="0 0 420 335" fill="none" xmlns="http://www.w3.org/2000/svg">
<path d="M174.411 335C191.853 335 205.993 331.414 205.993 326.991C205.993 322.567 191.853 318.981 174.411 318.981C156.968 318.981 142.828 322.567 142.828 326.991C142.828 331.414 156.968 335 174.411 335Z" fill="#F2F2F2"/>
<path d="M176.768 246.427C194.21 246.427 208.35 242.841 208.35 238.417C208.35 233.994 194.21 230.408 176.768 230.408C159.325 230.408 145.185 233.994 145.185 238.417C145.185 242.841 159.325 246.427 176.768 246.427Z" fill="#F2F2F2"/>
<path d="M31.5825 250.196C49.025 250.196 63.165 246.61 63.165 242.187C63.165 237.763 49.025 234.177 31.5825 234.177C14.14 234.177 0 237.763 0 242.187C0 246.61 14.14 250.196 31.5825 250.196Z" fill="#F2F2F2"/>
<path d="M191.201 1.88454H10.6626V8.71598H191.201V1.88454Z" fill="#F5F5F5"/>
<path d="M194.03 0H7.36296V228.971H194.03V0Z" fill="url(#paint0_linear)"/>
<path d="M191.201 8.71599H10.6626V225.202H191.201V8.71599Z" fill="white"/>
<path d="M14.3771 7.06701C15.2883 7.06701 16.0269 6.32874 16.0269 5.41804C16.0269 4.50734 15.2883 3.76907 14.3771 3.76907C13.4659 3.76907 12.7273 4.50734 12.7273 5.41804C12.7273 6.32874 13.4659 7.06701 14.3771 7.06701Z" fill="#FF5252"/>
<path d="M18.9118 7.06701C19.823 7.06701 20.5616 6.32874 20.5616 5.41804C20.5616 4.50734 19.823 3.76907 18.9118 3.76907C18.0006 3.76907 17.262 4.50734 17.262 5.41804C17.262 6.32874 18.0006 7.06701 18.9118 7.06701Z" fill="#FFFF00"/>
<path d="M23.4512 7.06701C24.3624 7.06701 25.101 6.32874 25.101 5.41804C25.101 4.50734 24.3624 3.76907 23.4512 3.76907C22.54 3.76907 21.8013 4.50734 21.8013 5.41804C21.8013 6.32874 22.54 7.06701 23.4512 7.06701Z" fill="#69F0AE"/>
<g opacity="0.2">
<path opacity="0.2" d="M86.0835 16.9608H15.8478V21.201H86.0835V16.9608Z" fill="#6C63FF"/>
</g>
<path d="M136.05 34.3928H65.8141V38.633H136.05V34.3928Z" fill="#F5F5F5"/>
<path opacity="0.5" d="M86.0835 171.022H15.8478V175.262H86.0835V171.022Z" fill="#6C63FF"/>
<path d="M119.08 170.551H95.5111V175.733H119.08V170.551Z" fill="url(#paint1_linear)"/>
<path d="M119.08 196.934H95.5111V202.117H119.08V196.934Z" fill="url(#paint2_linear)"/>
<path d="M167.161 196.934H143.592V202.117H167.161V196.934Z" fill="url(#paint3_linear)"/>
<path d="M118.609 171.022H96.4539V175.262H118.609V171.022Z" fill="#6C63FF"/>
<path d="M118.609 197.405H96.4539V201.645H118.609V197.405Z" fill="#6C63FF"/>
<path d="M166.218 197.405H144.063V201.645H166.218V197.405Z" fill="#6C63FF"/>
<path d="M86.0835 184.213H15.8478V188.454H86.0835V184.213Z" fill="#F5F5F5"/>
<path opacity="0.5" d="M166.69 184.213H96.4539V188.454H166.69V184.213Z" fill="#6C63FF"/>
<path d="M166.69 210.597H96.4539V214.837H166.69V210.597Z" fill="#F5F5F5"/>
<path opacity="0.5" d="M86.0835 197.405H15.8478V201.645H86.0835V197.405Z" fill="#6C63FF"/>
<path d="M86.0835 210.597H15.8478V214.837H86.0835V210.597Z" fill="#F5F5F5"/>
<path d="M105.41 41.4598H65.8141V45.7H105.41V41.4598Z" fill="#F5F5F5"/>
<path d="M126.151 41.4598H112.481V45.7H126.151V41.4598Z" fill="#F5F5F5"/>
<path d="M105.41 55.5938H65.8141V59.834H105.41V55.5938Z" fill="#F5F5F5"/>
<path d="M126.151 55.5938H112.481V59.834H126.151V55.5938Z" fill="#F5F5F5"/>
<path d="M136.05 48.5268H65.8141V52.767H136.05V48.5268Z" fill="#F5F5F5"/>
<g opacity="0.2">
<path opacity="0.2" d="M185.073 16.9608H114.838V21.201H185.073V16.9608Z" fill="#6C63FF"/>
</g>
<path d="M162.919 33.9217H154.434V39.1041H162.919V33.9217Z" fill="url(#paint4_linear)"/>
<path d="M162.919 40.9887H154.434V46.1712H162.919V40.9887Z" fill="url(#paint5_linear)"/>
<path d="M162.919 48.0557H154.434V53.2382H162.919V48.0557Z" fill="url(#paint6_linear)"/>
<path d="M162.447 34.3928H154.905V38.633H162.447V34.3928Z" fill="#FF5252"/>
<path d="M162.447 41.4598H154.905V45.7H162.447V41.4598Z" fill="#FF9800"/>
<path d="M162.447 48.5268H154.905V52.767H162.447V48.5268Z" fill="#69F0AE"/>
<path d="M162.919 55.1227H154.434V60.3052H162.919V55.1227Z" fill="url(#paint7_linear)"/>
<path d="M162.447 55.5938H154.905V59.834H162.447V55.5938Z" fill="#6C63FF"/>
<path d="M187.43 85.7464H14.4337V156.417H187.43V85.7464Z" fill="url(#paint8_linear)"/>
<path opacity="0.5" d="M185.073 87.1598H15.8478V154.061H185.073V87.1598Z" fill="#6C63FF"/>
<path opacity="0.5" d="M21.033 92.3423H185.073V87.1598H15.8478V154.061H21.033V92.3423Z" fill="white"/>
<path d="M189.002 81.3066L15.3094 97.1056L21.8032 168.423L195.496 152.624L189.002 81.3066Z" fill="url(#paint9_linear)"/>
<path d="M186.824 83.3914L18.2949 98.7207L24.3615 165.346L192.891 150.017L186.824 83.3914Z" fill="white"/>
<path opacity="0.5" d="M30.8754 153.397L27.9529 116.285C27.9529 116.285 43.037 100.267 73.4882 112.139C103.939 124.012 118.298 115.63 123.247 107.612C128.197 99.5931 153.887 90.6509 162.211 104.064C170.536 117.477 180.52 102.396 180.52 102.396L183.895 139.46L30.8754 153.397Z" fill="#6C63FF"/>
<path d="M46.2094 108.201L46.464 111.018" stroke="#6C63FF" stroke-miterlimit="10"/>
<path d="M46.9589 116.417L49.6646 146.127" stroke="#6C63FF" stroke-miterlimit="10" stroke-dasharray="11.51 11.51"/>
<path d="M49.9098 148.827L50.169 151.639" stroke="#6C63FF" stroke-miterlimit="10"/>
<path d="M75.1946 112.799L75.4539 115.612" stroke="#6C63FF" stroke-miterlimit="10"/>
<path d="M76.0101 121.741L77.9663 143.182" stroke="#6C63FF" stroke-miterlimit="10" stroke-dasharray="13.06 13.06"/>
<path d="M78.2444 146.245L78.499 149.062" stroke="#6C63FF" stroke-miterlimit="10"/>
<path d="M104.769 117.831L105.052 120.643" stroke="#6C63FF" stroke-miterlimit="10"/>
<path d="M105.509 125.237L107.102 141.303" stroke="#6C63FF" stroke-miterlimit="10" stroke-dasharray="9.79 9.79"/>
<path d="M107.333 143.597L107.611 146.414" stroke="#6C63FF" stroke-miterlimit="10"/>
<path d="M131.35 101.218L131.605 104.036" stroke="#6C63FF" stroke-miterlimit="10"/>
<path d="M132.086 109.327L134.739 138.438" stroke="#6C63FF" stroke-miterlimit="10" stroke-dasharray="11.28 11.28"/>
<path d="M134.98 141.081L135.239 143.899" stroke="#6C63FF" stroke-miterlimit="10"/>
<path d="M150.535 97.3316L150.79 100.144" stroke="#6C63FF" stroke-miterlimit="10"/>
<path d="M151.299 105.741L154.104 136.521" stroke="#6C63FF" stroke-miterlimit="10" stroke-dasharray="11.93 11.93"/>
<path d="M154.358 139.319L154.618 142.132" stroke="#6C63FF" stroke-miterlimit="10"/>
<path d="M46.3344 110.366C47.6307 110.248 48.5859 109.102 48.4679 107.806C48.35 106.51 47.2035 105.556 45.9071 105.674C44.6108 105.792 43.6556 106.937 43.7735 108.233C43.8915 109.529 45.038 110.483 46.3344 110.366Z" fill="#FF9800"/>
<path d="M75.1827 115.313C76.4791 115.195 77.4343 114.049 77.3163 112.753C77.1984 111.457 76.0518 110.503 74.7555 110.621C73.4592 110.738 72.5039 111.884 72.6219 113.18C72.7399 114.476 73.8864 115.43 75.1827 115.313Z" fill="#FF5252"/>
<path d="M104.976 120.17C106.272 120.052 107.228 118.906 107.11 117.61C106.992 116.315 105.845 115.36 104.549 115.478C103.252 115.596 102.297 116.742 102.415 118.037C102.533 119.333 103.68 120.288 104.976 120.17Z" fill="#69F0AE"/>
<path d="M131.476 104.513C133.291 104.348 134.628 102.743 134.463 100.93C134.298 99.1157 132.693 97.779 130.878 97.9441C129.063 98.1092 127.726 99.7135 127.891 101.527C128.056 103.341 129.661 104.678 131.476 104.513Z" fill="url(#paint10_linear)"/>
<path d="M151.021 100.845C152.836 100.68 154.173 99.0754 154.008 97.2615C153.843 95.4476 152.238 94.111 150.423 94.276C148.608 94.4411 147.271 96.0454 147.436 97.8593C147.601 99.6732 149.206 101.01 151.021 100.845Z" fill="url(#paint11_linear)"/>
<path d="M131.39 103.574C132.687 103.457 133.642 102.311 133.524 101.015C133.406 99.7193 132.26 98.7646 130.963 98.8825C129.667 99.0004 128.712 100.146 128.83 101.442C128.948 102.738 130.094 103.692 131.39 103.574Z" fill="#6C63FF"/>
<path d="M150.935 99.9064C152.232 99.7885 153.187 98.6426 153.069 97.3469C152.951 96.0513 151.805 95.0965 150.508 95.2144C149.212 95.3324 148.257 96.4783 148.375 97.7739C148.493 99.0696 149.639 100.024 150.935 99.9064Z" fill="#6C63FF"/>
<path d="M180.809 105.704C182.105 105.586 183.06 104.44 182.942 103.144C182.824 101.849 181.678 100.894 180.382 101.012C179.085 101.13 178.13 102.276 178.248 103.571C178.366 104.867 179.512 105.822 180.809 105.704Z" fill="#69F0AE"/>
<g opacity="0.2">
<path opacity="0.2" d="M185.375 150.16L185.408 150.268C185.769 150.066 185.375 150.16 185.375 150.16Z" fill="url(#paint12_linear)"/>
</g>
<g opacity="0.2">
<path opacity="0.2" d="M181.472 229.301L189.146 228.062L188.09 223.351V223.285H188.062L182.622 198.315V180.105C182.622 179.874 182.609 179.643 182.585 179.413C190.711 168.643 185.884 151.743 185.413 150.268C185.328 150.311 185.201 150.367 185.022 150.438C184.963 149.778 184.838 149.127 184.649 148.492C184.649 148.492 182.292 146.994 181.005 148.921C179.883 150.603 180.718 151.63 180.949 151.87L180.789 151.922C181.15 152.489 181.402 153.119 181.533 153.778C181.459 153.616 181.374 153.458 181.279 153.307C180.982 153.255 180.807 153.208 180.807 153.208L180.751 153.156L180.591 153.208C181.406 154.4 181.694 156.506 181.656 159.003C181.374 158.613 181.059 158.249 180.713 157.915C179.223 156.492 177.258 155.673 175.198 155.616H174.807C174.593 155.616 174.379 155.63 174.166 155.658H174.005L173.737 155.696L173.43 155.752L173.209 155.799L172.827 155.903L172.686 155.945C172.525 155.997 172.37 156.049 172.214 156.11C171.697 156.362 171.155 156.557 170.597 156.695C170.522 156.695 170.446 156.695 170.366 156.718C169.736 156.762 169.111 156.584 168.599 156.214L168.429 156.082C168.365 156.027 168.303 155.969 168.245 155.908C168.181 156.071 168.154 156.246 168.165 156.421C168.2 156.837 168.399 157.221 168.716 157.491C168.806 157.568 168.904 157.634 169.009 157.689C169.164 157.77 169.334 157.818 169.508 157.83H169.688H169.645C169.537 157.882 169.428 157.929 169.315 157.971H169.292C169.169 158.014 169.051 158.051 168.924 158.084C168.306 158.24 167.661 158.25 167.038 158.113L166.836 158.066C166.737 158.037 166.633 158.009 166.539 157.976C166.57 158.047 166.604 158.116 166.642 158.183L166.68 158.245L166.765 158.376L166.817 158.442L166.911 158.56L166.968 158.621L167.086 158.739L167.133 158.782L167.307 158.928L167.368 158.97L167.496 159.06L167.58 159.111L167.694 159.177L167.788 159.225L167.906 159.276L168.005 159.319L168.137 159.366L168.302 159.413L168.424 159.446H168.542H168.651H168.773H169.244C169.488 159.425 169.726 159.366 169.951 159.272L169.518 159.451L169.301 159.526L169.079 159.606L168.858 159.672L168.632 159.738L168.41 159.795L168.174 159.851L167.958 159.894L167.708 159.936L167.5 159.969L167.232 160.002H167.038H166.732H166.572H166.1C166.361 160.078 166.603 160.206 166.812 160.379C166.947 160.476 167.095 160.556 167.25 160.614C167.32 160.635 167.391 160.65 167.463 160.661H167.524H167.675H168.311H168.519C168.948 160.705 169.364 160.838 169.739 161.053C169.938 161.18 170.115 161.339 170.263 161.524C170.197 161.632 170.131 161.736 170.074 161.849C170.017 161.962 169.975 162.037 169.928 162.136C169.834 162.331 169.75 162.53 169.678 162.734C169.41 163.466 169.272 164.24 169.273 165.019C169.273 165.166 169.273 165.307 169.273 165.448C169.273 165.486 169.273 165.528 169.273 165.566C169.273 165.679 169.285 165.792 169.31 165.905V165.995C169.329 166.133 169.354 166.27 169.386 166.405V166.485C169.411 166.598 169.439 166.709 169.471 166.819L169.499 166.918C169.578 167.185 169.674 167.446 169.787 167.7L169.82 167.776C169.873 167.892 169.928 168.005 169.984 168.115V168.148C170.054 168.273 170.126 168.398 170.201 168.52V168.548C170.27 168.661 170.344 168.771 170.423 168.878L170.451 168.916C170.62 169.149 170.805 169.371 171.003 169.58C171.516 170.121 172.117 170.571 172.78 170.913C172.757 171.014 172.74 171.117 172.728 171.22C172.722 171.326 172.722 171.433 172.728 171.54V174.028C172.587 174.103 172.448 174.183 172.313 174.268C166.407 171.587 157.611 152.596 157.611 152.596H157.399C158.257 151.955 157.399 149.166 157.399 149.166C156.895 148.866 156.332 148.679 155.749 148.619H155.277H155.193H155.131H155.046H154.99L154.896 148.648H154.848L154.707 148.699L154.575 148.761L154.528 148.784L154.438 148.836L154.377 149.123L154.292 149.18L154.24 149.222L154.16 149.288L154.108 149.335L154.028 149.411L153.981 149.463L153.901 149.557L153.863 149.604L153.745 149.764C152.459 151.691 153.745 152.765 153.745 152.765C153.663 153.508 153.623 154.256 153.628 155.003C153.533 168.883 168.396 179.639 169.155 180.176C168.82 181.043 166.058 188.722 169.188 198.31C169.198 198.333 169.21 198.355 169.226 198.376C165.662 201.658 163.017 205.814 161.552 210.431C160.087 215.048 159.853 219.967 160.873 224.703L160.934 224.99H161.071C161.057 225.054 161.039 225.117 161.019 225.179C160.982 225.292 160.937 225.402 160.882 225.508C160.788 225.69 160.672 225.859 160.538 226.013C160.392 226.182 160.222 226.352 160.043 226.526L159.855 226.705C159.105 227.421 158.346 228.118 158.912 228.401H167.024V224.863H167.166C167.166 224.863 167.109 224.755 167.024 224.543V224.505H166.996C166.572 223.412 165.582 220.029 167.166 214.818C169.094 208.387 176.593 205.174 176.593 205.174L176.73 205.645H176.702L182.585 224.962C182.585 225.037 182.584 225.113 182.561 225.193C182.534 225.375 182.492 225.555 182.434 225.73C182.389 225.865 182.335 225.997 182.273 226.126C181.91 226.875 181.283 227.756 181.01 228.415C180.971 228.506 180.938 228.599 180.911 228.693C180.879 228.8 180.868 228.912 180.878 229.023C180.886 229.094 180.914 229.161 180.958 229.216C181.002 229.272 181.061 229.315 181.128 229.339H181.236L181.463 229.301H181.472ZM179.2 174.306C179.052 174.224 178.895 174.147 178.729 174.075V171.738C178.727 171.559 178.71 171.381 178.677 171.205C179.185 170.963 179.66 170.658 180.091 170.296C179.808 171.738 179.492 173.118 179.205 174.306H179.2Z" fill="url(#paint13_linear)"/>
</g>
<path d="M153.613 154.819C153.613 154.819 152.199 153.632 153.613 151.493C155.028 149.354 157.653 151.022 157.653 151.022C157.653 151.022 158.596 154.108 157.653 154.819C156.71 155.531 153.613 154.819 153.613 154.819Z" fill="#CA7070"/>
<path d="M168.302 234.281H161.754C161.778 234.589 161.736 234.899 161.629 235.189C161.523 235.48 161.355 235.743 161.137 235.963C160.255 236.981 158.483 238.21 159.317 238.629H168.302V234.281Z" fill="#00695C"/>
<path opacity="0.2" d="M161.613 235.963C161.831 235.743 161.999 235.48 162.105 235.189C162.212 234.899 162.255 234.589 162.23 234.281H161.759C161.783 234.589 161.741 234.899 161.634 235.189C161.527 235.48 161.359 235.743 161.141 235.963C160.26 236.981 158.488 238.21 159.322 238.629H159.793C158.959 238.21 160.731 236.985 161.613 235.963Z" fill="white"/>
<path d="M191.616 232.933L185.488 233.928C185.658 234.657 185.559 235.423 185.21 236.085C184.541 237.499 183.037 239.261 183.942 239.642L192.813 238.229L191.616 232.933Z" fill="#00695C"/>
<path d="M188.628 151.922C188.628 151.922 195.637 174.023 183.881 186.258L180.487 183.662C180.487 183.662 187.435 159.54 183.546 153.877C190.409 151.592 188.628 151.922 188.628 151.922Z" fill="#00695C"/>
<path d="M183.782 153.872C183.782 153.872 182.368 152.685 183.782 150.546C185.196 148.407 187.822 150.075 187.822 150.075C187.822 150.075 188.764 153.161 187.822 153.872C186.879 154.584 183.782 153.872 183.782 153.872Z" fill="#CA7070"/>
<path opacity="0.2" d="M185.681 236.09C186.031 235.426 186.13 234.658 185.96 233.928L191.616 232.985V232.91L185.488 233.928C185.658 234.657 185.559 235.423 185.21 236.085C184.541 237.499 183.037 239.261 183.942 239.642L184.314 239.581C183.64 239.11 185.04 237.419 185.681 236.09Z" fill="white"/>
<path d="M181.288 175.837C181.288 174 179.799 172.511 177.963 172.511C176.126 172.511 174.637 174 174.637 175.837V179.036C174.637 180.873 176.126 182.362 177.963 182.362C179.799 182.362 181.288 180.873 181.288 179.036V175.837Z" fill="#CA7070"/>
<path opacity="0.2" d="M180.963 185.085C180.963 185.085 187.826 161.26 184.088 155.404C183.758 155.342 183.546 155.295 183.546 155.295L183.485 155.239L183.31 155.295C187.199 160.949 180.251 185.08 180.251 185.08L183.645 187.676L183.942 187.356L180.963 185.085Z" fill="white"/>
<path d="M178.083 175.954C182.149 175.954 185.446 172.66 185.446 168.595C185.446 164.531 182.149 161.236 178.083 161.236C174.016 161.236 170.72 164.531 170.72 168.595C170.72 172.66 174.016 175.954 178.083 175.954Z" fill="#CA7070"/>
<path opacity="0.2" d="M175.467 179.04V175.837C175.467 175.602 175.492 175.369 175.542 175.139C174.104 174.401 172.949 173.211 172.256 171.752C171.562 170.292 171.368 168.645 171.703 167.065C172.039 165.485 172.886 164.059 174.113 163.007C175.34 161.955 176.879 161.336 178.493 161.246H178.078C176.427 161.245 174.823 161.8 173.524 162.82C172.226 163.841 171.309 165.268 170.92 166.872C170.531 168.476 170.693 170.165 171.38 171.666C172.067 173.167 173.239 174.394 174.708 175.149C174.658 175.378 174.633 175.612 174.632 175.846V179.05C174.628 179.523 174.726 179.991 174.918 180.423C175.111 180.855 175.395 181.241 175.75 181.554C176.105 181.866 176.523 182.099 176.976 182.236C177.429 182.373 177.906 182.411 178.375 182.348C177.571 182.244 176.833 181.851 176.297 181.242C175.762 180.633 175.467 179.851 175.467 179.04Z" fill="white"/>
<path d="M185.564 205.273C185.564 205.273 171.361 206.875 170.838 205.273C167.156 193.994 170.838 185.094 170.838 185.094C170.838 183.143 171.613 181.271 172.994 179.891C174.375 178.511 176.248 177.735 178.201 177.735C180.153 177.735 182.026 178.511 183.407 179.891C184.788 181.271 185.564 183.143 185.564 185.094V205.273Z" fill="#00695C"/>
<path d="M185.564 205.273L191.979 234.714H185.564L178.912 212.873C178.912 212.873 170.597 216.434 168.462 223.558C166.327 230.681 168.462 234.714 168.462 234.714H161.57L161.5 234.394C160.366 229.148 160.631 223.697 162.27 218.586C163.908 213.475 166.861 208.884 170.833 205.273" fill="#263238"/>
<path opacity="0.2" d="M171.667 205.273C167.986 193.994 171.667 185.095 171.667 185.095C171.667 183.225 172.379 181.425 173.658 180.061C174.937 178.697 176.688 177.87 178.554 177.75C178.399 177.75 178.238 177.75 178.083 177.75C176.13 177.75 174.257 178.525 172.876 179.905C171.496 181.285 170.72 183.157 170.72 185.109C170.72 185.109 167.038 194.013 170.72 205.287C170.908 205.862 172.851 206.022 175.264 205.999C173.303 205.956 171.818 205.768 171.667 205.273Z" fill="white"/>
<path d="M170.72 184.972C170.72 184.972 151.719 171.677 153.618 154.819H157.894C157.894 154.819 168.104 176.92 174.646 179.04C181.189 181.161 170.72 184.972 170.72 184.972Z" fill="#00695C"/>
<g opacity="0.2">
<path opacity="0.2" d="M179.035 213.391L185.564 234.832H186.506L179.855 212.99C179.855 212.99 179.549 213.122 179.035 213.391Z" fill="white"/>
<path opacity="0.2" d="M171.785 205.391H170.842C166.87 209.002 163.917 213.593 162.279 218.704C160.641 223.815 160.375 229.266 161.509 234.512L161.58 234.832H162.523L162.452 234.512C161.318 229.266 161.584 223.815 163.222 218.704C164.86 213.593 167.813 209.002 171.785 205.391Z" fill="white"/>
</g>
<path opacity="0.2" d="M154.33 155.06H153.618C151.733 171.917 170.72 185.212 170.72 185.212L171.191 185.033C168.99 183.408 152.553 170.796 154.33 155.06Z" fill="white"/>
<path d="M172.209 165.307C172.62 166.254 172.908 167.25 173.067 168.27C173.539 170.334 174.604 172.393 176.438 173.453C177.453 174.003 178.583 174.311 179.737 174.353C181.491 174.461 183.391 174.122 184.63 172.878C185.402 172.035 185.92 170.992 186.125 169.867C186.495 168.207 186.444 166.479 185.976 164.843C185.507 163.207 184.636 161.715 183.442 160.501C182.217 159.318 180.681 158.505 179.013 158.156C177.345 157.807 175.613 157.935 174.015 158.527C173.444 158.806 172.845 159.024 172.228 159.177C171.756 159.253 171.273 159.214 170.819 159.063C170.365 158.912 169.954 158.654 169.622 158.311C169.545 158.558 169.528 158.82 169.572 159.075C169.616 159.33 169.72 159.571 169.874 159.779C170.029 159.986 170.231 160.154 170.463 160.269C170.695 160.384 170.951 160.443 171.21 160.44C170.665 160.701 170.074 160.853 169.471 160.885C168.867 160.917 168.263 160.83 167.694 160.629C168.016 161.308 168.585 161.841 169.284 162.12C169.983 162.399 170.762 162.403 171.465 162.131C170.13 162.725 168.683 163.021 167.222 162.998C167.529 162.998 168.127 163.564 168.5 163.677C168.967 163.751 169.44 163.784 169.914 163.776C170.398 163.805 170.865 163.963 171.268 164.232C171.672 164.501 171.996 164.872 172.209 165.307Z" fill="#263238"/>
<g opacity="0.2">
<path opacity="0.2" d="M171.229 160.431C170.683 160.695 170.09 160.847 169.485 160.878C170.251 160.917 171.014 160.764 171.705 160.431C171.475 160.432 171.246 160.386 171.035 160.294C170.823 160.203 170.633 160.068 170.476 159.9C170.319 159.731 170.199 159.531 170.123 159.314C170.048 159.096 170.018 158.865 170.036 158.636C169.894 158.537 169.762 158.425 169.64 158.301C169.564 158.548 169.547 158.81 169.591 159.065C169.635 159.321 169.739 159.562 169.893 159.769C170.048 159.977 170.25 160.145 170.482 160.26C170.714 160.375 170.97 160.433 171.229 160.431Z" fill="white"/>
<path opacity="0.2" d="M172.719 159.182C173.335 159.029 173.934 158.811 174.505 158.532C175.407 158.176 176.364 157.983 177.333 157.962C176.206 157.925 175.083 158.119 174.034 158.532C173.463 158.811 172.864 159.029 172.247 159.182C172.162 159.182 172.077 159.182 171.993 159.21C172.235 159.232 172.479 159.223 172.719 159.182Z" fill="white"/>
<path opacity="0.2" d="M168.952 163.681C168.58 163.573 167.981 163.012 167.675 163.003C169.135 163.026 170.583 162.73 171.917 162.136C171.618 162.26 171.298 162.327 170.974 162.334C169.772 162.796 168.492 163.024 167.203 163.003C167.51 163.003 168.108 163.568 168.481 163.681C168.804 163.76 169.139 163.787 169.471 163.762C169.295 163.757 169.121 163.73 168.952 163.681Z" fill="white"/>
<path opacity="0.2" d="M180.223 174.357C179.068 174.316 177.939 174.008 176.923 173.458C175.09 172.388 174.043 170.329 173.553 168.275C173.394 167.255 173.105 166.259 172.695 165.312C172.478 164.874 172.149 164.502 171.74 164.235C171.331 163.967 170.859 163.814 170.371 163.79C170.136 163.772 169.899 163.772 169.664 163.79H169.895C170.383 163.814 170.855 163.967 171.264 164.235C171.672 164.502 172.002 164.874 172.219 165.312C172.629 166.259 172.918 167.255 173.077 168.275C173.548 170.339 174.613 172.397 176.447 173.458C177.463 174.008 178.592 174.316 179.747 174.357C180.02 174.357 180.294 174.357 180.572 174.357H180.223Z" fill="white"/>
<path opacity="0.2" d="M170.677 162.315C170.179 162.279 169.697 162.119 169.275 161.85C168.854 161.581 168.506 161.212 168.264 160.775C168.077 160.735 167.893 160.683 167.712 160.619C167.976 161.169 168.401 161.626 168.931 161.929C169.46 162.232 170.069 162.366 170.677 162.315Z" fill="white"/>
</g>
<path opacity="0.2" d="M154.09 154.819C154.09 154.819 152.675 153.632 154.09 151.493C154.277 151.187 154.535 150.93 154.841 150.742C155.148 150.555 155.494 150.442 155.853 150.414C155.416 150.363 154.974 150.437 154.578 150.628C154.182 150.82 153.849 151.12 153.618 151.493C152.204 153.632 153.618 154.819 153.618 154.819C154.536 155.025 155.473 155.129 156.413 155.13C155.632 155.092 154.854 154.988 154.09 154.819Z" fill="white"/>
<g opacity="0.2">
<path opacity="0.2" d="M17.4269 154.932L17.4646 154.805C17.4646 154.805 16.9838 154.711 17.4269 154.932Z" fill="url(#paint14_linear)"/>
</g>
<g opacity="0.2">
<path opacity="0.2" d="M61.8451 162.829C61.7997 162.679 61.743 162.532 61.6754 162.391C61.6754 162.343 61.6283 162.306 61.6047 162.263C61.562 162.179 61.5148 162.097 61.4633 162.018L61.369 161.896C61.3203 161.832 61.2684 161.771 61.2135 161.712L61.1051 161.604C61.0485 161.552 60.9919 161.505 60.9354 161.462L60.8175 161.378L60.629 161.265L60.5111 161.203L60.299 161.114L60.1906 161.071C60.09 161.037 59.9879 161.009 59.8842 160.987C59.1983 160.857 58.4926 160.876 57.8148 161.043C57.8148 161.043 55.8397 163.955 56.5987 165.001L56.3488 164.925C56.3488 164.925 41.6748 181.292 33.3973 184.331C33.1868 184.187 32.9684 184.052 32.7421 183.926V180.864C32.749 180.735 32.749 180.606 32.7421 180.477C32.7279 180.355 32.7074 180.234 32.6808 180.115L32.7421 180.082L32.9872 179.945L33.3407 179.728L33.567 179.582C33.7367 179.466 33.8938 179.344 34.0384 179.215L34.2222 179.055C34.3354 178.96 34.4438 178.861 34.5475 178.758L34.736 178.574C34.868 178.439 34.9937 178.301 35.1131 178.159L35.2451 177.999C35.3583 177.858 35.4667 177.713 35.5704 177.566L35.7024 177.368C35.7966 177.223 35.8862 177.076 35.971 176.925L36.0559 176.779C36.1596 176.586 36.2586 176.383 36.3434 176.176L36.4189 175.992C36.4848 175.826 36.5461 175.658 36.6027 175.488C36.6027 175.427 36.6451 175.37 36.6593 175.309C36.7253 175.088 36.7865 174.866 36.8337 174.635C36.8337 174.588 36.8337 174.546 36.8572 174.499C36.895 174.307 36.9248 174.112 36.9468 173.914C36.9468 173.849 36.9468 173.783 36.9468 173.717C36.9468 173.476 36.9845 173.245 36.9845 172.986C36.9847 171.153 36.3558 169.375 35.2027 167.95C35.8296 166.97 36.2397 166.39 36.2397 166.39C35.8626 166.131 35.4902 165.896 35.1226 165.665L34.7643 165.453C34.5192 165.307 34.2929 165.161 34.029 165.029L33.6189 164.812C33.3973 164.694 33.1805 164.581 32.9636 164.478L32.5441 164.284L31.9172 164.011L31.5071 163.846C31.2997 163.766 31.0923 163.691 30.8896 163.62L30.503 163.488C30.2909 163.422 30.0788 163.361 29.8714 163.305L29.5273 163.21C29.2916 163.154 29.0559 163.107 28.8249 163.06L28.5751 163.008C28.2593 162.951 27.9482 162.909 27.6323 162.881C25.7035 162.674 23.7541 162.973 21.9758 163.747C22.07 161.495 22.4471 159.639 23.2391 158.49L23.0458 158.424L22.9798 158.49C22.9798 158.49 22.7488 158.541 22.3859 158.607C22.2713 158.79 22.169 158.981 22.0795 159.177C22.2379 158.381 22.5432 157.62 22.9798 156.935L22.7865 156.869C23.0647 156.581 24.0734 155.342 22.7205 153.312C21.165 150.984 18.3179 152.794 18.3179 152.794C18.0921 153.562 17.9437 154.351 17.8748 155.149C17.6579 155.06 17.5024 154.994 17.4034 154.942C16.0394 159.753 15.2965 164.718 15.1926 169.717C10.0593 177 7.93806 187.752 7.52324 190.07L7.49024 190.253C7.46196 190.423 7.44782 190.513 7.44782 190.513L20.7926 190.824C20.7926 190.871 20.7926 190.913 20.7926 190.96V212.081L11.0774 232.618C11.0774 232.618 14.7731 232.736 20.3354 233.447L18.7987 244.429L18.2849 247.51H27.5333C28.5609 245.456 23.4229 244.429 23.4229 244.429H23.3098L25.3131 234.182C26.1993 234.33 27.1107 234.487 28.0471 234.653C29.4201 234.919 30.8118 235.076 32.2094 235.124C33.3665 235.165 34.5249 235.114 35.6741 234.973C36.3529 240.528 35.462 243.845 35.2923 244.396H35.2404L34.7266 247.477H43.9751C44.8707 245.687 41.0808 244.674 40.0956 244.448L40.138 244.146C40.6137 240.681 40.7354 237.177 40.501 233.687C41.6944 233.204 42.8071 232.541 43.8007 231.723L43.9279 231.61L43.9657 231.572L37.0788 212.255C38.3657 206.79 33.8876 201.052 36.2774 198.183C38.6673 195.313 37.2202 191.653 36.9374 191.026C43.4047 188.199 56.4761 181.132 60.1434 168.883C60.4128 168.022 60.6316 167.145 60.7987 166.259C60.7987 166.259 62.6465 165.509 61.8451 162.829Z" fill="url(#paint15_linear)"/>
</g>
<path d="M18.8929 158.518C18.8929 158.518 11.8835 180.619 23.6397 192.854L27.0337 190.258C27.0337 190.258 20.0855 166.136 23.9744 160.473C17.1111 158.188 18.8929 158.518 18.8929 158.518Z" fill="#FF5252"/>
<path d="M23.7387 160.468C23.7387 160.468 25.1529 159.281 23.7387 157.142C22.3246 155.003 19.699 156.671 19.699 156.671C19.699 156.671 18.7562 159.757 19.699 160.468C20.6417 161.18 23.7387 160.468 23.7387 160.468Z" fill="#F6B9AD"/>
<path d="M26.2323 185.632C26.2323 187.469 27.7212 188.958 29.5579 188.958C31.3946 188.958 32.8835 187.469 32.8835 185.632V182.433C32.8835 180.596 31.3946 179.106 29.5579 179.106C27.7212 179.106 26.2323 180.596 26.2323 182.433V185.632Z" fill="#F6B9AD"/>
<path opacity="0.2" d="M26.5576 191.681C26.5576 191.681 19.6943 167.856 23.4323 161.999C23.7623 161.938 23.9744 161.891 23.9744 161.891L24.0357 161.835L24.2101 161.891C20.3212 167.545 27.2694 191.676 27.2694 191.676L23.8754 194.272L23.5785 193.952L26.5576 191.681Z" fill="white"/>
<path d="M29.4377 182.55C33.5042 182.55 36.8007 179.256 36.8007 175.191C36.8007 171.127 33.5042 167.832 29.4377 167.832C25.3713 167.832 22.0747 171.127 22.0747 175.191C22.0747 179.256 25.3713 182.55 29.4377 182.55Z" fill="#F6B9AD"/>
<path opacity="0.2" d="M32.0539 185.636V182.433C32.0536 182.198 32.0283 181.964 31.9784 181.735C33.4163 180.997 34.5712 179.807 35.265 178.347C35.9587 176.888 36.1527 175.241 35.8171 173.661C35.4814 172.081 34.6348 170.655 33.4077 169.603C32.1807 168.551 30.6415 167.932 29.0276 167.842H29.4424C31.094 167.841 32.6979 168.396 33.9961 169.416C35.2944 170.436 36.2117 171.863 36.6007 173.468C36.9896 175.072 36.8275 176.761 36.1405 178.262C35.4535 179.763 34.2815 180.99 32.8128 181.745C32.8627 181.974 32.8879 182.208 32.8882 182.442V185.646C32.8925 186.119 32.7949 186.587 32.6021 187.019C32.4093 187.451 32.1258 187.837 31.7708 188.149C31.4158 188.462 30.9976 188.695 30.5446 188.832C30.0916 188.969 29.6144 189.007 29.1454 188.944C29.9495 188.839 30.688 188.446 31.2232 187.838C31.7585 187.229 32.0537 186.447 32.0539 185.636Z" fill="white"/>
<path d="M21.9569 211.869C21.9569 211.869 36.1596 213.471 36.6828 211.869C38.3798 206.687 33.8545 201.085 36.1172 198.347C38.4741 195.521 36.6828 191.69 36.6828 191.69C36.6828 189.739 35.9071 187.867 34.5263 186.487C33.1454 185.107 31.2726 184.331 29.3199 184.331C27.3671 184.331 25.4943 185.107 24.1135 186.487C22.7326 187.867 21.9569 189.739 21.9569 191.69V211.869Z" fill="#FF5252"/>
<path opacity="0.2" d="M36.136 198.347C38.4929 195.521 36.7017 191.69 36.7017 191.69C36.7017 189.739 35.926 187.867 34.5451 186.487C33.1643 185.107 31.2915 184.331 29.3387 184.331C29.1785 184.331 29.0229 184.331 28.8674 184.355C30.7336 184.473 32.4847 185.298 33.7648 186.66C35.0449 188.023 35.7579 189.821 35.7589 191.69C35.7589 191.69 37.5502 195.521 35.1933 198.347C32.9118 201.085 37.4559 206.682 35.7589 211.869C35.5987 212.364 34.1327 212.552 32.1859 212.58C34.5852 212.604 36.5179 212.444 36.7017 211.869C38.4175 206.677 33.8546 201.085 36.136 198.347Z" fill="white"/>
<path d="M33.6707 211.398C38.8559 218.743 41.1515 229.843 39.6667 240.519L39.6242 240.839H35.198C35.198 240.839 36.5697 236.801 35.198 229.683C34.3572 225.415 31.9662 221.609 28.4855 218.997L24.2148 240.839H20.095L24.2148 211.398H33.6707Z" fill="#F6B9AD"/>
<path d="M58.635 169.057C58.635 169.057 60.3461 168.341 59.6108 165.877C58.8754 163.413 55.8869 164.242 55.8869 164.242C55.8869 164.242 54.0721 166.913 54.7744 167.875C55.4768 168.836 58.635 169.057 58.635 169.057Z" fill="#F6B9AD"/>
<path d="M33.4397 192.878C33.4397 192.878 55.505 185.731 58.6303 169.057L54.5434 167.804C54.5434 167.804 38.3044 185.924 31.4458 186.051C24.5872 186.178 33.4397 192.878 33.4397 192.878Z" fill="#FF5252"/>
<path opacity="0.2" d="M57.8808 169.076L58.5643 169.283C55.4391 185.957 33.3737 193.104 33.3737 193.104L32.9825 192.798C35.5892 191.893 54.9677 184.628 57.8808 169.076Z" fill="white"/>
<g opacity="0.2">
<path opacity="0.2" d="M27.5381 218.997L23.2673 240.839H24.2101L28.3583 219.638C28.096 219.411 27.8222 219.197 27.5381 218.997Z" fill="white"/>
<path opacity="0.2" d="M33.6707 211.398H32.7279C37.9131 218.743 40.2088 229.843 38.7239 240.519L38.6815 240.839H39.6242L39.6667 240.519C41.1515 229.843 38.8653 218.743 33.6707 211.398Z" fill="white"/>
</g>
<path opacity="0.2" d="M58.1778 168.911C58.1778 168.911 59.8889 168.195 59.1535 165.731C59.0642 165.383 58.8938 165.061 58.6562 164.792C58.4186 164.522 58.1206 164.313 57.7865 164.181C58.219 164.26 58.6199 164.46 58.9422 164.759C59.2645 165.058 59.4948 165.442 59.6061 165.868C60.3414 168.327 58.6303 169.048 58.6303 169.048C57.6934 168.976 56.7671 168.802 55.868 168.529C56.626 168.721 57.3986 168.848 58.1778 168.911Z" fill="white"/>
<path d="M21.9569 211.068L13.0007 229.913C18.2239 230.174 23.422 230.804 28.5562 231.798C38.4552 233.683 43.169 228.971 43.169 228.971L36.7818 211.068H21.9569Z" fill="#263238"/>
<path d="M24.3327 240.75C24.3327 240.75 29.0465 241.692 28.1037 243.576H19.6189L20.0902 240.75H24.3327Z" fill="#FF5252"/>
<path d="M39.4168 240.75C39.4168 240.75 44.1306 241.692 43.1879 243.576H34.703L35.1744 240.75H39.4168Z" fill="#FF5252"/>
<path d="M36.1172 169.137C36.1172 169.137 24.804 185.156 29.9892 191.752L9.71986 191.28C9.71986 191.28 15.3764 155.003 36.1172 169.137Z" fill="#FCCC63"/>
<path opacity="0.2" d="M36.1172 169.137C33.1946 167.144 30.5737 166.155 28.2215 165.924C30.1991 166.545 32.0677 167.47 33.7603 168.666C33.7603 168.666 22.4471 184.685 27.6323 191.28L9.79058 190.866C9.74344 191.134 9.71986 191.28 9.71986 191.28L29.9892 191.752C24.804 185.156 36.1172 169.137 36.1172 169.137Z" fill="white"/>
<path opacity="0.2" d="M36.8054 211.068H35.3913L41.7785 228.971C41.7785 228.971 38.7333 232.01 32.398 232.227C39.6902 232.462 43.1926 228.971 43.1926 228.971L36.8054 211.068Z" fill="white"/>
<path opacity="0.2" d="M24.3327 240.75H23.3899C23.3899 240.75 28.1037 241.692 27.1609 243.576H28.1037C29.0465 241.692 24.3327 240.75 24.3327 240.75Z" fill="white"/>
<path opacity="0.2" d="M39.4168 240.75H38.4741C38.4741 240.75 43.1879 241.692 42.2451 243.576H43.1879C44.1306 241.692 39.4168 240.75 39.4168 240.75Z" fill="white"/>
<path d="M416.521 78.9998H235.982V85.8312H416.521V78.9998Z" fill="#F5F5F5"/>
<path d="M420 76.8184H232.391V310.501H420V76.8184Z" fill="url(#paint16_linear)"/>
<path d="M416.521 85.8312H235.982V302.317H416.521V85.8312Z" fill="white"/>
<path d="M240.168 84.1823C241.08 84.1823 241.818 83.444 241.818 82.5333C241.818 81.6226 241.08 80.8843 240.168 80.8843C239.257 80.8843 238.519 81.6226 238.519 82.5333C238.519 83.444 239.257 84.1823 240.168 84.1823Z" fill="#FF5252"/>
<path d="M244.703 84.1823C245.614 84.1823 246.353 83.444 246.353 82.5333C246.353 81.6226 245.614 80.8843 244.703 80.8843C243.792 80.8843 243.053 81.6226 243.053 82.5333C243.053 83.444 243.792 84.1823 244.703 84.1823Z" fill="#FFFF00"/>
<path d="M249.242 84.1823C250.154 84.1823 250.892 83.444 250.892 82.5333C250.892 81.6226 250.154 80.8843 249.242 80.8843C248.331 80.8843 247.593 81.6226 247.593 82.5333C247.593 83.444 248.331 84.1823 249.242 84.1823Z" fill="#69F0AE"/>
<g opacity="0.2">
<path opacity="0.2" d="M405.679 95.4895H247.296V99.7297H405.679V95.4895Z" fill="#6C63FF"/>
</g>
<path d="M314.703 113.864H246.353V186.418H314.703V113.864Z" fill="url(#paint17_linear)"/>
<path d="M313.289 116.219H247.767V184.063H313.289V116.219Z" fill="white"/>
<path d="M405.679 150.141H337.329V222.696H405.679V150.141Z" fill="url(#paint18_linear)"/>
<path d="M404.265 152.497H338.743V220.34H404.265V152.497Z" fill="white"/>
<path d="M408.508 239.657H247.767V289.597H408.508V239.657Z" fill="url(#paint19_linear)"/>
<path opacity="0.5" d="M405.679 242.954H251.067V287.712H405.679V242.954Z" fill="#6C63FF"/>
<path opacity="0.5" d="M254.838 247.195H405.679V242.954H251.067V287.712H254.838V247.195Z" fill="white"/>
<path d="M302.433 131.084C297.962 125.89 291.807 122.432 285.043 121.315C278.28 120.197 271.339 121.492 265.434 124.972C259.528 128.453 255.035 133.897 252.74 140.353C250.444 146.809 250.492 153.866 252.876 160.29C255.259 166.714 259.827 172.097 265.779 175.496C271.731 178.895 278.689 180.095 285.437 178.886C292.184 177.676 298.292 174.135 302.691 168.88C307.091 163.626 309.502 156.993 309.504 150.141C309.512 143.146 307.002 136.382 302.433 131.084ZM290.649 167.582C286.801 169.861 282.309 170.804 277.87 170.264C273.431 169.725 269.295 167.734 266.106 164.6C262.917 161.467 260.855 157.368 260.239 152.941C259.624 148.514 260.491 144.008 262.704 140.125C264.918 136.242 268.354 133.199 272.478 131.471C276.602 129.742 281.182 129.426 285.504 130.57C289.827 131.714 293.65 134.254 296.378 137.796C299.105 141.337 300.585 145.681 300.585 150.15C300.596 153.669 299.686 157.129 297.945 160.187C296.205 163.244 293.694 165.794 290.663 167.582H290.649Z" fill="url(#paint20_linear)"/>
<path d="M294.929 137.543L301.363 132.007C298.756 128.973 295.523 126.538 291.886 124.87C288.249 123.202 284.294 122.341 280.292 122.344V130.825C283.072 130.824 285.82 131.424 288.346 132.583C290.872 133.743 293.118 135.435 294.929 137.543Z" fill="#FF5252"/>
<path d="M280.292 169.453C277.54 169.454 274.82 168.865 272.317 167.724L268.814 175.455C272.893 177.304 277.358 178.141 281.83 177.895C286.302 177.649 290.649 176.327 294.5 174.042L290.163 166.744C287.179 168.523 283.767 169.459 280.292 169.453Z" fill="#69F0AE"/>
<path d="M308.104 150.136C308.112 143.478 305.719 137.04 301.363 132.002L294.929 137.538C296.776 139.673 298.132 142.187 298.901 144.903C299.67 147.619 299.833 150.471 299.379 153.257C298.924 156.043 297.863 158.695 296.271 161.026C294.678 163.358 292.593 165.311 290.163 166.749L294.5 174.046C298.648 171.583 302.083 168.083 304.468 163.891C306.853 159.699 308.106 154.959 308.104 150.136Z" fill="#FF9800"/>
<path d="M260.966 150.136C260.966 145.013 263.002 140.1 266.626 136.478C270.251 132.855 275.166 130.82 280.292 130.82V122.339C273.936 122.34 267.772 124.516 262.826 128.506C257.88 132.496 254.45 138.058 253.109 144.268C251.767 150.478 252.593 156.959 255.451 162.634C258.309 168.308 263.025 172.833 268.814 175.455L272.316 167.724C268.934 166.192 266.064 163.719 264.051 160.6C262.038 157.481 260.967 153.848 260.966 150.136Z" fill="#6C63FF"/>
<path d="M397.666 162.391H347.7V170.871H397.666V162.391Z" fill="url(#paint21_linear)"/>
<path d="M397.195 162.862H348.171V170.4H397.195V162.862Z" fill="#6C63FF"/>
<path d="M383.996 175.582H348.171V183.12H383.996V175.582Z" fill="#FF5252"/>
<path d="M372.683 188.303H348.171V195.841H372.683V188.303Z" fill="#69F0AE"/>
<path d="M392.481 201.024H348.171V208.562H392.481V201.024Z" fill="#FF9800"/>
<path d="M318.003 197.726H247.767V201.966H318.003V197.726Z" fill="#F5F5F5"/>
<path d="M287.363 204.793H247.767V209.033H287.363V204.793Z" fill="#F5F5F5"/>
<path d="M308.104 204.793H294.434V209.033H308.104V204.793Z" fill="#F5F5F5"/>
<path d="M308.104 220.34H294.434V224.58H308.104V220.34Z" fill="#F5F5F5"/>
<path d="M287.363 218.927H247.767V223.167H287.363V218.927Z" fill="#F5F5F5"/>
<path d="M318.003 211.86H247.767V216.1H318.003V211.86Z" fill="#F5F5F5"/>
<path d="M406.622 114.335H336.387V118.575H406.622V114.335Z" fill="#F5F5F5"/>
<path d="M375.982 121.402H336.387V125.642H375.982V121.402Z" fill="#F5F5F5"/>
<path d="M396.723 121.402H383.053V125.642H396.723V121.402Z" fill="#F5F5F5"/>
<path d="M396.723 136.949H383.053V141.19H396.723V136.949Z" fill="#F5F5F5"/>
<path d="M375.982 135.536H336.387V139.776H375.982V135.536Z" fill="#F5F5F5"/>
<path d="M406.622 128.469H336.387V132.709H406.622V128.469Z" fill="#F5F5F5"/>
<path d="M358.541 329.643C361.405 329.643 363.727 327.323 363.727 324.461C363.727 321.599 361.405 319.278 358.541 319.278C355.678 319.278 353.356 321.599 353.356 324.461C353.356 327.323 355.678 329.643 358.541 329.643Z" fill="url(#paint22_linear)"/>
<path d="M358.541 328.23C360.624 328.23 362.312 326.542 362.312 324.461C362.312 322.379 360.624 320.692 358.541 320.692C356.459 320.692 354.77 322.379 354.77 324.461C354.77 326.542 356.459 328.23 358.541 328.23Z" fill="#FF5252"/>
<path d="M367.498 266.982H205.343V323.99H367.498V266.982Z" fill="url(#paint23_linear)"/>
<path d="M364.669 269.338H210.057V314.096H364.669V269.338Z" fill="white"/>
<path d="M215.242 305.615H358.541" stroke="#6C63FF" stroke-width="3" stroke-miterlimit="10"/>
<path d="M237.868 278.29H216.656V304.202H237.868V278.29Z" fill="url(#paint24_linear)"/>
<path d="M236.69 279.467H217.834V303.495H236.69V279.467Z" fill="#6C63FF"/>
<path d="M354.77 296.664H335.915V304.202H354.77V296.664Z" fill="#69F0AE"/>
<path d="M319.417 286.77H300.562V303.731H319.417V286.77Z" fill="#FF9800"/>
<path d="M277.935 289.597H259.08V303.731H277.935V289.597Z" fill="#FF5252"/>
<path d="M364.669 314.096H210.057V320.692H364.669V314.096Z" fill="#FF5252"/>
<path d="M216.656 329.643C219.52 329.643 221.841 327.323 221.841 324.461C221.841 321.599 219.52 319.278 216.656 319.278C213.792 319.278 211.471 321.599 211.471 324.461C211.471 327.323 213.792 329.643 216.656 329.643Z" fill="url(#paint25_linear)"/>
<path d="M216.656 328.23C218.739 328.23 220.427 326.542 220.427 324.461C220.427 322.379 218.739 320.692 216.656 320.692C214.573 320.692 212.885 322.379 212.885 324.461C212.885 326.542 214.573 328.23 216.656 328.23Z" fill="#FF5252"/>
<path d="M210.057 271.223H206.286V320.692H210.057V271.223Z" fill="#FF5252"/>
<path opacity="0.2" d="M210.057 271.223H206.286V320.692H210.057V271.223Z" fill="black"/>
<path d="M210.306 276.48C210.306 276.429 210.306 276.381 210.306 276.33C210.306 276.278 210.306 276.174 210.306 276.099C210.306 276.023 210.306 276 210.278 275.953C210.25 275.906 210.245 275.811 210.222 275.745C210.198 275.68 210.193 275.656 210.174 275.609C210.156 275.562 210.118 275.477 210.09 275.411L210.033 275.293C209.995 275.227 209.953 275.161 209.91 275.1L209.849 275.011C209.787 274.926 209.721 274.844 209.651 274.766C209.275 274.365 208.83 274.036 208.336 273.795C208.722 273.38 209.011 272.884 209.18 272.344C209.229 272.199 209.266 272.051 209.293 271.901C209.293 271.854 209.293 271.807 209.293 271.764C209.306 271.674 209.314 271.583 209.316 271.491C209.316 271.439 209.316 271.392 209.316 271.34C209.316 271.289 209.316 271.185 209.316 271.109C209.316 271.034 209.316 271.011 209.288 270.963C209.26 270.916 209.255 270.822 209.232 270.756C209.208 270.69 209.203 270.667 209.185 270.62C209.166 270.572 209.128 270.488 209.1 270.422L209.043 270.304C209.005 270.238 208.963 270.172 208.921 270.111L208.859 270.021C208.797 269.936 208.731 269.854 208.661 269.776C208.191 269.284 207.62 268.898 206.988 268.645C206.988 268.645 203.995 269.753 203.797 270.968C201.6 271.439 188.797 274.101 180.006 273.889L179.94 273.715C179.941 272.293 179.553 270.899 178.82 269.681C178.087 268.463 177.035 267.468 175.778 266.803V263.845C175.785 263.719 175.785 263.593 175.778 263.468C175.765 263.347 175.746 263.228 175.721 263.11L175.778 263.077L176.018 262.945L176.367 262.733L176.589 262.587C176.752 262.474 176.909 262.354 177.06 262.229L177.239 262.073C177.347 261.979 177.451 261.885 177.555 261.786L177.739 261.607C177.868 261.475 177.99 261.34 178.106 261.202L178.234 261.041C178.344 260.903 178.449 260.762 178.55 260.617L178.677 260.424C178.768 260.283 178.856 260.138 178.941 259.991L179.021 259.849C179.125 259.661 179.219 259.463 179.304 259.265L179.374 259.086C179.44 258.926 179.5 258.769 179.554 258.615L179.61 258.441C179.676 258.224 179.733 258.007 179.78 257.786C179.78 257.743 179.78 257.696 179.803 257.654C179.838 257.465 179.866 257.275 179.888 257.084C179.888 257.018 179.888 256.957 179.888 256.891C179.888 256.655 179.926 256.42 179.926 256.179C179.926 254.84 179.58 253.524 178.922 252.358C179.426 252.236 179.733 252.137 179.695 252.09C179.502 251.831 179.308 251.586 179.106 251.35L178.912 251.129C178.771 250.969 178.634 250.818 178.493 250.658L178.267 250.427C178.125 250.285 177.984 250.153 177.842 250.026L177.621 249.828C177.442 249.678 177.263 249.532 177.083 249.39L176.966 249.296C176.749 249.136 176.532 248.985 176.31 248.825L176.065 248.674C175.924 248.585 175.778 248.5 175.632 248.424L175.339 248.274L174.934 248.08L174.637 247.949C174.496 247.887 174.349 247.835 174.203 247.784L173.935 247.685C173.718 247.614 173.501 247.548 173.284 247.492L172.95 247.416L172.587 247.341L172.224 247.284L171.889 247.247L171.516 247.214H171.196H170.824C170.619 247.214 170.415 247.223 170.211 247.242C165.389 247.638 161.165 251.845 161.165 258.549V264.08H168.707V266.596C167.351 267.221 166.203 268.221 165.398 269.477C164.593 270.734 164.164 272.194 164.163 273.687V295.128L157.762 324.522H157.677L156.418 330.133L165.45 331.594L165.841 331.655C166.784 331.25 165.205 329.351 164.493 327.886C164.42 327.733 164.357 327.576 164.304 327.415C164.205 327.119 164.145 326.812 164.125 326.501L171.064 303.75H171.031L171.196 303.217C171.196 303.217 180.03 306.986 182.302 314.567C184.145 320.692 182.999 324.677 182.5 325.968H182.467V326.044C182.368 326.289 182.297 326.425 182.297 326.425H182.467V330.585H192.017C192.903 330.138 191.022 328.833 190.084 327.759C189.777 327.418 189.563 327.004 189.462 326.557H189.622L189.698 326.218C190.898 320.645 190.623 314.854 188.898 309.42C187.174 303.985 184.06 299.095 179.865 295.232C179.882 295.207 179.896 295.18 179.907 295.151C180.808 292.395 181.364 289.536 181.562 286.643C188.863 287.34 198.578 286.841 205.842 281.215C206.536 280.692 207.198 280.129 207.827 279.529C208.454 279.482 209.552 279.133 210.16 277.361C210.209 277.217 210.247 277.069 210.273 276.919C210.273 276.871 210.273 276.824 210.273 276.782C210.29 276.682 210.301 276.582 210.306 276.48Z" fill="url(#paint26_linear)"/>
<path d="M172.049 284.782C172.049 284.782 194.157 291.806 206.403 280.07L203.806 276.674C203.806 276.674 180.048 281.964 174.387 278.087C168.726 274.21 172.049 284.782 172.049 284.782Z" fill="#6C63FF"/>
<path opacity="0.2" d="M205.781 279.628L206.215 280.193C193.959 291.934 171.861 284.904 171.861 284.904C171.861 284.904 171.804 284.725 171.719 284.433C174.354 285.22 194.355 290.596 205.781 279.628Z" fill="white"/>
<path d="M205.932 280.066C205.932 280.066 207.742 280.476 208.576 278.049C209.411 275.623 206.502 274.553 206.502 274.553C206.502 274.553 203.471 275.67 203.481 276.857C203.49 278.045 205.932 280.066 205.932 280.066Z" fill="#985454"/>
<path opacity="0.2" d="M205.644 279.684C205.644 279.684 207.455 280.094 208.289 277.668C208.418 277.333 208.466 276.972 208.429 276.615C208.393 276.258 208.272 275.915 208.077 275.614C208.383 275.929 208.593 276.326 208.681 276.756C208.77 277.187 208.733 277.634 208.576 278.045C207.742 280.476 205.932 280.061 205.932 280.061C205.212 279.457 204.561 278.776 203.99 278.03C204.494 278.627 205.048 279.18 205.644 279.684Z" fill="white"/>
<path d="M182.519 323.796H189.066C189.042 324.105 189.084 324.415 189.191 324.705C189.298 324.995 189.466 325.259 189.684 325.478C190.565 326.496 192.337 327.726 191.503 328.145H182.519V323.796Z" fill="#6C63FF"/>
<path opacity="0.2" d="M189.207 325.478C188.989 325.259 188.821 324.995 188.715 324.705C188.608 324.415 188.566 324.105 188.59 323.796H189.061C189.037 324.105 189.08 324.415 189.186 324.705C189.293 324.995 189.461 325.259 189.679 325.478C190.56 326.496 192.333 327.726 191.498 328.145H191.027C191.861 327.726 190.089 326.501 189.207 325.478Z" fill="white"/>
<path d="M159.199 322.449L165.327 323.453C165.158 324.182 165.257 324.948 165.605 325.61C166.275 327.024 167.778 328.786 166.873 329.167L158.002 327.754L159.199 322.449Z" fill="#6C63FF"/>
<path opacity="0.2" d="M165.139 325.606C164.79 324.943 164.691 324.177 164.861 323.448L159.18 322.506V322.43L165.308 323.434C165.139 324.163 165.238 324.929 165.587 325.591C166.256 327.005 167.76 328.767 166.855 329.149L166.482 329.087C167.18 328.626 165.78 326.934 165.139 325.606Z" fill="white"/>
<path d="M169.532 268.551C169.532 270.388 171.021 271.877 172.858 271.877C174.694 271.877 176.183 270.388 176.183 268.551V265.352C176.183 263.515 174.694 262.026 172.858 262.026C171.021 262.026 169.532 263.515 169.532 265.352V268.551Z" fill="#985454"/>
<path d="M172.737 265.47C176.804 265.47 180.1 262.175 180.1 258.111C180.1 254.047 176.804 250.752 172.737 250.752C168.671 250.752 165.374 254.047 165.374 258.111C165.374 262.175 168.671 265.47 172.737 265.47Z" fill="#985454"/>
<path opacity="0.2" d="M175.354 268.556V265.352C175.353 265.118 175.328 264.884 175.278 264.655C176.716 263.917 177.871 262.726 178.565 261.267C179.258 259.808 179.452 258.161 179.117 256.581C178.781 255 177.934 253.574 176.707 252.522C175.48 251.471 173.941 250.852 172.327 250.761H172.742C174.394 250.761 175.998 251.315 177.296 252.336C178.594 253.356 179.511 254.783 179.9 256.387C180.289 257.992 180.127 259.68 179.44 261.181C178.753 262.683 177.581 263.909 176.112 264.664C176.162 264.893 176.188 265.127 176.188 265.362V268.565C176.192 269.038 176.095 269.507 175.902 269.939C175.709 270.371 175.425 270.756 175.07 271.069C174.715 271.382 174.297 271.615 173.844 271.752C173.391 271.889 172.914 271.927 172.445 271.863C173.249 271.759 173.988 271.366 174.523 270.757C175.058 270.149 175.353 269.366 175.354 268.556Z" fill="white"/>
<path d="M165.257 294.789C165.257 294.789 179.459 296.391 179.983 294.789C183.664 283.51 179.983 274.61 179.983 274.61C179.983 272.658 179.207 270.786 177.826 269.406C176.445 268.026 174.572 267.251 172.62 267.251C170.667 267.251 168.794 268.026 167.413 269.406C166.032 270.786 165.257 272.658 165.257 274.61V294.789Z" fill="#6C63FF"/>
<path d="M165.257 294.789L158.841 324.23H165.257L171.908 302.388C171.908 302.388 180.223 305.95 182.358 313.073C184.494 320.197 182.358 324.23 182.358 324.23H189.259L189.33 323.91C190.464 318.664 190.198 313.212 188.56 308.101C186.922 302.991 183.969 298.4 179.997 294.789" fill="#263238"/>
<path opacity="0.2" d="M179.153 294.789C182.834 283.51 179.153 274.61 179.153 274.61C179.153 272.74 178.442 270.941 177.162 269.577C175.883 268.212 174.133 267.386 172.266 267.265C172.422 267.265 172.582 267.265 172.737 267.265C174.69 267.265 176.563 268.04 177.944 269.42C179.325 270.801 180.1 272.672 180.1 274.624C180.1 274.624 183.782 283.529 180.1 294.803C179.912 295.378 177.97 295.538 175.556 295.514C177.517 295.472 178.993 295.283 179.153 294.789Z" fill="white"/>
<g opacity="0.2">
<path opacity="0.2" d="M171.785 302.906L165.257 324.348H164.314L170.965 302.506C170.965 302.506 171.271 302.638 171.785 302.906Z" fill="white"/>
<path opacity="0.2" d="M179.035 294.906H179.978C183.95 298.517 186.903 303.108 188.541 308.219C190.179 313.33 190.445 318.782 189.311 324.027L189.24 324.348H188.298L188.368 324.027C189.502 318.782 189.237 313.33 187.599 308.219C185.96 303.108 183.007 298.517 179.035 294.906Z" fill="white"/>
</g>
<path d="M171.106 280.07C171.106 280.07 193.214 287.095 205.461 275.359L202.863 271.962C202.863 271.962 179.106 277.253 173.444 273.376C167.783 269.498 171.106 280.07 171.106 280.07Z" fill="#6C63FF"/>
<path opacity="0.2" d="M204.838 274.916L205.272 275.482C193.016 287.222 170.918 280.193 170.918 280.193C170.918 280.193 170.861 280.014 170.776 279.722C173.411 280.509 193.412 285.884 204.838 274.916Z" fill="white"/>
<path d="M204.989 275.354C204.989 275.354 206.799 275.764 207.634 273.338C208.468 270.912 205.56 269.842 205.56 269.842C205.56 269.842 202.529 270.959 202.538 272.146C202.547 273.333 204.989 275.354 204.989 275.354Z" fill="#985454"/>
<path opacity="0.2" d="M204.702 274.973C204.702 274.973 206.512 275.383 207.346 272.956C207.475 272.621 207.524 272.261 207.487 271.904C207.45 271.547 207.329 271.204 207.134 270.902C207.44 271.218 207.65 271.614 207.739 272.045C207.827 272.476 207.791 272.923 207.634 273.333C206.799 275.764 204.989 275.35 204.989 275.35C204.27 274.746 203.618 274.065 203.047 273.319C203.552 273.915 204.105 274.468 204.702 274.973Z" fill="white"/>
<path d="M173.289 255.67L172.818 265.564H162.447V260.311C162.447 249.762 173.605 245.758 179.888 254.233C180.044 254.464 173.289 255.67 173.289 255.67Z" fill="#263238"/>
<path opacity="0.2" d="M170.96 249.706C173.605 249.923 176.325 251.364 178.474 254.262C178.63 254.469 171.875 255.675 171.875 255.675L171.403 265.569H172.818L173.289 255.675C173.289 255.675 180.044 254.469 179.888 254.262C177.357 250.841 174.029 249.475 170.96 249.706Z" fill="white"/>
<defs>
<linearGradient id="paint0_linear" x1="100.696" y1="228.971" x2="100.696" y2="0" gradientUnits="userSpaceOnUse">
<stop stop-color="#808080" stop-opacity="0.25"/>
<stop offset="0.54" stop-color="#808080" stop-opacity="0.12"/>
<stop offset="1" stop-color="#808080" stop-opacity="0.1"/>
</linearGradient>
<linearGradient id="paint1_linear" x1="5460.29" y1="2103.6" x2="5460.29" y2="2046.6" gradientUnits="userSpaceOnUse">
<stop stop-color="#808080" stop-opacity="0.25"/>
<stop offset="0.54" stop-color="#808080" stop-opacity="0.12"/>
<stop offset="1" stop-color="#808080" stop-opacity="0.1"/>
</linearGradient>
<linearGradient id="paint2_linear" x1="5460.29" y1="2420.22" x2="5460.29" y2="2363.21" gradientUnits="userSpaceOnUse">
<stop stop-color="#808080" stop-opacity="0.25"/>
<stop offset="0.54" stop-color="#808080" stop-opacity="0.12"/>
<stop offset="1" stop-color="#808080" stop-opacity="0.1"/>
</linearGradient>
<linearGradient id="paint3_linear" x1="7912.41" y1="2420.22" x2="7912.41" y2="2363.21" gradientUnits="userSpaceOnUse">
<stop stop-color="#808080" stop-opacity="0.25"/>
<stop offset="0.54" stop-color="#808080" stop-opacity="0.12"/>
<stop offset="1" stop-color="#808080" stop-opacity="0.1"/>
</linearGradient>
<linearGradient id="paint4_linear" x1="3010.6" y1="464.067" x2="3010.6" y2="407.06" gradientUnits="userSpaceOnUse">
<stop stop-color="#808080" stop-opacity="0.25"/>
<stop offset="0.54" stop-color="#808080" stop-opacity="0.12"/>
<stop offset="1" stop-color="#808080" stop-opacity="0.1"/>
</linearGradient>
<linearGradient id="paint5_linear" x1="3010.6" y1="548.871" x2="3010.6" y2="491.864" gradientUnits="userSpaceOnUse">
<stop stop-color="#808080" stop-opacity="0.25"/>
<stop offset="0.54" stop-color="#808080" stop-opacity="0.12"/>
<stop offset="1" stop-color="#808080" stop-opacity="0.1"/>
</linearGradient>
<linearGradient id="paint6_linear" x1="3010.6" y1="633.675" x2="3010.6" y2="576.668" gradientUnits="userSpaceOnUse">
<stop stop-color="#808080" stop-opacity="0.25"/>
<stop offset="0.54" stop-color="#808080" stop-opacity="0.12"/>
<stop offset="1" stop-color="#808080" stop-opacity="0.1"/>
</linearGradient>
<linearGradient id="paint7_linear" x1="3010.6" y1="718.48" x2="3010.6" y2="661.472" gradientUnits="userSpaceOnUse">
<stop stop-color="#808080" stop-opacity="0.25"/>
<stop offset="0.54" stop-color="#808080" stop-opacity="0.12"/>
<stop offset="1" stop-color="#808080" stop-opacity="0.1"/>
</linearGradient>
<linearGradient id="paint8_linear" x1="37056.5" y1="23548.2" x2="37056.5" y2="12947.7" gradientUnits="userSpaceOnUse">
<stop stop-color="#808080" stop-opacity="0.25"/>
<stop offset="0.54" stop-color="#808080" stop-opacity="0.12"/>
<stop offset="1" stop-color="#808080" stop-opacity="0.1"/>
</linearGradient>
<linearGradient id="paint9_linear" x1="69520.1" y1="25076.8" x2="68534.1" y2="14236.4" gradientUnits="userSpaceOnUse">
<stop stop-color="#808080" stop-opacity="0.25"/>
<stop offset="0.54" stop-color="#808080" stop-opacity="0.12"/>
<stop offset="1" stop-color="#808080" stop-opacity="0.1"/>
</linearGradient>
<linearGradient id="paint10_linear" x1="3225.62" y1="1942.11" x2="3217.25" y2="1850.14" gradientUnits="userSpaceOnUse">
<stop stop-color="#808080" stop-opacity="0.25"/>
<stop offset="0.54" stop-color="#808080" stop-opacity="0.12"/>
<stop offset="1" stop-color="#808080" stop-opacity="0.1"/>
</linearGradient>
<linearGradient id="paint11_linear" x1="3518.4" y1="1885.3" x2="3510.03" y2="1793.34" gradientUnits="userSpaceOnUse">
<stop stop-color="#808080" stop-opacity="0.25"/>
<stop offset="0.54" stop-color="#808080" stop-opacity="0.12"/>
<stop offset="1" stop-color="#808080" stop-opacity="0.1"/>
</linearGradient>
<linearGradient id="paint12_linear" x1="286.939" y1="203.828" x2="286.939" y2="203.794" gradientUnits="userSpaceOnUse">
<stop stop-color="#808080" stop-opacity="0.25"/>
<stop offset="0.54" stop-color="#808080" stop-opacity="0.12"/>
<stop offset="1" stop-color="#808080" stop-opacity="0.1"/>
</linearGradient>
<linearGradient id="paint13_linear" x1="18773.7" y1="47465.9" x2="18773.7" y2="33398.8" gradientUnits="userSpaceOnUse">
<stop stop-color="#808080" stop-opacity="0.25"/>
<stop offset="0.54" stop-color="#808080" stop-opacity="0.12"/>
<stop offset="1" stop-color="#808080" stop-opacity="0.1"/>
</linearGradient>
<linearGradient id="paint14_linear" x1="60.3451" y1="217.061" x2="60.3451" y2="217.016" gradientUnits="userSpaceOnUse">
<stop stop-color="#808080" stop-opacity="0.25"/>
<stop offset="0.54" stop-color="#808080" stop-opacity="0.12"/>
<stop offset="1" stop-color="#808080" stop-opacity="0.1"/>
</linearGradient>
<linearGradient id="paint15_linear" x1="12468.5" y1="59275.8" x2="12468.5" y2="39962.8" gradientUnits="userSpaceOnUse">
<stop stop-color="#808080" stop-opacity="0.25"/>
<stop offset="0.54" stop-color="#808080" stop-opacity="0.12"/>
<stop offset="1" stop-color="#808080" stop-opacity="0.1"/>
</linearGradient>
<linearGradient id="paint16_linear" x1="130058" y1="154085" x2="130058" y2="38178.8" gradientUnits="userSpaceOnUse">
<stop stop-color="#808080" stop-opacity="0.25"/>
<stop offset="0.54" stop-color="#808080" stop-opacity="0.12"/>
<stop offset="1" stop-color="#808080" stop-opacity="0.1"/>
</linearGradient>
<linearGradient id="paint17_linear" x1="40922.9" y1="28822.3" x2="40922.9" y2="17648.9" gradientUnits="userSpaceOnUse">
<stop stop-color="#808080" stop-opacity="0.25"/>
<stop offset="0.54" stop-color="#808080" stop-opacity="0.12"/>
<stop offset="1" stop-color="#808080" stop-opacity="0.1"/>
</linearGradient>
<linearGradient id="paint18_linear" x1="54205.4" y1="34445.3" x2="54205.4" y2="23271.9" gradientUnits="userSpaceOnUse">
<stop stop-color="#808080" stop-opacity="0.25"/>
<stop offset="0.54" stop-color="#808080" stop-opacity="0.12"/>
<stop offset="1" stop-color="#808080" stop-opacity="0.1"/>
</linearGradient>
<linearGradient id="paint19_linear" x1="112143" y1="30936.9" x2="112143" y2="25643.2" gradientUnits="userSpaceOnUse">
<stop stop-color="#808080" stop-opacity="0.25"/>
<stop offset="0.54" stop-color="#808080" stop-opacity="0.12"/>
<stop offset="1" stop-color="#808080" stop-opacity="0.1"/>
</linearGradient>
<linearGradient id="paint20_linear" x1="44038" y1="27879.5" x2="44038" y2="20635.4" gradientUnits="userSpaceOnUse">
<stop stop-color="#808080" stop-opacity="0.25"/>
<stop offset="0.54" stop-color="#808080" stop-opacity="0.12"/>
<stop offset="1" stop-color="#808080" stop-opacity="0.1"/>
</linearGradient>
<linearGradient id="paint21_linear" x1="39852.1" y1="3238.06" x2="39852.1" y2="3085.41" gradientUnits="userSpaceOnUse">
<stop stop-color="#808080" stop-opacity="0.25"/>
<stop offset="0.54" stop-color="#808080" stop-opacity="0.12"/>
<stop offset="1" stop-color="#808080" stop-opacity="0.1"/>
</linearGradient>
<linearGradient id="paint22_linear" x1="8241.26" y1="7571.43" x2="8241.26" y2="7343.4" gradientUnits="userSpaceOnUse">
<stop stop-color="#808080" stop-opacity="0.25"/>
<stop offset="0.54" stop-color="#808080" stop-opacity="0.12"/>
<stop offset="1" stop-color="#808080" stop-opacity="0.1"/>
</linearGradient>
<linearGradient id="paint23_linear" x1="98733.9" y1="39469.7" x2="98733.9" y2="32571.8" gradientUnits="userSpaceOnUse">
<stop stop-color="#808080" stop-opacity="0.25"/>
<stop offset="0.54" stop-color="#808080" stop-opacity="0.12"/>
<stop offset="1" stop-color="#808080" stop-opacity="0.1"/>
</linearGradient>
<linearGradient id="paint24_linear" x1="10443.4" y1="17009.4" x2="10443.4" y2="15584.2" gradientUnits="userSpaceOnUse">
<stop stop-color="#808080" stop-opacity="0.25"/>
<stop offset="0.54" stop-color="#808080" stop-opacity="0.12"/>
<stop offset="1" stop-color="#808080" stop-opacity="0.1"/>
</linearGradient>
<linearGradient id="paint25_linear" x1="4977.89" y1="7571.43" x2="4977.89" y2="7343.4" gradientUnits="userSpaceOnUse">
<stop stop-color="#808080" stop-opacity="0.25"/>
<stop offset="0.54" stop-color="#808080" stop-opacity="0.12"/>
<stop offset="1" stop-color="#808080" stop-opacity="0.1"/>
</linearGradient>
<linearGradient id="paint26_linear" x1="26365" y1="60098.4" x2="32524.4" y2="60098.4" gradientUnits="userSpaceOnUse">
<stop stop-color="#808080" stop-opacity="0.25"/>
<stop offset="0.54" stop-color="#808080" stop-opacity="0.12"/>
<stop offset="1" stop-color="#808080" stop-opacity="0.1"/>
</linearGradient>
</defs>
</svg>
